G04 #@! TF.GenerationSoftware,KiCad,Pcbnew,5.1.2*
G04 #@! TF.CreationDate,2019-05-25T23:05:01-04:00*
G04 #@! TF.ProjectId,skateboardController,736b6174-6562-46f6-9172-64436f6e7472,rev?*
G04 #@! TF.SameCoordinates,Original*
G04 #@! TF.FileFunction,Soldermask,Top*
G04 #@! TF.FilePolarity,Negative*
%FSLAX46Y46*%
G04 Gerber Fmt 4.6, Leading zero omitted, Abs format (unit mm)*
G04 Created by KiCad (PCBNEW 5.1.2) date 2019-05-25 23:05:01*
%MOMM*%
%LPD*%
G04 APERTURE LIST*
%ADD10C,0.100000*%
G04 APERTURE END LIST*
D10*
G36*
X84565442Y-115945518D02*
G01*
X84631627Y-115952037D01*
X84801466Y-116003557D01*
X84957991Y-116087222D01*
X84993729Y-116116552D01*
X85095186Y-116199814D01*
X85178448Y-116301271D01*
X85207778Y-116337009D01*
X85291443Y-116493534D01*
X85342963Y-116663373D01*
X85360359Y-116840000D01*
X85342963Y-117016627D01*
X85291443Y-117186466D01*
X85207778Y-117342991D01*
X85178448Y-117378729D01*
X85095186Y-117480186D01*
X84993729Y-117563448D01*
X84957991Y-117592778D01*
X84801466Y-117676443D01*
X84631627Y-117727963D01*
X84565442Y-117734482D01*
X84499260Y-117741000D01*
X84410740Y-117741000D01*
X84344558Y-117734482D01*
X84278373Y-117727963D01*
X84108534Y-117676443D01*
X83952009Y-117592778D01*
X83916271Y-117563448D01*
X83814814Y-117480186D01*
X83731552Y-117378729D01*
X83702222Y-117342991D01*
X83618557Y-117186466D01*
X83567037Y-117016627D01*
X83549641Y-116840000D01*
X83567037Y-116663373D01*
X83618557Y-116493534D01*
X83702222Y-116337009D01*
X83731552Y-116301271D01*
X83814814Y-116199814D01*
X83916271Y-116116552D01*
X83952009Y-116087222D01*
X84108534Y-116003557D01*
X84278373Y-115952037D01*
X84344558Y-115945518D01*
X84410740Y-115939000D01*
X84499260Y-115939000D01*
X84565442Y-115945518D01*
X84565442Y-115945518D01*
G37*
G36*
X87105442Y-115945518D02*
G01*
X87171627Y-115952037D01*
X87341466Y-116003557D01*
X87497991Y-116087222D01*
X87533729Y-116116552D01*
X87635186Y-116199814D01*
X87718448Y-116301271D01*
X87747778Y-116337009D01*
X87831443Y-116493534D01*
X87882963Y-116663373D01*
X87900359Y-116840000D01*
X87882963Y-117016627D01*
X87831443Y-117186466D01*
X87747778Y-117342991D01*
X87718448Y-117378729D01*
X87635186Y-117480186D01*
X87533729Y-117563448D01*
X87497991Y-117592778D01*
X87341466Y-117676443D01*
X87171627Y-117727963D01*
X87105442Y-117734482D01*
X87039260Y-117741000D01*
X86950740Y-117741000D01*
X86884558Y-117734482D01*
X86818373Y-117727963D01*
X86648534Y-117676443D01*
X86492009Y-117592778D01*
X86456271Y-117563448D01*
X86354814Y-117480186D01*
X86271552Y-117378729D01*
X86242222Y-117342991D01*
X86158557Y-117186466D01*
X86107037Y-117016627D01*
X86089641Y-116840000D01*
X86107037Y-116663373D01*
X86158557Y-116493534D01*
X86242222Y-116337009D01*
X86271552Y-116301271D01*
X86354814Y-116199814D01*
X86456271Y-116116552D01*
X86492009Y-116087222D01*
X86648534Y-116003557D01*
X86818373Y-115952037D01*
X86884558Y-115945518D01*
X86950740Y-115939000D01*
X87039260Y-115939000D01*
X87105442Y-115945518D01*
X87105442Y-115945518D01*
G37*
G36*
X90436000Y-117741000D02*
G01*
X88634000Y-117741000D01*
X88634000Y-115939000D01*
X90436000Y-115939000D01*
X90436000Y-117741000D01*
X90436000Y-117741000D01*
G37*
G36*
X99192499Y-115810445D02*
G01*
X99229995Y-115821820D01*
X99264554Y-115840292D01*
X99294847Y-115865153D01*
X99319708Y-115895446D01*
X99338180Y-115930005D01*
X99349555Y-115967501D01*
X99354000Y-116012638D01*
X99354000Y-116651362D01*
X99349555Y-116696499D01*
X99338180Y-116733995D01*
X99319708Y-116768554D01*
X99294847Y-116798847D01*
X99264554Y-116823708D01*
X99229995Y-116842180D01*
X99192499Y-116853555D01*
X99147362Y-116858000D01*
X98408638Y-116858000D01*
X98363501Y-116853555D01*
X98326005Y-116842180D01*
X98291446Y-116823708D01*
X98261153Y-116798847D01*
X98236292Y-116768554D01*
X98217820Y-116733995D01*
X98206445Y-116696499D01*
X98202000Y-116651362D01*
X98202000Y-116012638D01*
X98206445Y-115967501D01*
X98217820Y-115930005D01*
X98236292Y-115895446D01*
X98261153Y-115865153D01*
X98291446Y-115840292D01*
X98326005Y-115821820D01*
X98363501Y-115810445D01*
X98408638Y-115806000D01*
X99147362Y-115806000D01*
X99192499Y-115810445D01*
X99192499Y-115810445D01*
G37*
G36*
X93406499Y-115810445D02*
G01*
X93443995Y-115821820D01*
X93478554Y-115840292D01*
X93508847Y-115865153D01*
X93533708Y-115895446D01*
X93552180Y-115930005D01*
X93563555Y-115967501D01*
X93568000Y-116012638D01*
X93568000Y-116651362D01*
X93563555Y-116696499D01*
X93552180Y-116733995D01*
X93533708Y-116768554D01*
X93508847Y-116798847D01*
X93478554Y-116823708D01*
X93443995Y-116842180D01*
X93406499Y-116853555D01*
X93361362Y-116858000D01*
X92622638Y-116858000D01*
X92577501Y-116853555D01*
X92540005Y-116842180D01*
X92505446Y-116823708D01*
X92475153Y-116798847D01*
X92450292Y-116768554D01*
X92431820Y-116733995D01*
X92420445Y-116696499D01*
X92416000Y-116651362D01*
X92416000Y-116012638D01*
X92420445Y-115967501D01*
X92431820Y-115930005D01*
X92450292Y-115895446D01*
X92475153Y-115865153D01*
X92505446Y-115840292D01*
X92540005Y-115821820D01*
X92577501Y-115810445D01*
X92622638Y-115806000D01*
X93361362Y-115806000D01*
X93406499Y-115810445D01*
X93406499Y-115810445D01*
G37*
G36*
X95156499Y-115810445D02*
G01*
X95193995Y-115821820D01*
X95228554Y-115840292D01*
X95258847Y-115865153D01*
X95283708Y-115895446D01*
X95302180Y-115930005D01*
X95313555Y-115967501D01*
X95318000Y-116012638D01*
X95318000Y-116651362D01*
X95313555Y-116696499D01*
X95302180Y-116733995D01*
X95283708Y-116768554D01*
X95258847Y-116798847D01*
X95228554Y-116823708D01*
X95193995Y-116842180D01*
X95156499Y-116853555D01*
X95111362Y-116858000D01*
X94372638Y-116858000D01*
X94327501Y-116853555D01*
X94290005Y-116842180D01*
X94255446Y-116823708D01*
X94225153Y-116798847D01*
X94200292Y-116768554D01*
X94181820Y-116733995D01*
X94170445Y-116696499D01*
X94166000Y-116651362D01*
X94166000Y-116012638D01*
X94170445Y-115967501D01*
X94181820Y-115930005D01*
X94200292Y-115895446D01*
X94225153Y-115865153D01*
X94255446Y-115840292D01*
X94290005Y-115821820D01*
X94327501Y-115810445D01*
X94372638Y-115806000D01*
X95111362Y-115806000D01*
X95156499Y-115810445D01*
X95156499Y-115810445D01*
G37*
G36*
X97442499Y-115810445D02*
G01*
X97479995Y-115821820D01*
X97514554Y-115840292D01*
X97544847Y-115865153D01*
X97569708Y-115895446D01*
X97588180Y-115930005D01*
X97599555Y-115967501D01*
X97604000Y-116012638D01*
X97604000Y-116651362D01*
X97599555Y-116696499D01*
X97588180Y-116733995D01*
X97569708Y-116768554D01*
X97544847Y-116798847D01*
X97514554Y-116823708D01*
X97479995Y-116842180D01*
X97442499Y-116853555D01*
X97397362Y-116858000D01*
X96658638Y-116858000D01*
X96613501Y-116853555D01*
X96576005Y-116842180D01*
X96541446Y-116823708D01*
X96511153Y-116798847D01*
X96486292Y-116768554D01*
X96467820Y-116733995D01*
X96456445Y-116696499D01*
X96452000Y-116651362D01*
X96452000Y-116012638D01*
X96456445Y-115967501D01*
X96467820Y-115930005D01*
X96486292Y-115895446D01*
X96511153Y-115865153D01*
X96541446Y-115840292D01*
X96576005Y-115821820D01*
X96613501Y-115810445D01*
X96658638Y-115806000D01*
X97397362Y-115806000D01*
X97442499Y-115810445D01*
X97442499Y-115810445D01*
G37*
G36*
X94366499Y-113905445D02*
G01*
X94403995Y-113916820D01*
X94438554Y-113935292D01*
X94468847Y-113960153D01*
X94493708Y-113990446D01*
X94512180Y-114025005D01*
X94523555Y-114062501D01*
X94528000Y-114107638D01*
X94528000Y-114746362D01*
X94523555Y-114791499D01*
X94512180Y-114828995D01*
X94493708Y-114863554D01*
X94468847Y-114893847D01*
X94438554Y-114918708D01*
X94403995Y-114937180D01*
X94366499Y-114948555D01*
X94321362Y-114953000D01*
X93582638Y-114953000D01*
X93537501Y-114948555D01*
X93500005Y-114937180D01*
X93465446Y-114918708D01*
X93435153Y-114893847D01*
X93410292Y-114863554D01*
X93391820Y-114828995D01*
X93380445Y-114791499D01*
X93376000Y-114746362D01*
X93376000Y-114107638D01*
X93380445Y-114062501D01*
X93391820Y-114025005D01*
X93410292Y-113990446D01*
X93435153Y-113960153D01*
X93465446Y-113935292D01*
X93500005Y-113916820D01*
X93537501Y-113905445D01*
X93582638Y-113901000D01*
X94321362Y-113901000D01*
X94366499Y-113905445D01*
X94366499Y-113905445D01*
G37*
G36*
X92616499Y-113905445D02*
G01*
X92653995Y-113916820D01*
X92688554Y-113935292D01*
X92718847Y-113960153D01*
X92743708Y-113990446D01*
X92762180Y-114025005D01*
X92773555Y-114062501D01*
X92778000Y-114107638D01*
X92778000Y-114746362D01*
X92773555Y-114791499D01*
X92762180Y-114828995D01*
X92743708Y-114863554D01*
X92718847Y-114893847D01*
X92688554Y-114918708D01*
X92653995Y-114937180D01*
X92616499Y-114948555D01*
X92571362Y-114953000D01*
X91832638Y-114953000D01*
X91787501Y-114948555D01*
X91750005Y-114937180D01*
X91715446Y-114918708D01*
X91685153Y-114893847D01*
X91660292Y-114863554D01*
X91641820Y-114828995D01*
X91630445Y-114791499D01*
X91626000Y-114746362D01*
X91626000Y-114107638D01*
X91630445Y-114062501D01*
X91641820Y-114025005D01*
X91660292Y-113990446D01*
X91685153Y-113960153D01*
X91715446Y-113935292D01*
X91750005Y-113916820D01*
X91787501Y-113905445D01*
X91832638Y-113901000D01*
X92571362Y-113901000D01*
X92616499Y-113905445D01*
X92616499Y-113905445D01*
G37*
G36*
X95995499Y-113192445D02*
G01*
X96032995Y-113203820D01*
X96067554Y-113222292D01*
X96097847Y-113247153D01*
X96122708Y-113277446D01*
X96141180Y-113312005D01*
X96152555Y-113349501D01*
X96157000Y-113394638D01*
X96157000Y-114133362D01*
X96152555Y-114178499D01*
X96141180Y-114215995D01*
X96122708Y-114250554D01*
X96097847Y-114280847D01*
X96067554Y-114305708D01*
X96032995Y-114324180D01*
X95995499Y-114335555D01*
X95950362Y-114340000D01*
X95311638Y-114340000D01*
X95266501Y-114335555D01*
X95229005Y-114324180D01*
X95194446Y-114305708D01*
X95164153Y-114280847D01*
X95139292Y-114250554D01*
X95120820Y-114215995D01*
X95109445Y-114178499D01*
X95105000Y-114133362D01*
X95105000Y-113394638D01*
X95109445Y-113349501D01*
X95120820Y-113312005D01*
X95139292Y-113277446D01*
X95164153Y-113247153D01*
X95194446Y-113222292D01*
X95229005Y-113203820D01*
X95266501Y-113192445D01*
X95311638Y-113188000D01*
X95950362Y-113188000D01*
X95995499Y-113192445D01*
X95995499Y-113192445D01*
G37*
G36*
X78157294Y-112255633D02*
G01*
X78329695Y-112307931D01*
X78488583Y-112392858D01*
X78627849Y-112507151D01*
X78742142Y-112646417D01*
X78827069Y-112805305D01*
X78879367Y-112977706D01*
X78897025Y-113157000D01*
X78879367Y-113336294D01*
X78827069Y-113508695D01*
X78742142Y-113667583D01*
X78627849Y-113806849D01*
X78488583Y-113921142D01*
X78329695Y-114006069D01*
X78157294Y-114058367D01*
X78022931Y-114071600D01*
X77933069Y-114071600D01*
X77798706Y-114058367D01*
X77626305Y-114006069D01*
X77467417Y-113921142D01*
X77328151Y-113806849D01*
X77213858Y-113667583D01*
X77128931Y-113508695D01*
X77076633Y-113336294D01*
X77058975Y-113157000D01*
X77076633Y-112977706D01*
X77128931Y-112805305D01*
X77213858Y-112646417D01*
X77328151Y-112507151D01*
X77467417Y-112392858D01*
X77626305Y-112307931D01*
X77798706Y-112255633D01*
X77933069Y-112242400D01*
X78022931Y-112242400D01*
X78157294Y-112255633D01*
X78157294Y-112255633D01*
G37*
G36*
X75617294Y-112255633D02*
G01*
X75789695Y-112307931D01*
X75948583Y-112392858D01*
X76087849Y-112507151D01*
X76202142Y-112646417D01*
X76287069Y-112805305D01*
X76339367Y-112977706D01*
X76357025Y-113157000D01*
X76339367Y-113336294D01*
X76287069Y-113508695D01*
X76202142Y-113667583D01*
X76087849Y-113806849D01*
X75948583Y-113921142D01*
X75789695Y-114006069D01*
X75617294Y-114058367D01*
X75482931Y-114071600D01*
X75393069Y-114071600D01*
X75258706Y-114058367D01*
X75086305Y-114006069D01*
X74927417Y-113921142D01*
X74788151Y-113806849D01*
X74673858Y-113667583D01*
X74588931Y-113508695D01*
X74536633Y-113336294D01*
X74518975Y-113157000D01*
X74536633Y-112977706D01*
X74588931Y-112805305D01*
X74673858Y-112646417D01*
X74788151Y-112507151D01*
X74927417Y-112392858D01*
X75086305Y-112307931D01*
X75258706Y-112255633D01*
X75393069Y-112242400D01*
X75482931Y-112242400D01*
X75617294Y-112255633D01*
X75617294Y-112255633D01*
G37*
G36*
X99170443Y-112135519D02*
G01*
X99236627Y-112142037D01*
X99406466Y-112193557D01*
X99562991Y-112277222D01*
X99598729Y-112306552D01*
X99700186Y-112389814D01*
X99762705Y-112465995D01*
X99812778Y-112527009D01*
X99896443Y-112683534D01*
X99947963Y-112853373D01*
X99965359Y-113030000D01*
X99947963Y-113206627D01*
X99896443Y-113376466D01*
X99812778Y-113532991D01*
X99783448Y-113568729D01*
X99700186Y-113670186D01*
X99598729Y-113753448D01*
X99562991Y-113782778D01*
X99406466Y-113866443D01*
X99236627Y-113917963D01*
X99170443Y-113924481D01*
X99104260Y-113931000D01*
X99015740Y-113931000D01*
X98949557Y-113924481D01*
X98883373Y-113917963D01*
X98713534Y-113866443D01*
X98557009Y-113782778D01*
X98521271Y-113753448D01*
X98419814Y-113670186D01*
X98336552Y-113568729D01*
X98307222Y-113532991D01*
X98223557Y-113376466D01*
X98172037Y-113206627D01*
X98154641Y-113030000D01*
X98172037Y-112853373D01*
X98223557Y-112683534D01*
X98307222Y-112527009D01*
X98357295Y-112465995D01*
X98419814Y-112389814D01*
X98521271Y-112306552D01*
X98557009Y-112277222D01*
X98713534Y-112193557D01*
X98883373Y-112142037D01*
X98949557Y-112135519D01*
X99015740Y-112129000D01*
X99104260Y-112129000D01*
X99170443Y-112135519D01*
X99170443Y-112135519D01*
G37*
G36*
X92026000Y-113051000D02*
G01*
X85774000Y-113051000D01*
X85774000Y-111349000D01*
X92026000Y-111349000D01*
X92026000Y-113051000D01*
X92026000Y-113051000D01*
G37*
G36*
X95995499Y-111442445D02*
G01*
X96032995Y-111453820D01*
X96067554Y-111472292D01*
X96097847Y-111497153D01*
X96122708Y-111527446D01*
X96141180Y-111562005D01*
X96152555Y-111599501D01*
X96157000Y-111644638D01*
X96157000Y-112383362D01*
X96152555Y-112428499D01*
X96141180Y-112465995D01*
X96122708Y-112500554D01*
X96097847Y-112530847D01*
X96067554Y-112555708D01*
X96032995Y-112574180D01*
X95995499Y-112585555D01*
X95950362Y-112590000D01*
X95311638Y-112590000D01*
X95266501Y-112585555D01*
X95229005Y-112574180D01*
X95194446Y-112555708D01*
X95164153Y-112530847D01*
X95139292Y-112500554D01*
X95120820Y-112465995D01*
X95109445Y-112428499D01*
X95105000Y-112383362D01*
X95105000Y-111644638D01*
X95109445Y-111599501D01*
X95120820Y-111562005D01*
X95139292Y-111527446D01*
X95164153Y-111497153D01*
X95194446Y-111472292D01*
X95229005Y-111453820D01*
X95266501Y-111442445D01*
X95311638Y-111438000D01*
X95950362Y-111438000D01*
X95995499Y-111442445D01*
X95995499Y-111442445D01*
G37*
G36*
X75617294Y-109715633D02*
G01*
X75789695Y-109767931D01*
X75948583Y-109852858D01*
X76087849Y-109967151D01*
X76202142Y-110106417D01*
X76287069Y-110265305D01*
X76339367Y-110437706D01*
X76357025Y-110617000D01*
X76339367Y-110796294D01*
X76287069Y-110968695D01*
X76202142Y-111127583D01*
X76087849Y-111266849D01*
X75948583Y-111381142D01*
X75789695Y-111466069D01*
X75617294Y-111518367D01*
X75482931Y-111531600D01*
X75393069Y-111531600D01*
X75258706Y-111518367D01*
X75086305Y-111466069D01*
X74927417Y-111381142D01*
X74788151Y-111266849D01*
X74673858Y-111127583D01*
X74588931Y-110968695D01*
X74536633Y-110796294D01*
X74518975Y-110617000D01*
X74536633Y-110437706D01*
X74588931Y-110265305D01*
X74673858Y-110106417D01*
X74788151Y-109967151D01*
X74927417Y-109852858D01*
X75086305Y-109767931D01*
X75258706Y-109715633D01*
X75393069Y-109702400D01*
X75482931Y-109702400D01*
X75617294Y-109715633D01*
X75617294Y-109715633D01*
G37*
G36*
X78157294Y-109715633D02*
G01*
X78329695Y-109767931D01*
X78488583Y-109852858D01*
X78627849Y-109967151D01*
X78742142Y-110106417D01*
X78827069Y-110265305D01*
X78879367Y-110437706D01*
X78897025Y-110617000D01*
X78879367Y-110796294D01*
X78827069Y-110968695D01*
X78742142Y-111127583D01*
X78627849Y-111266849D01*
X78488583Y-111381142D01*
X78329695Y-111466069D01*
X78157294Y-111518367D01*
X78022931Y-111531600D01*
X77933069Y-111531600D01*
X77798706Y-111518367D01*
X77626305Y-111466069D01*
X77467417Y-111381142D01*
X77328151Y-111266849D01*
X77213858Y-111127583D01*
X77128931Y-110968695D01*
X77076633Y-110796294D01*
X77058975Y-110617000D01*
X77076633Y-110437706D01*
X77128931Y-110265305D01*
X77213858Y-110106417D01*
X77328151Y-109967151D01*
X77467417Y-109852858D01*
X77626305Y-109767931D01*
X77798706Y-109715633D01*
X77933069Y-109702400D01*
X78022931Y-109702400D01*
X78157294Y-109715633D01*
X78157294Y-109715633D01*
G37*
G36*
X99170442Y-109595518D02*
G01*
X99236627Y-109602037D01*
X99406466Y-109653557D01*
X99562991Y-109737222D01*
X99598729Y-109766552D01*
X99700186Y-109849814D01*
X99783448Y-109951271D01*
X99812778Y-109987009D01*
X99896443Y-110143534D01*
X99947963Y-110313373D01*
X99965359Y-110490000D01*
X99947963Y-110666627D01*
X99896443Y-110836466D01*
X99812778Y-110992991D01*
X99783448Y-111028729D01*
X99700186Y-111130186D01*
X99598729Y-111213448D01*
X99562991Y-111242778D01*
X99406466Y-111326443D01*
X99236627Y-111377963D01*
X99170443Y-111384481D01*
X99104260Y-111391000D01*
X99015740Y-111391000D01*
X98949557Y-111384481D01*
X98883373Y-111377963D01*
X98713534Y-111326443D01*
X98557009Y-111242778D01*
X98521271Y-111213448D01*
X98419814Y-111130186D01*
X98336552Y-111028729D01*
X98307222Y-110992991D01*
X98223557Y-110836466D01*
X98172037Y-110666627D01*
X98154641Y-110490000D01*
X98172037Y-110313373D01*
X98223557Y-110143534D01*
X98307222Y-109987009D01*
X98336552Y-109951271D01*
X98419814Y-109849814D01*
X98521271Y-109766552D01*
X98557009Y-109737222D01*
X98713534Y-109653557D01*
X98883373Y-109602037D01*
X98949558Y-109595518D01*
X99015740Y-109589000D01*
X99104260Y-109589000D01*
X99170442Y-109595518D01*
X99170442Y-109595518D01*
G37*
G36*
X94001000Y-111076000D02*
G01*
X92299000Y-111076000D01*
X92299000Y-104824000D01*
X94001000Y-104824000D01*
X94001000Y-111076000D01*
X94001000Y-111076000D01*
G37*
G36*
X85501000Y-111076000D02*
G01*
X83799000Y-111076000D01*
X83799000Y-104824000D01*
X85501000Y-104824000D01*
X85501000Y-111076000D01*
X85501000Y-111076000D01*
G37*
G36*
X76352600Y-108991600D02*
G01*
X74523400Y-108991600D01*
X74523400Y-107162400D01*
X76352600Y-107162400D01*
X76352600Y-108991600D01*
X76352600Y-108991600D01*
G37*
G36*
X78157294Y-107175633D02*
G01*
X78329695Y-107227931D01*
X78488583Y-107312858D01*
X78627849Y-107427151D01*
X78742142Y-107566417D01*
X78827069Y-107725305D01*
X78879367Y-107897706D01*
X78897025Y-108077000D01*
X78879367Y-108256294D01*
X78827069Y-108428695D01*
X78742142Y-108587583D01*
X78627849Y-108726849D01*
X78488583Y-108841142D01*
X78329695Y-108926069D01*
X78157294Y-108978367D01*
X78022931Y-108991600D01*
X77933069Y-108991600D01*
X77798706Y-108978367D01*
X77626305Y-108926069D01*
X77467417Y-108841142D01*
X77328151Y-108726849D01*
X77213858Y-108587583D01*
X77128931Y-108428695D01*
X77076633Y-108256294D01*
X77058975Y-108077000D01*
X77076633Y-107897706D01*
X77128931Y-107725305D01*
X77213858Y-107566417D01*
X77328151Y-107427151D01*
X77467417Y-107312858D01*
X77626305Y-107227931D01*
X77798706Y-107175633D01*
X77933069Y-107162400D01*
X78022931Y-107162400D01*
X78157294Y-107175633D01*
X78157294Y-107175633D01*
G37*
G36*
X99170442Y-107055518D02*
G01*
X99236627Y-107062037D01*
X99406466Y-107113557D01*
X99562991Y-107197222D01*
X99595620Y-107224000D01*
X99700186Y-107309814D01*
X99783448Y-107411271D01*
X99812778Y-107447009D01*
X99896443Y-107603534D01*
X99947963Y-107773373D01*
X99965359Y-107950000D01*
X99947963Y-108126627D01*
X99896443Y-108296466D01*
X99812778Y-108452991D01*
X99783448Y-108488729D01*
X99700186Y-108590186D01*
X99598729Y-108673448D01*
X99562991Y-108702778D01*
X99406466Y-108786443D01*
X99236627Y-108837963D01*
X99170442Y-108844482D01*
X99104260Y-108851000D01*
X99015740Y-108851000D01*
X98949558Y-108844482D01*
X98883373Y-108837963D01*
X98713534Y-108786443D01*
X98557009Y-108702778D01*
X98521271Y-108673448D01*
X98419814Y-108590186D01*
X98336552Y-108488729D01*
X98307222Y-108452991D01*
X98223557Y-108296466D01*
X98172037Y-108126627D01*
X98154641Y-107950000D01*
X98172037Y-107773373D01*
X98223557Y-107603534D01*
X98307222Y-107447009D01*
X98336552Y-107411271D01*
X98419814Y-107309814D01*
X98524380Y-107224000D01*
X98557009Y-107197222D01*
X98713534Y-107113557D01*
X98883373Y-107062037D01*
X98949558Y-107055518D01*
X99015740Y-107049000D01*
X99104260Y-107049000D01*
X99170442Y-107055518D01*
X99170442Y-107055518D01*
G37*
G36*
X99170443Y-104515519D02*
G01*
X99236627Y-104522037D01*
X99406466Y-104573557D01*
X99562991Y-104657222D01*
X99598729Y-104686552D01*
X99700186Y-104769814D01*
X99783448Y-104871271D01*
X99812778Y-104907009D01*
X99896443Y-105063534D01*
X99947963Y-105233373D01*
X99965359Y-105410000D01*
X99947963Y-105586627D01*
X99896443Y-105756466D01*
X99812778Y-105912991D01*
X99783448Y-105948729D01*
X99700186Y-106050186D01*
X99598729Y-106133448D01*
X99562991Y-106162778D01*
X99406466Y-106246443D01*
X99236627Y-106297963D01*
X99170442Y-106304482D01*
X99104260Y-106311000D01*
X99015740Y-106311000D01*
X98949558Y-106304482D01*
X98883373Y-106297963D01*
X98713534Y-106246443D01*
X98557009Y-106162778D01*
X98521271Y-106133448D01*
X98419814Y-106050186D01*
X98336552Y-105948729D01*
X98307222Y-105912991D01*
X98223557Y-105756466D01*
X98172037Y-105586627D01*
X98154641Y-105410000D01*
X98172037Y-105233373D01*
X98223557Y-105063534D01*
X98307222Y-104907009D01*
X98336552Y-104871271D01*
X98419814Y-104769814D01*
X98521271Y-104686552D01*
X98557009Y-104657222D01*
X98713534Y-104573557D01*
X98883373Y-104522037D01*
X98949557Y-104515519D01*
X99015740Y-104509000D01*
X99104260Y-104509000D01*
X99170443Y-104515519D01*
X99170443Y-104515519D01*
G37*
G36*
X92026000Y-104551000D02*
G01*
X85774000Y-104551000D01*
X85774000Y-102849000D01*
X92026000Y-102849000D01*
X92026000Y-104551000D01*
X92026000Y-104551000D01*
G37*
G36*
X99961000Y-103771000D02*
G01*
X98159000Y-103771000D01*
X98159000Y-101969000D01*
X99961000Y-101969000D01*
X99961000Y-103771000D01*
X99961000Y-103771000D01*
G37*
G36*
X76995499Y-100824445D02*
G01*
X77032995Y-100835820D01*
X77067554Y-100854292D01*
X77097847Y-100879153D01*
X77122708Y-100909446D01*
X77141180Y-100944005D01*
X77152555Y-100981501D01*
X77157000Y-101026638D01*
X77157000Y-101665362D01*
X77152555Y-101710499D01*
X77141180Y-101747995D01*
X77122708Y-101782554D01*
X77097847Y-101812847D01*
X77067554Y-101837708D01*
X77032995Y-101856180D01*
X76995499Y-101867555D01*
X76950362Y-101872000D01*
X76211638Y-101872000D01*
X76166501Y-101867555D01*
X76129005Y-101856180D01*
X76094446Y-101837708D01*
X76064153Y-101812847D01*
X76039292Y-101782554D01*
X76020820Y-101747995D01*
X76009445Y-101710499D01*
X76005000Y-101665362D01*
X76005000Y-101026638D01*
X76009445Y-100981501D01*
X76020820Y-100944005D01*
X76039292Y-100909446D01*
X76064153Y-100879153D01*
X76094446Y-100854292D01*
X76129005Y-100835820D01*
X76166501Y-100824445D01*
X76211638Y-100820000D01*
X76950362Y-100820000D01*
X76995499Y-100824445D01*
X76995499Y-100824445D01*
G37*
G36*
X75245499Y-100824445D02*
G01*
X75282995Y-100835820D01*
X75317554Y-100854292D01*
X75347847Y-100879153D01*
X75372708Y-100909446D01*
X75391180Y-100944005D01*
X75402555Y-100981501D01*
X75407000Y-101026638D01*
X75407000Y-101665362D01*
X75402555Y-101710499D01*
X75391180Y-101747995D01*
X75372708Y-101782554D01*
X75347847Y-101812847D01*
X75317554Y-101837708D01*
X75282995Y-101856180D01*
X75245499Y-101867555D01*
X75200362Y-101872000D01*
X74461638Y-101872000D01*
X74416501Y-101867555D01*
X74379005Y-101856180D01*
X74344446Y-101837708D01*
X74314153Y-101812847D01*
X74289292Y-101782554D01*
X74270820Y-101747995D01*
X74259445Y-101710499D01*
X74255000Y-101665362D01*
X74255000Y-101026638D01*
X74259445Y-100981501D01*
X74270820Y-100944005D01*
X74289292Y-100909446D01*
X74314153Y-100879153D01*
X74344446Y-100854292D01*
X74379005Y-100835820D01*
X74416501Y-100824445D01*
X74461638Y-100820000D01*
X75200362Y-100820000D01*
X75245499Y-100824445D01*
X75245499Y-100824445D01*
G37*
G36*
X89010443Y-98165519D02*
G01*
X89076627Y-98172037D01*
X89246466Y-98223557D01*
X89402991Y-98307222D01*
X89438729Y-98336552D01*
X89540186Y-98419814D01*
X89623448Y-98521271D01*
X89652778Y-98557009D01*
X89736443Y-98713534D01*
X89787963Y-98883373D01*
X89805359Y-99060000D01*
X89787963Y-99236627D01*
X89736443Y-99406466D01*
X89652778Y-99562991D01*
X89623448Y-99598729D01*
X89540186Y-99700186D01*
X89438729Y-99783448D01*
X89402991Y-99812778D01*
X89246466Y-99896443D01*
X89076627Y-99947963D01*
X89010443Y-99954481D01*
X88944260Y-99961000D01*
X88855740Y-99961000D01*
X88789557Y-99954481D01*
X88723373Y-99947963D01*
X88553534Y-99896443D01*
X88397009Y-99812778D01*
X88361271Y-99783448D01*
X88259814Y-99700186D01*
X88176552Y-99598729D01*
X88147222Y-99562991D01*
X88063557Y-99406466D01*
X88012037Y-99236627D01*
X87994641Y-99060000D01*
X88012037Y-98883373D01*
X88063557Y-98713534D01*
X88147222Y-98557009D01*
X88176552Y-98521271D01*
X88259814Y-98419814D01*
X88361271Y-98336552D01*
X88397009Y-98307222D01*
X88553534Y-98223557D01*
X88723373Y-98172037D01*
X88789557Y-98165519D01*
X88855740Y-98159000D01*
X88944260Y-98159000D01*
X89010443Y-98165519D01*
X89010443Y-98165519D01*
G37*
G36*
X99170443Y-98165519D02*
G01*
X99236627Y-98172037D01*
X99406466Y-98223557D01*
X99562991Y-98307222D01*
X99598729Y-98336552D01*
X99700186Y-98419814D01*
X99783448Y-98521271D01*
X99812778Y-98557009D01*
X99896443Y-98713534D01*
X99947963Y-98883373D01*
X99965359Y-99060000D01*
X99947963Y-99236627D01*
X99896443Y-99406466D01*
X99812778Y-99562991D01*
X99783448Y-99598729D01*
X99700186Y-99700186D01*
X99598729Y-99783448D01*
X99562991Y-99812778D01*
X99406466Y-99896443D01*
X99236627Y-99947963D01*
X99170443Y-99954481D01*
X99104260Y-99961000D01*
X99015740Y-99961000D01*
X98949557Y-99954481D01*
X98883373Y-99947963D01*
X98713534Y-99896443D01*
X98557009Y-99812778D01*
X98521271Y-99783448D01*
X98419814Y-99700186D01*
X98336552Y-99598729D01*
X98307222Y-99562991D01*
X98223557Y-99406466D01*
X98172037Y-99236627D01*
X98154641Y-99060000D01*
X98172037Y-98883373D01*
X98223557Y-98713534D01*
X98307222Y-98557009D01*
X98336552Y-98521271D01*
X98419814Y-98419814D01*
X98521271Y-98336552D01*
X98557009Y-98307222D01*
X98713534Y-98223557D01*
X98883373Y-98172037D01*
X98949557Y-98165519D01*
X99015740Y-98159000D01*
X99104260Y-98159000D01*
X99170443Y-98165519D01*
X99170443Y-98165519D01*
G37*
G36*
X96630443Y-98165519D02*
G01*
X96696627Y-98172037D01*
X96866466Y-98223557D01*
X97022991Y-98307222D01*
X97058729Y-98336552D01*
X97160186Y-98419814D01*
X97243448Y-98521271D01*
X97272778Y-98557009D01*
X97356443Y-98713534D01*
X97407963Y-98883373D01*
X97425359Y-99060000D01*
X97407963Y-99236627D01*
X97356443Y-99406466D01*
X97272778Y-99562991D01*
X97243448Y-99598729D01*
X97160186Y-99700186D01*
X97058729Y-99783448D01*
X97022991Y-99812778D01*
X96866466Y-99896443D01*
X96696627Y-99947963D01*
X96630443Y-99954481D01*
X96564260Y-99961000D01*
X96475740Y-99961000D01*
X96409557Y-99954481D01*
X96343373Y-99947963D01*
X96173534Y-99896443D01*
X96017009Y-99812778D01*
X95981271Y-99783448D01*
X95879814Y-99700186D01*
X95796552Y-99598729D01*
X95767222Y-99562991D01*
X95683557Y-99406466D01*
X95632037Y-99236627D01*
X95614641Y-99060000D01*
X95632037Y-98883373D01*
X95683557Y-98713534D01*
X95767222Y-98557009D01*
X95796552Y-98521271D01*
X95879814Y-98419814D01*
X95981271Y-98336552D01*
X96017009Y-98307222D01*
X96173534Y-98223557D01*
X96343373Y-98172037D01*
X96409557Y-98165519D01*
X96475740Y-98159000D01*
X96564260Y-98159000D01*
X96630443Y-98165519D01*
X96630443Y-98165519D01*
G37*
G36*
X94090443Y-98165519D02*
G01*
X94156627Y-98172037D01*
X94326466Y-98223557D01*
X94482991Y-98307222D01*
X94518729Y-98336552D01*
X94620186Y-98419814D01*
X94703448Y-98521271D01*
X94732778Y-98557009D01*
X94816443Y-98713534D01*
X94867963Y-98883373D01*
X94885359Y-99060000D01*
X94867963Y-99236627D01*
X94816443Y-99406466D01*
X94732778Y-99562991D01*
X94703448Y-99598729D01*
X94620186Y-99700186D01*
X94518729Y-99783448D01*
X94482991Y-99812778D01*
X94326466Y-99896443D01*
X94156627Y-99947963D01*
X94090443Y-99954481D01*
X94024260Y-99961000D01*
X93935740Y-99961000D01*
X93869557Y-99954481D01*
X93803373Y-99947963D01*
X93633534Y-99896443D01*
X93477009Y-99812778D01*
X93441271Y-99783448D01*
X93339814Y-99700186D01*
X93256552Y-99598729D01*
X93227222Y-99562991D01*
X93143557Y-99406466D01*
X93092037Y-99236627D01*
X93074641Y-99060000D01*
X93092037Y-98883373D01*
X93143557Y-98713534D01*
X93227222Y-98557009D01*
X93256552Y-98521271D01*
X93339814Y-98419814D01*
X93441271Y-98336552D01*
X93477009Y-98307222D01*
X93633534Y-98223557D01*
X93803373Y-98172037D01*
X93869557Y-98165519D01*
X93935740Y-98159000D01*
X94024260Y-98159000D01*
X94090443Y-98165519D01*
X94090443Y-98165519D01*
G37*
G36*
X91550443Y-98165519D02*
G01*
X91616627Y-98172037D01*
X91786466Y-98223557D01*
X91942991Y-98307222D01*
X91978729Y-98336552D01*
X92080186Y-98419814D01*
X92163448Y-98521271D01*
X92192778Y-98557009D01*
X92276443Y-98713534D01*
X92327963Y-98883373D01*
X92345359Y-99060000D01*
X92327963Y-99236627D01*
X92276443Y-99406466D01*
X92192778Y-99562991D01*
X92163448Y-99598729D01*
X92080186Y-99700186D01*
X91978729Y-99783448D01*
X91942991Y-99812778D01*
X91786466Y-99896443D01*
X91616627Y-99947963D01*
X91550443Y-99954481D01*
X91484260Y-99961000D01*
X91395740Y-99961000D01*
X91329557Y-99954481D01*
X91263373Y-99947963D01*
X91093534Y-99896443D01*
X90937009Y-99812778D01*
X90901271Y-99783448D01*
X90799814Y-99700186D01*
X90716552Y-99598729D01*
X90687222Y-99562991D01*
X90603557Y-99406466D01*
X90552037Y-99236627D01*
X90534641Y-99060000D01*
X90552037Y-98883373D01*
X90603557Y-98713534D01*
X90687222Y-98557009D01*
X90716552Y-98521271D01*
X90799814Y-98419814D01*
X90901271Y-98336552D01*
X90937009Y-98307222D01*
X91093534Y-98223557D01*
X91263373Y-98172037D01*
X91329557Y-98165519D01*
X91395740Y-98159000D01*
X91484260Y-98159000D01*
X91550443Y-98165519D01*
X91550443Y-98165519D01*
G37*
G36*
X87261000Y-99961000D02*
G01*
X85459000Y-99961000D01*
X85459000Y-98159000D01*
X87261000Y-98159000D01*
X87261000Y-99961000D01*
X87261000Y-99961000D01*
G37*
G36*
X82474000Y-98603000D02*
G01*
X72466000Y-98603000D01*
X72466000Y-96977000D01*
X82474000Y-96977000D01*
X82474000Y-98603000D01*
X82474000Y-98603000D01*
G37*
G36*
X86637395Y-95605546D02*
G01*
X86810466Y-95677234D01*
X86810467Y-95677235D01*
X86966227Y-95781310D01*
X87098690Y-95913773D01*
X87098691Y-95913775D01*
X87202766Y-96069534D01*
X87274454Y-96242605D01*
X87311000Y-96426333D01*
X87311000Y-96613667D01*
X87274454Y-96797395D01*
X87202766Y-96970466D01*
X87202765Y-96970467D01*
X87098690Y-97126227D01*
X86966227Y-97258690D01*
X86887818Y-97311081D01*
X86810466Y-97362766D01*
X86637395Y-97434454D01*
X86453667Y-97471000D01*
X86266333Y-97471000D01*
X86082605Y-97434454D01*
X85909534Y-97362766D01*
X85832182Y-97311081D01*
X85753773Y-97258690D01*
X85621310Y-97126227D01*
X85517235Y-96970467D01*
X85517234Y-96970466D01*
X85445546Y-96797395D01*
X85409000Y-96613667D01*
X85409000Y-96426333D01*
X85445546Y-96242605D01*
X85517234Y-96069534D01*
X85621309Y-95913775D01*
X85621310Y-95913773D01*
X85753773Y-95781310D01*
X85909533Y-95677235D01*
X85909534Y-95677234D01*
X86082605Y-95605546D01*
X86266333Y-95569000D01*
X86453667Y-95569000D01*
X86637395Y-95605546D01*
X86637395Y-95605546D01*
G37*
G36*
X89177395Y-95605546D02*
G01*
X89350466Y-95677234D01*
X89350467Y-95677235D01*
X89506227Y-95781310D01*
X89638690Y-95913773D01*
X89638691Y-95913775D01*
X89742766Y-96069534D01*
X89814454Y-96242605D01*
X89851000Y-96426333D01*
X89851000Y-96613667D01*
X89814454Y-96797395D01*
X89742766Y-96970466D01*
X89742765Y-96970467D01*
X89638690Y-97126227D01*
X89506227Y-97258690D01*
X89427818Y-97311081D01*
X89350466Y-97362766D01*
X89177395Y-97434454D01*
X88993667Y-97471000D01*
X88806333Y-97471000D01*
X88622605Y-97434454D01*
X88449534Y-97362766D01*
X88372182Y-97311081D01*
X88293773Y-97258690D01*
X88161310Y-97126227D01*
X88057235Y-96970467D01*
X88057234Y-96970466D01*
X87985546Y-96797395D01*
X87949000Y-96613667D01*
X87949000Y-96426333D01*
X87985546Y-96242605D01*
X88057234Y-96069534D01*
X88161309Y-95913775D01*
X88161310Y-95913773D01*
X88293773Y-95781310D01*
X88449533Y-95677235D01*
X88449534Y-95677234D01*
X88622605Y-95605546D01*
X88806333Y-95569000D01*
X88993667Y-95569000D01*
X89177395Y-95605546D01*
X89177395Y-95605546D01*
G37*
G36*
X91717395Y-95605546D02*
G01*
X91890466Y-95677234D01*
X91890467Y-95677235D01*
X92046227Y-95781310D01*
X92178690Y-95913773D01*
X92178691Y-95913775D01*
X92282766Y-96069534D01*
X92354454Y-96242605D01*
X92391000Y-96426333D01*
X92391000Y-96613667D01*
X92354454Y-96797395D01*
X92282766Y-96970466D01*
X92282765Y-96970467D01*
X92178690Y-97126227D01*
X92046227Y-97258690D01*
X91967818Y-97311081D01*
X91890466Y-97362766D01*
X91717395Y-97434454D01*
X91533667Y-97471000D01*
X91346333Y-97471000D01*
X91162605Y-97434454D01*
X90989534Y-97362766D01*
X90912182Y-97311081D01*
X90833773Y-97258690D01*
X90701310Y-97126227D01*
X90597235Y-96970467D01*
X90597234Y-96970466D01*
X90525546Y-96797395D01*
X90489000Y-96613667D01*
X90489000Y-96426333D01*
X90525546Y-96242605D01*
X90597234Y-96069534D01*
X90701309Y-95913775D01*
X90701310Y-95913773D01*
X90833773Y-95781310D01*
X90989533Y-95677235D01*
X90989534Y-95677234D01*
X91162605Y-95605546D01*
X91346333Y-95569000D01*
X91533667Y-95569000D01*
X91717395Y-95605546D01*
X91717395Y-95605546D01*
G37*
G36*
X99337395Y-95605546D02*
G01*
X99510466Y-95677234D01*
X99510467Y-95677235D01*
X99666227Y-95781310D01*
X99798690Y-95913773D01*
X99798691Y-95913775D01*
X99902766Y-96069534D01*
X99974454Y-96242605D01*
X100011000Y-96426333D01*
X100011000Y-96613667D01*
X99974454Y-96797395D01*
X99902766Y-96970466D01*
X99902765Y-96970467D01*
X99798690Y-97126227D01*
X99666227Y-97258690D01*
X99587818Y-97311081D01*
X99510466Y-97362766D01*
X99337395Y-97434454D01*
X99153667Y-97471000D01*
X98966333Y-97471000D01*
X98782605Y-97434454D01*
X98609534Y-97362766D01*
X98532182Y-97311081D01*
X98453773Y-97258690D01*
X98321310Y-97126227D01*
X98217235Y-96970467D01*
X98217234Y-96970466D01*
X98145546Y-96797395D01*
X98109000Y-96613667D01*
X98109000Y-96426333D01*
X98145546Y-96242605D01*
X98217234Y-96069534D01*
X98321309Y-95913775D01*
X98321310Y-95913773D01*
X98453773Y-95781310D01*
X98609533Y-95677235D01*
X98609534Y-95677234D01*
X98782605Y-95605546D01*
X98966333Y-95569000D01*
X99153667Y-95569000D01*
X99337395Y-95605546D01*
X99337395Y-95605546D01*
G37*
G36*
X96797395Y-95605546D02*
G01*
X96970466Y-95677234D01*
X96970467Y-95677235D01*
X97126227Y-95781310D01*
X97258690Y-95913773D01*
X97258691Y-95913775D01*
X97362766Y-96069534D01*
X97434454Y-96242605D01*
X97471000Y-96426333D01*
X97471000Y-96613667D01*
X97434454Y-96797395D01*
X97362766Y-96970466D01*
X97362765Y-96970467D01*
X97258690Y-97126227D01*
X97126227Y-97258690D01*
X97047818Y-97311081D01*
X96970466Y-97362766D01*
X96797395Y-97434454D01*
X96613667Y-97471000D01*
X96426333Y-97471000D01*
X96242605Y-97434454D01*
X96069534Y-97362766D01*
X95992182Y-97311081D01*
X95913773Y-97258690D01*
X95781310Y-97126227D01*
X95677235Y-96970467D01*
X95677234Y-96970466D01*
X95605546Y-96797395D01*
X95569000Y-96613667D01*
X95569000Y-96426333D01*
X95605546Y-96242605D01*
X95677234Y-96069534D01*
X95781309Y-95913775D01*
X95781310Y-95913773D01*
X95913773Y-95781310D01*
X96069533Y-95677235D01*
X96069534Y-95677234D01*
X96242605Y-95605546D01*
X96426333Y-95569000D01*
X96613667Y-95569000D01*
X96797395Y-95605546D01*
X96797395Y-95605546D01*
G37*
G36*
X94257395Y-95605546D02*
G01*
X94430466Y-95677234D01*
X94430467Y-95677235D01*
X94586227Y-95781310D01*
X94718690Y-95913773D01*
X94718691Y-95913775D01*
X94822766Y-96069534D01*
X94894454Y-96242605D01*
X94931000Y-96426333D01*
X94931000Y-96613667D01*
X94894454Y-96797395D01*
X94822766Y-96970466D01*
X94822765Y-96970467D01*
X94718690Y-97126227D01*
X94586227Y-97258690D01*
X94507818Y-97311081D01*
X94430466Y-97362766D01*
X94257395Y-97434454D01*
X94073667Y-97471000D01*
X93886333Y-97471000D01*
X93702605Y-97434454D01*
X93529534Y-97362766D01*
X93452182Y-97311081D01*
X93373773Y-97258690D01*
X93241310Y-97126227D01*
X93137235Y-96970467D01*
X93137234Y-96970466D01*
X93065546Y-96797395D01*
X93029000Y-96613667D01*
X93029000Y-96426333D01*
X93065546Y-96242605D01*
X93137234Y-96069534D01*
X93241309Y-95913775D01*
X93241310Y-95913773D01*
X93373773Y-95781310D01*
X93529533Y-95677235D01*
X93529534Y-95677234D01*
X93702605Y-95605546D01*
X93886333Y-95569000D01*
X94073667Y-95569000D01*
X94257395Y-95605546D01*
X94257395Y-95605546D01*
G37*
G36*
X96797395Y-93065546D02*
G01*
X96970466Y-93137234D01*
X96970467Y-93137235D01*
X97126227Y-93241310D01*
X97258690Y-93373773D01*
X97258691Y-93373775D01*
X97362766Y-93529534D01*
X97434454Y-93702605D01*
X97471000Y-93886333D01*
X97471000Y-94073667D01*
X97434454Y-94257395D01*
X97362766Y-94430466D01*
X97362765Y-94430467D01*
X97258690Y-94586227D01*
X97126227Y-94718690D01*
X97047818Y-94771081D01*
X96970466Y-94822766D01*
X96797395Y-94894454D01*
X96613667Y-94931000D01*
X96426333Y-94931000D01*
X96242605Y-94894454D01*
X96069534Y-94822766D01*
X95992182Y-94771081D01*
X95913773Y-94718690D01*
X95781310Y-94586227D01*
X95677235Y-94430467D01*
X95677234Y-94430466D01*
X95605546Y-94257395D01*
X95569000Y-94073667D01*
X95569000Y-93886333D01*
X95605546Y-93702605D01*
X95677234Y-93529534D01*
X95781309Y-93373775D01*
X95781310Y-93373773D01*
X95913773Y-93241310D01*
X96069533Y-93137235D01*
X96069534Y-93137234D01*
X96242605Y-93065546D01*
X96426333Y-93029000D01*
X96613667Y-93029000D01*
X96797395Y-93065546D01*
X96797395Y-93065546D01*
G37*
G36*
X99337395Y-93065546D02*
G01*
X99510466Y-93137234D01*
X99510467Y-93137235D01*
X99666227Y-93241310D01*
X99798690Y-93373773D01*
X99798691Y-93373775D01*
X99902766Y-93529534D01*
X99974454Y-93702605D01*
X100011000Y-93886333D01*
X100011000Y-94073667D01*
X99974454Y-94257395D01*
X99902766Y-94430466D01*
X99902765Y-94430467D01*
X99798690Y-94586227D01*
X99666227Y-94718690D01*
X99587818Y-94771081D01*
X99510466Y-94822766D01*
X99337395Y-94894454D01*
X99153667Y-94931000D01*
X98966333Y-94931000D01*
X98782605Y-94894454D01*
X98609534Y-94822766D01*
X98532182Y-94771081D01*
X98453773Y-94718690D01*
X98321310Y-94586227D01*
X98217235Y-94430467D01*
X98217234Y-94430466D01*
X98145546Y-94257395D01*
X98109000Y-94073667D01*
X98109000Y-93886333D01*
X98145546Y-93702605D01*
X98217234Y-93529534D01*
X98321309Y-93373775D01*
X98321310Y-93373773D01*
X98453773Y-93241310D01*
X98609533Y-93137235D01*
X98609534Y-93137234D01*
X98782605Y-93065546D01*
X98966333Y-93029000D01*
X99153667Y-93029000D01*
X99337395Y-93065546D01*
X99337395Y-93065546D01*
G37*
G36*
X91717395Y-93065546D02*
G01*
X91890466Y-93137234D01*
X91890467Y-93137235D01*
X92046227Y-93241310D01*
X92178690Y-93373773D01*
X92178691Y-93373775D01*
X92282766Y-93529534D01*
X92354454Y-93702605D01*
X92391000Y-93886333D01*
X92391000Y-94073667D01*
X92354454Y-94257395D01*
X92282766Y-94430466D01*
X92282765Y-94430467D01*
X92178690Y-94586227D01*
X92046227Y-94718690D01*
X91967818Y-94771081D01*
X91890466Y-94822766D01*
X91717395Y-94894454D01*
X91533667Y-94931000D01*
X91346333Y-94931000D01*
X91162605Y-94894454D01*
X90989534Y-94822766D01*
X90912182Y-94771081D01*
X90833773Y-94718690D01*
X90701310Y-94586227D01*
X90597235Y-94430467D01*
X90597234Y-94430466D01*
X90525546Y-94257395D01*
X90489000Y-94073667D01*
X90489000Y-93886333D01*
X90525546Y-93702605D01*
X90597234Y-93529534D01*
X90701309Y-93373775D01*
X90701310Y-93373773D01*
X90833773Y-93241310D01*
X90989533Y-93137235D01*
X90989534Y-93137234D01*
X91162605Y-93065546D01*
X91346333Y-93029000D01*
X91533667Y-93029000D01*
X91717395Y-93065546D01*
X91717395Y-93065546D01*
G37*
G36*
X94257395Y-93065546D02*
G01*
X94430466Y-93137234D01*
X94430467Y-93137235D01*
X94586227Y-93241310D01*
X94718690Y-93373773D01*
X94718691Y-93373775D01*
X94822766Y-93529534D01*
X94894454Y-93702605D01*
X94931000Y-93886333D01*
X94931000Y-94073667D01*
X94894454Y-94257395D01*
X94822766Y-94430466D01*
X94822765Y-94430467D01*
X94718690Y-94586227D01*
X94586227Y-94718690D01*
X94507818Y-94771081D01*
X94430466Y-94822766D01*
X94257395Y-94894454D01*
X94073667Y-94931000D01*
X93886333Y-94931000D01*
X93702605Y-94894454D01*
X93529534Y-94822766D01*
X93452182Y-94771081D01*
X93373773Y-94718690D01*
X93241310Y-94586227D01*
X93137235Y-94430467D01*
X93137234Y-94430466D01*
X93065546Y-94257395D01*
X93029000Y-94073667D01*
X93029000Y-93886333D01*
X93065546Y-93702605D01*
X93137234Y-93529534D01*
X93241309Y-93373775D01*
X93241310Y-93373773D01*
X93373773Y-93241310D01*
X93529533Y-93137235D01*
X93529534Y-93137234D01*
X93702605Y-93065546D01*
X93886333Y-93029000D01*
X94073667Y-93029000D01*
X94257395Y-93065546D01*
X94257395Y-93065546D01*
G37*
G36*
X89177395Y-93065546D02*
G01*
X89350466Y-93137234D01*
X89350467Y-93137235D01*
X89506227Y-93241310D01*
X89638690Y-93373773D01*
X89638691Y-93373775D01*
X89742766Y-93529534D01*
X89814454Y-93702605D01*
X89851000Y-93886333D01*
X89851000Y-94073667D01*
X89814454Y-94257395D01*
X89742766Y-94430466D01*
X89742765Y-94430467D01*
X89638690Y-94586227D01*
X89506227Y-94718690D01*
X89427818Y-94771081D01*
X89350466Y-94822766D01*
X89177395Y-94894454D01*
X88993667Y-94931000D01*
X88806333Y-94931000D01*
X88622605Y-94894454D01*
X88449534Y-94822766D01*
X88372182Y-94771081D01*
X88293773Y-94718690D01*
X88161310Y-94586227D01*
X88057235Y-94430467D01*
X88057234Y-94430466D01*
X87985546Y-94257395D01*
X87949000Y-94073667D01*
X87949000Y-93886333D01*
X87985546Y-93702605D01*
X88057234Y-93529534D01*
X88161309Y-93373775D01*
X88161310Y-93373773D01*
X88293773Y-93241310D01*
X88449533Y-93137235D01*
X88449534Y-93137234D01*
X88622605Y-93065546D01*
X88806333Y-93029000D01*
X88993667Y-93029000D01*
X89177395Y-93065546D01*
X89177395Y-93065546D01*
G37*
G36*
X86637395Y-93065546D02*
G01*
X86810466Y-93137234D01*
X86810467Y-93137235D01*
X86966227Y-93241310D01*
X87098690Y-93373773D01*
X87098691Y-93373775D01*
X87202766Y-93529534D01*
X87274454Y-93702605D01*
X87311000Y-93886333D01*
X87311000Y-94073667D01*
X87274454Y-94257395D01*
X87202766Y-94430466D01*
X87202765Y-94430467D01*
X87098690Y-94586227D01*
X86966227Y-94718690D01*
X86887818Y-94771081D01*
X86810466Y-94822766D01*
X86637395Y-94894454D01*
X86453667Y-94931000D01*
X86266333Y-94931000D01*
X86082605Y-94894454D01*
X85909534Y-94822766D01*
X85832182Y-94771081D01*
X85753773Y-94718690D01*
X85621310Y-94586227D01*
X85517235Y-94430467D01*
X85517234Y-94430466D01*
X85445546Y-94257395D01*
X85409000Y-94073667D01*
X85409000Y-93886333D01*
X85445546Y-93702605D01*
X85517234Y-93529534D01*
X85621309Y-93373775D01*
X85621310Y-93373773D01*
X85753773Y-93241310D01*
X85909533Y-93137235D01*
X85909534Y-93137234D01*
X86082605Y-93065546D01*
X86266333Y-93029000D01*
X86453667Y-93029000D01*
X86637395Y-93065546D01*
X86637395Y-93065546D01*
G37*
G36*
X86637395Y-90525546D02*
G01*
X86810466Y-90597234D01*
X86810467Y-90597235D01*
X86966227Y-90701310D01*
X87098690Y-90833773D01*
X87098691Y-90833775D01*
X87202766Y-90989534D01*
X87274454Y-91162605D01*
X87311000Y-91346333D01*
X87311000Y-91533667D01*
X87274454Y-91717395D01*
X87202766Y-91890466D01*
X87202765Y-91890467D01*
X87098690Y-92046227D01*
X86966227Y-92178690D01*
X86887818Y-92231081D01*
X86810466Y-92282766D01*
X86637395Y-92354454D01*
X86453667Y-92391000D01*
X86266333Y-92391000D01*
X86082605Y-92354454D01*
X85909534Y-92282766D01*
X85832182Y-92231081D01*
X85753773Y-92178690D01*
X85621310Y-92046227D01*
X85517235Y-91890467D01*
X85517234Y-91890466D01*
X85445546Y-91717395D01*
X85409000Y-91533667D01*
X85409000Y-91346333D01*
X85445546Y-91162605D01*
X85517234Y-90989534D01*
X85621309Y-90833775D01*
X85621310Y-90833773D01*
X85753773Y-90701310D01*
X85909533Y-90597235D01*
X85909534Y-90597234D01*
X86082605Y-90525546D01*
X86266333Y-90489000D01*
X86453667Y-90489000D01*
X86637395Y-90525546D01*
X86637395Y-90525546D01*
G37*
G36*
X99337395Y-90525546D02*
G01*
X99510466Y-90597234D01*
X99510467Y-90597235D01*
X99666227Y-90701310D01*
X99798690Y-90833773D01*
X99798691Y-90833775D01*
X99902766Y-90989534D01*
X99974454Y-91162605D01*
X100011000Y-91346333D01*
X100011000Y-91533667D01*
X99974454Y-91717395D01*
X99902766Y-91890466D01*
X99902765Y-91890467D01*
X99798690Y-92046227D01*
X99666227Y-92178690D01*
X99587818Y-92231081D01*
X99510466Y-92282766D01*
X99337395Y-92354454D01*
X99153667Y-92391000D01*
X98966333Y-92391000D01*
X98782605Y-92354454D01*
X98609534Y-92282766D01*
X98532182Y-92231081D01*
X98453773Y-92178690D01*
X98321310Y-92046227D01*
X98217235Y-91890467D01*
X98217234Y-91890466D01*
X98145546Y-91717395D01*
X98109000Y-91533667D01*
X98109000Y-91346333D01*
X98145546Y-91162605D01*
X98217234Y-90989534D01*
X98321309Y-90833775D01*
X98321310Y-90833773D01*
X98453773Y-90701310D01*
X98609533Y-90597235D01*
X98609534Y-90597234D01*
X98782605Y-90525546D01*
X98966333Y-90489000D01*
X99153667Y-90489000D01*
X99337395Y-90525546D01*
X99337395Y-90525546D01*
G37*
G36*
X96797395Y-90525546D02*
G01*
X96970466Y-90597234D01*
X96970467Y-90597235D01*
X97126227Y-90701310D01*
X97258690Y-90833773D01*
X97258691Y-90833775D01*
X97362766Y-90989534D01*
X97434454Y-91162605D01*
X97471000Y-91346333D01*
X97471000Y-91533667D01*
X97434454Y-91717395D01*
X97362766Y-91890466D01*
X97362765Y-91890467D01*
X97258690Y-92046227D01*
X97126227Y-92178690D01*
X97047818Y-92231081D01*
X96970466Y-92282766D01*
X96797395Y-92354454D01*
X96613667Y-92391000D01*
X96426333Y-92391000D01*
X96242605Y-92354454D01*
X96069534Y-92282766D01*
X95992182Y-92231081D01*
X95913773Y-92178690D01*
X95781310Y-92046227D01*
X95677235Y-91890467D01*
X95677234Y-91890466D01*
X95605546Y-91717395D01*
X95569000Y-91533667D01*
X95569000Y-91346333D01*
X95605546Y-91162605D01*
X95677234Y-90989534D01*
X95781309Y-90833775D01*
X95781310Y-90833773D01*
X95913773Y-90701310D01*
X96069533Y-90597235D01*
X96069534Y-90597234D01*
X96242605Y-90525546D01*
X96426333Y-90489000D01*
X96613667Y-90489000D01*
X96797395Y-90525546D01*
X96797395Y-90525546D01*
G37*
G36*
X94257395Y-90525546D02*
G01*
X94430466Y-90597234D01*
X94430467Y-90597235D01*
X94586227Y-90701310D01*
X94718690Y-90833773D01*
X94718691Y-90833775D01*
X94822766Y-90989534D01*
X94894454Y-91162605D01*
X94931000Y-91346333D01*
X94931000Y-91533667D01*
X94894454Y-91717395D01*
X94822766Y-91890466D01*
X94822765Y-91890467D01*
X94718690Y-92046227D01*
X94586227Y-92178690D01*
X94507818Y-92231081D01*
X94430466Y-92282766D01*
X94257395Y-92354454D01*
X94073667Y-92391000D01*
X93886333Y-92391000D01*
X93702605Y-92354454D01*
X93529534Y-92282766D01*
X93452182Y-92231081D01*
X93373773Y-92178690D01*
X93241310Y-92046227D01*
X93137235Y-91890467D01*
X93137234Y-91890466D01*
X93065546Y-91717395D01*
X93029000Y-91533667D01*
X93029000Y-91346333D01*
X93065546Y-91162605D01*
X93137234Y-90989534D01*
X93241309Y-90833775D01*
X93241310Y-90833773D01*
X93373773Y-90701310D01*
X93529533Y-90597235D01*
X93529534Y-90597234D01*
X93702605Y-90525546D01*
X93886333Y-90489000D01*
X94073667Y-90489000D01*
X94257395Y-90525546D01*
X94257395Y-90525546D01*
G37*
G36*
X91717395Y-90525546D02*
G01*
X91890466Y-90597234D01*
X91890467Y-90597235D01*
X92046227Y-90701310D01*
X92178690Y-90833773D01*
X92178691Y-90833775D01*
X92282766Y-90989534D01*
X92354454Y-91162605D01*
X92391000Y-91346333D01*
X92391000Y-91533667D01*
X92354454Y-91717395D01*
X92282766Y-91890466D01*
X92282765Y-91890467D01*
X92178690Y-92046227D01*
X92046227Y-92178690D01*
X91967818Y-92231081D01*
X91890466Y-92282766D01*
X91717395Y-92354454D01*
X91533667Y-92391000D01*
X91346333Y-92391000D01*
X91162605Y-92354454D01*
X90989534Y-92282766D01*
X90912182Y-92231081D01*
X90833773Y-92178690D01*
X90701310Y-92046227D01*
X90597235Y-91890467D01*
X90597234Y-91890466D01*
X90525546Y-91717395D01*
X90489000Y-91533667D01*
X90489000Y-91346333D01*
X90525546Y-91162605D01*
X90597234Y-90989534D01*
X90701309Y-90833775D01*
X90701310Y-90833773D01*
X90833773Y-90701310D01*
X90989533Y-90597235D01*
X90989534Y-90597234D01*
X91162605Y-90525546D01*
X91346333Y-90489000D01*
X91533667Y-90489000D01*
X91717395Y-90525546D01*
X91717395Y-90525546D01*
G37*
G36*
X89177395Y-90525546D02*
G01*
X89350466Y-90597234D01*
X89350467Y-90597235D01*
X89506227Y-90701310D01*
X89638690Y-90833773D01*
X89638691Y-90833775D01*
X89742766Y-90989534D01*
X89814454Y-91162605D01*
X89851000Y-91346333D01*
X89851000Y-91533667D01*
X89814454Y-91717395D01*
X89742766Y-91890466D01*
X89742765Y-91890467D01*
X89638690Y-92046227D01*
X89506227Y-92178690D01*
X89427818Y-92231081D01*
X89350466Y-92282766D01*
X89177395Y-92354454D01*
X88993667Y-92391000D01*
X88806333Y-92391000D01*
X88622605Y-92354454D01*
X88449534Y-92282766D01*
X88372182Y-92231081D01*
X88293773Y-92178690D01*
X88161310Y-92046227D01*
X88057235Y-91890467D01*
X88057234Y-91890466D01*
X87985546Y-91717395D01*
X87949000Y-91533667D01*
X87949000Y-91346333D01*
X87985546Y-91162605D01*
X88057234Y-90989534D01*
X88161309Y-90833775D01*
X88161310Y-90833773D01*
X88293773Y-90701310D01*
X88449533Y-90597235D01*
X88449534Y-90597234D01*
X88622605Y-90525546D01*
X88806333Y-90489000D01*
X88993667Y-90489000D01*
X89177395Y-90525546D01*
X89177395Y-90525546D01*
G37*
G36*
X96797395Y-87985546D02*
G01*
X96970466Y-88057234D01*
X96970467Y-88057235D01*
X97126227Y-88161310D01*
X97258690Y-88293773D01*
X97258691Y-88293775D01*
X97362766Y-88449534D01*
X97434454Y-88622605D01*
X97471000Y-88806333D01*
X97471000Y-88993667D01*
X97434454Y-89177395D01*
X97362766Y-89350466D01*
X97362765Y-89350467D01*
X97258690Y-89506227D01*
X97126227Y-89638690D01*
X97047818Y-89691081D01*
X96970466Y-89742766D01*
X96797395Y-89814454D01*
X96613667Y-89851000D01*
X96426333Y-89851000D01*
X96242605Y-89814454D01*
X96069534Y-89742766D01*
X95992182Y-89691081D01*
X95913773Y-89638690D01*
X95781310Y-89506227D01*
X95677235Y-89350467D01*
X95677234Y-89350466D01*
X95605546Y-89177395D01*
X95569000Y-88993667D01*
X95569000Y-88806333D01*
X95605546Y-88622605D01*
X95677234Y-88449534D01*
X95781309Y-88293775D01*
X95781310Y-88293773D01*
X95913773Y-88161310D01*
X96069533Y-88057235D01*
X96069534Y-88057234D01*
X96242605Y-87985546D01*
X96426333Y-87949000D01*
X96613667Y-87949000D01*
X96797395Y-87985546D01*
X96797395Y-87985546D01*
G37*
G36*
X99337395Y-87985546D02*
G01*
X99510466Y-88057234D01*
X99510467Y-88057235D01*
X99666227Y-88161310D01*
X99798690Y-88293773D01*
X99798691Y-88293775D01*
X99902766Y-88449534D01*
X99974454Y-88622605D01*
X100011000Y-88806333D01*
X100011000Y-88993667D01*
X99974454Y-89177395D01*
X99902766Y-89350466D01*
X99902765Y-89350467D01*
X99798690Y-89506227D01*
X99666227Y-89638690D01*
X99587818Y-89691081D01*
X99510466Y-89742766D01*
X99337395Y-89814454D01*
X99153667Y-89851000D01*
X98966333Y-89851000D01*
X98782605Y-89814454D01*
X98609534Y-89742766D01*
X98532182Y-89691081D01*
X98453773Y-89638690D01*
X98321310Y-89506227D01*
X98217235Y-89350467D01*
X98217234Y-89350466D01*
X98145546Y-89177395D01*
X98109000Y-88993667D01*
X98109000Y-88806333D01*
X98145546Y-88622605D01*
X98217234Y-88449534D01*
X98321309Y-88293775D01*
X98321310Y-88293773D01*
X98453773Y-88161310D01*
X98609533Y-88057235D01*
X98609534Y-88057234D01*
X98782605Y-87985546D01*
X98966333Y-87949000D01*
X99153667Y-87949000D01*
X99337395Y-87985546D01*
X99337395Y-87985546D01*
G37*
G36*
X94257395Y-87985546D02*
G01*
X94430466Y-88057234D01*
X94430467Y-88057235D01*
X94586227Y-88161310D01*
X94718690Y-88293773D01*
X94718691Y-88293775D01*
X94822766Y-88449534D01*
X94894454Y-88622605D01*
X94931000Y-88806333D01*
X94931000Y-88993667D01*
X94894454Y-89177395D01*
X94822766Y-89350466D01*
X94822765Y-89350467D01*
X94718690Y-89506227D01*
X94586227Y-89638690D01*
X94507818Y-89691081D01*
X94430466Y-89742766D01*
X94257395Y-89814454D01*
X94073667Y-89851000D01*
X93886333Y-89851000D01*
X93702605Y-89814454D01*
X93529534Y-89742766D01*
X93452182Y-89691081D01*
X93373773Y-89638690D01*
X93241310Y-89506227D01*
X93137235Y-89350467D01*
X93137234Y-89350466D01*
X93065546Y-89177395D01*
X93029000Y-88993667D01*
X93029000Y-88806333D01*
X93065546Y-88622605D01*
X93137234Y-88449534D01*
X93241309Y-88293775D01*
X93241310Y-88293773D01*
X93373773Y-88161310D01*
X93529533Y-88057235D01*
X93529534Y-88057234D01*
X93702605Y-87985546D01*
X93886333Y-87949000D01*
X94073667Y-87949000D01*
X94257395Y-87985546D01*
X94257395Y-87985546D01*
G37*
G36*
X89177395Y-87985546D02*
G01*
X89350466Y-88057234D01*
X89350467Y-88057235D01*
X89506227Y-88161310D01*
X89638690Y-88293773D01*
X89638691Y-88293775D01*
X89742766Y-88449534D01*
X89814454Y-88622605D01*
X89851000Y-88806333D01*
X89851000Y-88993667D01*
X89814454Y-89177395D01*
X89742766Y-89350466D01*
X89742765Y-89350467D01*
X89638690Y-89506227D01*
X89506227Y-89638690D01*
X89427818Y-89691081D01*
X89350466Y-89742766D01*
X89177395Y-89814454D01*
X88993667Y-89851000D01*
X88806333Y-89851000D01*
X88622605Y-89814454D01*
X88449534Y-89742766D01*
X88372182Y-89691081D01*
X88293773Y-89638690D01*
X88161310Y-89506227D01*
X88057235Y-89350467D01*
X88057234Y-89350466D01*
X87985546Y-89177395D01*
X87949000Y-88993667D01*
X87949000Y-88806333D01*
X87985546Y-88622605D01*
X88057234Y-88449534D01*
X88161309Y-88293775D01*
X88161310Y-88293773D01*
X88293773Y-88161310D01*
X88449533Y-88057235D01*
X88449534Y-88057234D01*
X88622605Y-87985546D01*
X88806333Y-87949000D01*
X88993667Y-87949000D01*
X89177395Y-87985546D01*
X89177395Y-87985546D01*
G37*
G36*
X86637395Y-87985546D02*
G01*
X86810466Y-88057234D01*
X86810467Y-88057235D01*
X86966227Y-88161310D01*
X87098690Y-88293773D01*
X87098691Y-88293775D01*
X87202766Y-88449534D01*
X87274454Y-88622605D01*
X87311000Y-88806333D01*
X87311000Y-88993667D01*
X87274454Y-89177395D01*
X87202766Y-89350466D01*
X87202765Y-89350467D01*
X87098690Y-89506227D01*
X86966227Y-89638690D01*
X86887818Y-89691081D01*
X86810466Y-89742766D01*
X86637395Y-89814454D01*
X86453667Y-89851000D01*
X86266333Y-89851000D01*
X86082605Y-89814454D01*
X85909534Y-89742766D01*
X85832182Y-89691081D01*
X85753773Y-89638690D01*
X85621310Y-89506227D01*
X85517235Y-89350467D01*
X85517234Y-89350466D01*
X85445546Y-89177395D01*
X85409000Y-88993667D01*
X85409000Y-88806333D01*
X85445546Y-88622605D01*
X85517234Y-88449534D01*
X85621309Y-88293775D01*
X85621310Y-88293773D01*
X85753773Y-88161310D01*
X85909533Y-88057235D01*
X85909534Y-88057234D01*
X86082605Y-87985546D01*
X86266333Y-87949000D01*
X86453667Y-87949000D01*
X86637395Y-87985546D01*
X86637395Y-87985546D01*
G37*
G36*
X91717395Y-87985546D02*
G01*
X91890466Y-88057234D01*
X91890467Y-88057235D01*
X92046227Y-88161310D01*
X92178690Y-88293773D01*
X92178691Y-88293775D01*
X92282766Y-88449534D01*
X92354454Y-88622605D01*
X92391000Y-88806333D01*
X92391000Y-88993667D01*
X92354454Y-89177395D01*
X92282766Y-89350466D01*
X92282765Y-89350467D01*
X92178690Y-89506227D01*
X92046227Y-89638690D01*
X91967818Y-89691081D01*
X91890466Y-89742766D01*
X91717395Y-89814454D01*
X91533667Y-89851000D01*
X91346333Y-89851000D01*
X91162605Y-89814454D01*
X90989534Y-89742766D01*
X90912182Y-89691081D01*
X90833773Y-89638690D01*
X90701310Y-89506227D01*
X90597235Y-89350467D01*
X90597234Y-89350466D01*
X90525546Y-89177395D01*
X90489000Y-88993667D01*
X90489000Y-88806333D01*
X90525546Y-88622605D01*
X90597234Y-88449534D01*
X90701309Y-88293775D01*
X90701310Y-88293773D01*
X90833773Y-88161310D01*
X90989533Y-88057235D01*
X90989534Y-88057234D01*
X91162605Y-87985546D01*
X91346333Y-87949000D01*
X91533667Y-87949000D01*
X91717395Y-87985546D01*
X91717395Y-87985546D01*
G37*
G36*
X94257395Y-85445546D02*
G01*
X94430466Y-85517234D01*
X94430467Y-85517235D01*
X94586227Y-85621310D01*
X94718690Y-85753773D01*
X94718691Y-85753775D01*
X94822766Y-85909534D01*
X94894454Y-86082605D01*
X94931000Y-86266333D01*
X94931000Y-86453667D01*
X94894454Y-86637395D01*
X94822766Y-86810466D01*
X94822765Y-86810467D01*
X94718690Y-86966227D01*
X94586227Y-87098690D01*
X94507818Y-87151081D01*
X94430466Y-87202766D01*
X94257395Y-87274454D01*
X94073667Y-87311000D01*
X93886333Y-87311000D01*
X93702605Y-87274454D01*
X93529534Y-87202766D01*
X93452182Y-87151081D01*
X93373773Y-87098690D01*
X93241310Y-86966227D01*
X93137235Y-86810467D01*
X93137234Y-86810466D01*
X93065546Y-86637395D01*
X93029000Y-86453667D01*
X93029000Y-86266333D01*
X93065546Y-86082605D01*
X93137234Y-85909534D01*
X93241309Y-85753775D01*
X93241310Y-85753773D01*
X93373773Y-85621310D01*
X93529533Y-85517235D01*
X93529534Y-85517234D01*
X93702605Y-85445546D01*
X93886333Y-85409000D01*
X94073667Y-85409000D01*
X94257395Y-85445546D01*
X94257395Y-85445546D01*
G37*
G36*
X86637395Y-85445546D02*
G01*
X86810466Y-85517234D01*
X86810467Y-85517235D01*
X86966227Y-85621310D01*
X87098690Y-85753773D01*
X87098691Y-85753775D01*
X87202766Y-85909534D01*
X87274454Y-86082605D01*
X87311000Y-86266333D01*
X87311000Y-86453667D01*
X87274454Y-86637395D01*
X87202766Y-86810466D01*
X87202765Y-86810467D01*
X87098690Y-86966227D01*
X86966227Y-87098690D01*
X86887818Y-87151081D01*
X86810466Y-87202766D01*
X86637395Y-87274454D01*
X86453667Y-87311000D01*
X86266333Y-87311000D01*
X86082605Y-87274454D01*
X85909534Y-87202766D01*
X85832182Y-87151081D01*
X85753773Y-87098690D01*
X85621310Y-86966227D01*
X85517235Y-86810467D01*
X85517234Y-86810466D01*
X85445546Y-86637395D01*
X85409000Y-86453667D01*
X85409000Y-86266333D01*
X85445546Y-86082605D01*
X85517234Y-85909534D01*
X85621309Y-85753775D01*
X85621310Y-85753773D01*
X85753773Y-85621310D01*
X85909533Y-85517235D01*
X85909534Y-85517234D01*
X86082605Y-85445546D01*
X86266333Y-85409000D01*
X86453667Y-85409000D01*
X86637395Y-85445546D01*
X86637395Y-85445546D01*
G37*
G36*
X89177395Y-85445546D02*
G01*
X89350466Y-85517234D01*
X89350467Y-85517235D01*
X89506227Y-85621310D01*
X89638690Y-85753773D01*
X89638691Y-85753775D01*
X89742766Y-85909534D01*
X89814454Y-86082605D01*
X89851000Y-86266333D01*
X89851000Y-86453667D01*
X89814454Y-86637395D01*
X89742766Y-86810466D01*
X89742765Y-86810467D01*
X89638690Y-86966227D01*
X89506227Y-87098690D01*
X89427818Y-87151081D01*
X89350466Y-87202766D01*
X89177395Y-87274454D01*
X88993667Y-87311000D01*
X88806333Y-87311000D01*
X88622605Y-87274454D01*
X88449534Y-87202766D01*
X88372182Y-87151081D01*
X88293773Y-87098690D01*
X88161310Y-86966227D01*
X88057235Y-86810467D01*
X88057234Y-86810466D01*
X87985546Y-86637395D01*
X87949000Y-86453667D01*
X87949000Y-86266333D01*
X87985546Y-86082605D01*
X88057234Y-85909534D01*
X88161309Y-85753775D01*
X88161310Y-85753773D01*
X88293773Y-85621310D01*
X88449533Y-85517235D01*
X88449534Y-85517234D01*
X88622605Y-85445546D01*
X88806333Y-85409000D01*
X88993667Y-85409000D01*
X89177395Y-85445546D01*
X89177395Y-85445546D01*
G37*
G36*
X91717395Y-85445546D02*
G01*
X91890466Y-85517234D01*
X91890467Y-85517235D01*
X92046227Y-85621310D01*
X92178690Y-85753773D01*
X92178691Y-85753775D01*
X92282766Y-85909534D01*
X92354454Y-86082605D01*
X92391000Y-86266333D01*
X92391000Y-86453667D01*
X92354454Y-86637395D01*
X92282766Y-86810466D01*
X92282765Y-86810467D01*
X92178690Y-86966227D01*
X92046227Y-87098690D01*
X91967818Y-87151081D01*
X91890466Y-87202766D01*
X91717395Y-87274454D01*
X91533667Y-87311000D01*
X91346333Y-87311000D01*
X91162605Y-87274454D01*
X90989534Y-87202766D01*
X90912182Y-87151081D01*
X90833773Y-87098690D01*
X90701310Y-86966227D01*
X90597235Y-86810467D01*
X90597234Y-86810466D01*
X90525546Y-86637395D01*
X90489000Y-86453667D01*
X90489000Y-86266333D01*
X90525546Y-86082605D01*
X90597234Y-85909534D01*
X90701309Y-85753775D01*
X90701310Y-85753773D01*
X90833773Y-85621310D01*
X90989533Y-85517235D01*
X90989534Y-85517234D01*
X91162605Y-85445546D01*
X91346333Y-85409000D01*
X91533667Y-85409000D01*
X91717395Y-85445546D01*
X91717395Y-85445546D01*
G37*
G36*
X96797395Y-85445546D02*
G01*
X96970466Y-85517234D01*
X96970467Y-85517235D01*
X97126227Y-85621310D01*
X97258690Y-85753773D01*
X97258691Y-85753775D01*
X97362766Y-85909534D01*
X97434454Y-86082605D01*
X97471000Y-86266333D01*
X97471000Y-86453667D01*
X97434454Y-86637395D01*
X97362766Y-86810466D01*
X97362765Y-86810467D01*
X97258690Y-86966227D01*
X97126227Y-87098690D01*
X97047818Y-87151081D01*
X96970466Y-87202766D01*
X96797395Y-87274454D01*
X96613667Y-87311000D01*
X96426333Y-87311000D01*
X96242605Y-87274454D01*
X96069534Y-87202766D01*
X95992182Y-87151081D01*
X95913773Y-87098690D01*
X95781310Y-86966227D01*
X95677235Y-86810467D01*
X95677234Y-86810466D01*
X95605546Y-86637395D01*
X95569000Y-86453667D01*
X95569000Y-86266333D01*
X95605546Y-86082605D01*
X95677234Y-85909534D01*
X95781309Y-85753775D01*
X95781310Y-85753773D01*
X95913773Y-85621310D01*
X96069533Y-85517235D01*
X96069534Y-85517234D01*
X96242605Y-85445546D01*
X96426333Y-85409000D01*
X96613667Y-85409000D01*
X96797395Y-85445546D01*
X96797395Y-85445546D01*
G37*
G36*
X99337395Y-85445546D02*
G01*
X99510466Y-85517234D01*
X99510467Y-85517235D01*
X99666227Y-85621310D01*
X99798690Y-85753773D01*
X99798691Y-85753775D01*
X99902766Y-85909534D01*
X99974454Y-86082605D01*
X100011000Y-86266333D01*
X100011000Y-86453667D01*
X99974454Y-86637395D01*
X99902766Y-86810466D01*
X99902765Y-86810467D01*
X99798690Y-86966227D01*
X99666227Y-87098690D01*
X99587818Y-87151081D01*
X99510466Y-87202766D01*
X99337395Y-87274454D01*
X99153667Y-87311000D01*
X98966333Y-87311000D01*
X98782605Y-87274454D01*
X98609534Y-87202766D01*
X98532182Y-87151081D01*
X98453773Y-87098690D01*
X98321310Y-86966227D01*
X98217235Y-86810467D01*
X98217234Y-86810466D01*
X98145546Y-86637395D01*
X98109000Y-86453667D01*
X98109000Y-86266333D01*
X98145546Y-86082605D01*
X98217234Y-85909534D01*
X98321309Y-85753775D01*
X98321310Y-85753773D01*
X98453773Y-85621310D01*
X98609533Y-85517235D01*
X98609534Y-85517234D01*
X98782605Y-85445546D01*
X98966333Y-85409000D01*
X99153667Y-85409000D01*
X99337395Y-85445546D01*
X99337395Y-85445546D01*
G37*
G36*
X99337395Y-82905546D02*
G01*
X99510466Y-82977234D01*
X99510467Y-82977235D01*
X99666227Y-83081310D01*
X99798690Y-83213773D01*
X99798691Y-83213775D01*
X99902766Y-83369534D01*
X99974454Y-83542605D01*
X100011000Y-83726333D01*
X100011000Y-83913667D01*
X99974454Y-84097395D01*
X99902766Y-84270466D01*
X99902765Y-84270467D01*
X99798690Y-84426227D01*
X99666227Y-84558690D01*
X99587818Y-84611081D01*
X99510466Y-84662766D01*
X99337395Y-84734454D01*
X99153667Y-84771000D01*
X98966333Y-84771000D01*
X98782605Y-84734454D01*
X98609534Y-84662766D01*
X98532182Y-84611081D01*
X98453773Y-84558690D01*
X98321310Y-84426227D01*
X98217235Y-84270467D01*
X98217234Y-84270466D01*
X98145546Y-84097395D01*
X98109000Y-83913667D01*
X98109000Y-83726333D01*
X98145546Y-83542605D01*
X98217234Y-83369534D01*
X98321309Y-83213775D01*
X98321310Y-83213773D01*
X98453773Y-83081310D01*
X98609533Y-82977235D01*
X98609534Y-82977234D01*
X98782605Y-82905546D01*
X98966333Y-82869000D01*
X99153667Y-82869000D01*
X99337395Y-82905546D01*
X99337395Y-82905546D01*
G37*
G36*
X86637395Y-82905546D02*
G01*
X86810466Y-82977234D01*
X86810467Y-82977235D01*
X86966227Y-83081310D01*
X87098690Y-83213773D01*
X87098691Y-83213775D01*
X87202766Y-83369534D01*
X87274454Y-83542605D01*
X87311000Y-83726333D01*
X87311000Y-83913667D01*
X87274454Y-84097395D01*
X87202766Y-84270466D01*
X87202765Y-84270467D01*
X87098690Y-84426227D01*
X86966227Y-84558690D01*
X86887818Y-84611081D01*
X86810466Y-84662766D01*
X86637395Y-84734454D01*
X86453667Y-84771000D01*
X86266333Y-84771000D01*
X86082605Y-84734454D01*
X85909534Y-84662766D01*
X85832182Y-84611081D01*
X85753773Y-84558690D01*
X85621310Y-84426227D01*
X85517235Y-84270467D01*
X85517234Y-84270466D01*
X85445546Y-84097395D01*
X85409000Y-83913667D01*
X85409000Y-83726333D01*
X85445546Y-83542605D01*
X85517234Y-83369534D01*
X85621309Y-83213775D01*
X85621310Y-83213773D01*
X85753773Y-83081310D01*
X85909533Y-82977235D01*
X85909534Y-82977234D01*
X86082605Y-82905546D01*
X86266333Y-82869000D01*
X86453667Y-82869000D01*
X86637395Y-82905546D01*
X86637395Y-82905546D01*
G37*
G36*
X89177395Y-82905546D02*
G01*
X89350466Y-82977234D01*
X89350467Y-82977235D01*
X89506227Y-83081310D01*
X89638690Y-83213773D01*
X89638691Y-83213775D01*
X89742766Y-83369534D01*
X89814454Y-83542605D01*
X89851000Y-83726333D01*
X89851000Y-83913667D01*
X89814454Y-84097395D01*
X89742766Y-84270466D01*
X89742765Y-84270467D01*
X89638690Y-84426227D01*
X89506227Y-84558690D01*
X89427818Y-84611081D01*
X89350466Y-84662766D01*
X89177395Y-84734454D01*
X88993667Y-84771000D01*
X88806333Y-84771000D01*
X88622605Y-84734454D01*
X88449534Y-84662766D01*
X88372182Y-84611081D01*
X88293773Y-84558690D01*
X88161310Y-84426227D01*
X88057235Y-84270467D01*
X88057234Y-84270466D01*
X87985546Y-84097395D01*
X87949000Y-83913667D01*
X87949000Y-83726333D01*
X87985546Y-83542605D01*
X88057234Y-83369534D01*
X88161309Y-83213775D01*
X88161310Y-83213773D01*
X88293773Y-83081310D01*
X88449533Y-82977235D01*
X88449534Y-82977234D01*
X88622605Y-82905546D01*
X88806333Y-82869000D01*
X88993667Y-82869000D01*
X89177395Y-82905546D01*
X89177395Y-82905546D01*
G37*
G36*
X91717395Y-82905546D02*
G01*
X91890466Y-82977234D01*
X91890467Y-82977235D01*
X92046227Y-83081310D01*
X92178690Y-83213773D01*
X92178691Y-83213775D01*
X92282766Y-83369534D01*
X92354454Y-83542605D01*
X92391000Y-83726333D01*
X92391000Y-83913667D01*
X92354454Y-84097395D01*
X92282766Y-84270466D01*
X92282765Y-84270467D01*
X92178690Y-84426227D01*
X92046227Y-84558690D01*
X91967818Y-84611081D01*
X91890466Y-84662766D01*
X91717395Y-84734454D01*
X91533667Y-84771000D01*
X91346333Y-84771000D01*
X91162605Y-84734454D01*
X90989534Y-84662766D01*
X90912182Y-84611081D01*
X90833773Y-84558690D01*
X90701310Y-84426227D01*
X90597235Y-84270467D01*
X90597234Y-84270466D01*
X90525546Y-84097395D01*
X90489000Y-83913667D01*
X90489000Y-83726333D01*
X90525546Y-83542605D01*
X90597234Y-83369534D01*
X90701309Y-83213775D01*
X90701310Y-83213773D01*
X90833773Y-83081310D01*
X90989533Y-82977235D01*
X90989534Y-82977234D01*
X91162605Y-82905546D01*
X91346333Y-82869000D01*
X91533667Y-82869000D01*
X91717395Y-82905546D01*
X91717395Y-82905546D01*
G37*
G36*
X94257395Y-82905546D02*
G01*
X94430466Y-82977234D01*
X94430467Y-82977235D01*
X94586227Y-83081310D01*
X94718690Y-83213773D01*
X94718691Y-83213775D01*
X94822766Y-83369534D01*
X94894454Y-83542605D01*
X94931000Y-83726333D01*
X94931000Y-83913667D01*
X94894454Y-84097395D01*
X94822766Y-84270466D01*
X94822765Y-84270467D01*
X94718690Y-84426227D01*
X94586227Y-84558690D01*
X94507818Y-84611081D01*
X94430466Y-84662766D01*
X94257395Y-84734454D01*
X94073667Y-84771000D01*
X93886333Y-84771000D01*
X93702605Y-84734454D01*
X93529534Y-84662766D01*
X93452182Y-84611081D01*
X93373773Y-84558690D01*
X93241310Y-84426227D01*
X93137235Y-84270467D01*
X93137234Y-84270466D01*
X93065546Y-84097395D01*
X93029000Y-83913667D01*
X93029000Y-83726333D01*
X93065546Y-83542605D01*
X93137234Y-83369534D01*
X93241309Y-83213775D01*
X93241310Y-83213773D01*
X93373773Y-83081310D01*
X93529533Y-82977235D01*
X93529534Y-82977234D01*
X93702605Y-82905546D01*
X93886333Y-82869000D01*
X94073667Y-82869000D01*
X94257395Y-82905546D01*
X94257395Y-82905546D01*
G37*
G36*
X96797395Y-82905546D02*
G01*
X96970466Y-82977234D01*
X96970467Y-82977235D01*
X97126227Y-83081310D01*
X97258690Y-83213773D01*
X97258691Y-83213775D01*
X97362766Y-83369534D01*
X97434454Y-83542605D01*
X97471000Y-83726333D01*
X97471000Y-83913667D01*
X97434454Y-84097395D01*
X97362766Y-84270466D01*
X97362765Y-84270467D01*
X97258690Y-84426227D01*
X97126227Y-84558690D01*
X97047818Y-84611081D01*
X96970466Y-84662766D01*
X96797395Y-84734454D01*
X96613667Y-84771000D01*
X96426333Y-84771000D01*
X96242605Y-84734454D01*
X96069534Y-84662766D01*
X95992182Y-84611081D01*
X95913773Y-84558690D01*
X95781310Y-84426227D01*
X95677235Y-84270467D01*
X95677234Y-84270466D01*
X95605546Y-84097395D01*
X95569000Y-83913667D01*
X95569000Y-83726333D01*
X95605546Y-83542605D01*
X95677234Y-83369534D01*
X95781309Y-83213775D01*
X95781310Y-83213773D01*
X95913773Y-83081310D01*
X96069533Y-82977235D01*
X96069534Y-82977234D01*
X96242605Y-82905546D01*
X96426333Y-82869000D01*
X96613667Y-82869000D01*
X96797395Y-82905546D01*
X96797395Y-82905546D01*
G37*
G36*
X94257395Y-80365546D02*
G01*
X94430466Y-80437234D01*
X94430467Y-80437235D01*
X94586227Y-80541310D01*
X94718690Y-80673773D01*
X94718691Y-80673775D01*
X94822766Y-80829534D01*
X94894454Y-81002605D01*
X94931000Y-81186333D01*
X94931000Y-81373667D01*
X94894454Y-81557395D01*
X94822766Y-81730466D01*
X94822765Y-81730467D01*
X94718690Y-81886227D01*
X94586227Y-82018690D01*
X94507818Y-82071081D01*
X94430466Y-82122766D01*
X94257395Y-82194454D01*
X94073667Y-82231000D01*
X93886333Y-82231000D01*
X93702605Y-82194454D01*
X93529534Y-82122766D01*
X93452182Y-82071081D01*
X93373773Y-82018690D01*
X93241310Y-81886227D01*
X93137235Y-81730467D01*
X93137234Y-81730466D01*
X93065546Y-81557395D01*
X93029000Y-81373667D01*
X93029000Y-81186333D01*
X93065546Y-81002605D01*
X93137234Y-80829534D01*
X93241309Y-80673775D01*
X93241310Y-80673773D01*
X93373773Y-80541310D01*
X93529533Y-80437235D01*
X93529534Y-80437234D01*
X93702605Y-80365546D01*
X93886333Y-80329000D01*
X94073667Y-80329000D01*
X94257395Y-80365546D01*
X94257395Y-80365546D01*
G37*
G36*
X91717395Y-80365546D02*
G01*
X91890466Y-80437234D01*
X91890467Y-80437235D01*
X92046227Y-80541310D01*
X92178690Y-80673773D01*
X92178691Y-80673775D01*
X92282766Y-80829534D01*
X92354454Y-81002605D01*
X92391000Y-81186333D01*
X92391000Y-81373667D01*
X92354454Y-81557395D01*
X92282766Y-81730466D01*
X92282765Y-81730467D01*
X92178690Y-81886227D01*
X92046227Y-82018690D01*
X91967818Y-82071081D01*
X91890466Y-82122766D01*
X91717395Y-82194454D01*
X91533667Y-82231000D01*
X91346333Y-82231000D01*
X91162605Y-82194454D01*
X90989534Y-82122766D01*
X90912182Y-82071081D01*
X90833773Y-82018690D01*
X90701310Y-81886227D01*
X90597235Y-81730467D01*
X90597234Y-81730466D01*
X90525546Y-81557395D01*
X90489000Y-81373667D01*
X90489000Y-81186333D01*
X90525546Y-81002605D01*
X90597234Y-80829534D01*
X90701309Y-80673775D01*
X90701310Y-80673773D01*
X90833773Y-80541310D01*
X90989533Y-80437235D01*
X90989534Y-80437234D01*
X91162605Y-80365546D01*
X91346333Y-80329000D01*
X91533667Y-80329000D01*
X91717395Y-80365546D01*
X91717395Y-80365546D01*
G37*
G36*
X89177395Y-80365546D02*
G01*
X89350466Y-80437234D01*
X89350467Y-80437235D01*
X89506227Y-80541310D01*
X89638690Y-80673773D01*
X89638691Y-80673775D01*
X89742766Y-80829534D01*
X89814454Y-81002605D01*
X89851000Y-81186333D01*
X89851000Y-81373667D01*
X89814454Y-81557395D01*
X89742766Y-81730466D01*
X89742765Y-81730467D01*
X89638690Y-81886227D01*
X89506227Y-82018690D01*
X89427818Y-82071081D01*
X89350466Y-82122766D01*
X89177395Y-82194454D01*
X88993667Y-82231000D01*
X88806333Y-82231000D01*
X88622605Y-82194454D01*
X88449534Y-82122766D01*
X88372182Y-82071081D01*
X88293773Y-82018690D01*
X88161310Y-81886227D01*
X88057235Y-81730467D01*
X88057234Y-81730466D01*
X87985546Y-81557395D01*
X87949000Y-81373667D01*
X87949000Y-81186333D01*
X87985546Y-81002605D01*
X88057234Y-80829534D01*
X88161309Y-80673775D01*
X88161310Y-80673773D01*
X88293773Y-80541310D01*
X88449533Y-80437235D01*
X88449534Y-80437234D01*
X88622605Y-80365546D01*
X88806333Y-80329000D01*
X88993667Y-80329000D01*
X89177395Y-80365546D01*
X89177395Y-80365546D01*
G37*
G36*
X99337395Y-80365546D02*
G01*
X99510466Y-80437234D01*
X99510467Y-80437235D01*
X99666227Y-80541310D01*
X99798690Y-80673773D01*
X99798691Y-80673775D01*
X99902766Y-80829534D01*
X99974454Y-81002605D01*
X100011000Y-81186333D01*
X100011000Y-81373667D01*
X99974454Y-81557395D01*
X99902766Y-81730466D01*
X99902765Y-81730467D01*
X99798690Y-81886227D01*
X99666227Y-82018690D01*
X99587818Y-82071081D01*
X99510466Y-82122766D01*
X99337395Y-82194454D01*
X99153667Y-82231000D01*
X98966333Y-82231000D01*
X98782605Y-82194454D01*
X98609534Y-82122766D01*
X98532182Y-82071081D01*
X98453773Y-82018690D01*
X98321310Y-81886227D01*
X98217235Y-81730467D01*
X98217234Y-81730466D01*
X98145546Y-81557395D01*
X98109000Y-81373667D01*
X98109000Y-81186333D01*
X98145546Y-81002605D01*
X98217234Y-80829534D01*
X98321309Y-80673775D01*
X98321310Y-80673773D01*
X98453773Y-80541310D01*
X98609533Y-80437235D01*
X98609534Y-80437234D01*
X98782605Y-80365546D01*
X98966333Y-80329000D01*
X99153667Y-80329000D01*
X99337395Y-80365546D01*
X99337395Y-80365546D01*
G37*
G36*
X96797395Y-80365546D02*
G01*
X96970466Y-80437234D01*
X96970467Y-80437235D01*
X97126227Y-80541310D01*
X97258690Y-80673773D01*
X97258691Y-80673775D01*
X97362766Y-80829534D01*
X97434454Y-81002605D01*
X97471000Y-81186333D01*
X97471000Y-81373667D01*
X97434454Y-81557395D01*
X97362766Y-81730466D01*
X97362765Y-81730467D01*
X97258690Y-81886227D01*
X97126227Y-82018690D01*
X97047818Y-82071081D01*
X96970466Y-82122766D01*
X96797395Y-82194454D01*
X96613667Y-82231000D01*
X96426333Y-82231000D01*
X96242605Y-82194454D01*
X96069534Y-82122766D01*
X95992182Y-82071081D01*
X95913773Y-82018690D01*
X95781310Y-81886227D01*
X95677235Y-81730467D01*
X95677234Y-81730466D01*
X95605546Y-81557395D01*
X95569000Y-81373667D01*
X95569000Y-81186333D01*
X95605546Y-81002605D01*
X95677234Y-80829534D01*
X95781309Y-80673775D01*
X95781310Y-80673773D01*
X95913773Y-80541310D01*
X96069533Y-80437235D01*
X96069534Y-80437234D01*
X96242605Y-80365546D01*
X96426333Y-80329000D01*
X96613667Y-80329000D01*
X96797395Y-80365546D01*
X96797395Y-80365546D01*
G37*
G36*
X86637395Y-80365546D02*
G01*
X86810466Y-80437234D01*
X86810467Y-80437235D01*
X86966227Y-80541310D01*
X87098690Y-80673773D01*
X87098691Y-80673775D01*
X87202766Y-80829534D01*
X87274454Y-81002605D01*
X87311000Y-81186333D01*
X87311000Y-81373667D01*
X87274454Y-81557395D01*
X87202766Y-81730466D01*
X87202765Y-81730467D01*
X87098690Y-81886227D01*
X86966227Y-82018690D01*
X86887818Y-82071081D01*
X86810466Y-82122766D01*
X86637395Y-82194454D01*
X86453667Y-82231000D01*
X86266333Y-82231000D01*
X86082605Y-82194454D01*
X85909534Y-82122766D01*
X85832182Y-82071081D01*
X85753773Y-82018690D01*
X85621310Y-81886227D01*
X85517235Y-81730467D01*
X85517234Y-81730466D01*
X85445546Y-81557395D01*
X85409000Y-81373667D01*
X85409000Y-81186333D01*
X85445546Y-81002605D01*
X85517234Y-80829534D01*
X85621309Y-80673775D01*
X85621310Y-80673773D01*
X85753773Y-80541310D01*
X85909533Y-80437235D01*
X85909534Y-80437234D01*
X86082605Y-80365546D01*
X86266333Y-80329000D01*
X86453667Y-80329000D01*
X86637395Y-80365546D01*
X86637395Y-80365546D01*
G37*
M02*
