G04 #@! TF.GenerationSoftware,KiCad,Pcbnew,5.1.2*
G04 #@! TF.CreationDate,2019-05-25T23:05:01-04:00*
G04 #@! TF.ProjectId,skateboardController,736b6174-6562-46f6-9172-64436f6e7472,rev?*
G04 #@! TF.SameCoordinates,Original*
G04 #@! TF.FileFunction,Copper,L2,Bot*
G04 #@! TF.FilePolarity,Positive*
%FSLAX46Y46*%
G04 Gerber Fmt 4.6, Leading zero omitted, Abs format (unit mm)*
G04 Created by KiCad (PCBNEW 5.1.2) date 2019-05-25 23:05:01*
%MOMM*%
%LPD*%
G04 APERTURE LIST*
%ADD10C,1.800000*%
%ADD11R,1.700000X1.700000*%
%ADD12O,1.700000X1.700000*%
%ADD13R,1.727200X1.727200*%
%ADD14O,1.727200X1.727200*%
%ADD15C,0.800000*%
%ADD16C,0.203200*%
%ADD17C,0.254000*%
G04 APERTURE END LIST*
D10*
X99060000Y-96520000D03*
X96520000Y-96520000D03*
X93980000Y-96520000D03*
X91440000Y-96520000D03*
X88900000Y-96520000D03*
X86360000Y-96520000D03*
X99060000Y-93980000D03*
X96520000Y-93980000D03*
X93980000Y-93980000D03*
X91440000Y-93980000D03*
X88900000Y-93980000D03*
X86360000Y-93980000D03*
X99060000Y-91440000D03*
X96520000Y-91440000D03*
X93980000Y-91440000D03*
X91440000Y-91440000D03*
X88900000Y-91440000D03*
X86360000Y-91440000D03*
X99060000Y-88900000D03*
X96520000Y-88900000D03*
X93980000Y-88900000D03*
X91440000Y-88900000D03*
X88900000Y-88900000D03*
X86360000Y-88900000D03*
X99060000Y-86360000D03*
X96520000Y-86360000D03*
X93980000Y-86360000D03*
X91440000Y-86360000D03*
X88900000Y-86360000D03*
X86360000Y-86360000D03*
X99060000Y-83820000D03*
X96520000Y-83820000D03*
X93980000Y-83820000D03*
X91440000Y-83820000D03*
X88900000Y-83820000D03*
X86360000Y-83820000D03*
X99060000Y-81280000D03*
X96520000Y-81280000D03*
X93980000Y-81280000D03*
X91440000Y-81280000D03*
X88900000Y-81280000D03*
X86360000Y-81280000D03*
D11*
X86360000Y-99060000D03*
D12*
X88900000Y-99060000D03*
X91440000Y-99060000D03*
X93980000Y-99060000D03*
X96520000Y-99060000D03*
X99060000Y-99060000D03*
D13*
X75438000Y-108077000D03*
D14*
X77978000Y-108077000D03*
X75438000Y-110617000D03*
X77978000Y-110617000D03*
X75438000Y-113157000D03*
X77978000Y-113157000D03*
D11*
X89535000Y-116840000D03*
D12*
X86995000Y-116840000D03*
X84455000Y-116840000D03*
D11*
X99060000Y-102870000D03*
D12*
X99060000Y-105410000D03*
X99060000Y-107950000D03*
X99060000Y-110490000D03*
X99060000Y-113030000D03*
D15*
X73025000Y-100711000D03*
X87757000Y-107950000D03*
X88011000Y-110236000D03*
X81287691Y-108130840D03*
X73532998Y-107442000D03*
X90678000Y-107569000D03*
X88265000Y-113665000D03*
X76581000Y-100076000D03*
X80518000Y-105918000D03*
X75692000Y-99568000D03*
X79883000Y-106807000D03*
X82296000Y-109093000D03*
D16*
X73025000Y-103124000D02*
X77978000Y-108077000D01*
X73025000Y-100711000D02*
X73025000Y-103124000D01*
X87757000Y-107950000D02*
X87757000Y-109982000D01*
X87757000Y-109982000D02*
X88011000Y-110236000D01*
X86995000Y-111252000D02*
X88011000Y-110236000D01*
X86995000Y-117983000D02*
X86995000Y-111252000D01*
X81468531Y-107950000D02*
X81287691Y-108130840D01*
X87757000Y-107950000D02*
X81468531Y-107950000D01*
X90297000Y-105410000D02*
X90233500Y-105473500D01*
X99060000Y-105410000D02*
X90297000Y-105410000D01*
X90233500Y-105473500D02*
X87757000Y-107950000D01*
X74371199Y-109194601D02*
X73532998Y-108356400D01*
X73532998Y-108356400D02*
X73532998Y-108007685D01*
X73532998Y-108007685D02*
X73532998Y-107442000D01*
X76555601Y-109194601D02*
X74371199Y-109194601D01*
X77978000Y-110617000D02*
X76555601Y-109194601D01*
X90678000Y-111252000D02*
X90678000Y-107569000D01*
X88265000Y-113665000D02*
X90678000Y-111252000D01*
X76581000Y-100076000D02*
X76581000Y-100641685D01*
X76581000Y-101981000D02*
X76581000Y-100076000D01*
X80518000Y-105918000D02*
X76581000Y-101981000D01*
X79483001Y-106407001D02*
X79883000Y-106807000D01*
X75692000Y-99568000D02*
X75692000Y-102616000D01*
X75692000Y-102616000D02*
X79483001Y-106407001D01*
X84455000Y-117983000D02*
X84455000Y-111252000D01*
X84455000Y-111252000D02*
X82296000Y-109093000D01*
D17*
G36*
X101473000Y-119253000D02*
G01*
X71247000Y-119253000D01*
X71247000Y-107340061D01*
X72497998Y-107340061D01*
X72497998Y-107543939D01*
X72537772Y-107743898D01*
X72615793Y-107932256D01*
X72729061Y-108101774D01*
X72796398Y-108169111D01*
X72796398Y-108320217D01*
X72792834Y-108356400D01*
X72796398Y-108392583D01*
X72796398Y-108392585D01*
X72807056Y-108500798D01*
X72849176Y-108639648D01*
X72917574Y-108767612D01*
X73009623Y-108879774D01*
X73037730Y-108902841D01*
X73824756Y-109689868D01*
X73847824Y-109717976D01*
X73959986Y-109810025D01*
X74087950Y-109878423D01*
X74127173Y-109890321D01*
X74046775Y-110040736D01*
X73961084Y-110323223D01*
X73932149Y-110617000D01*
X73961084Y-110910777D01*
X74046775Y-111193264D01*
X74185931Y-111453606D01*
X74373203Y-111681797D01*
X74601394Y-111869069D01*
X74634940Y-111887000D01*
X74601394Y-111904931D01*
X74373203Y-112092203D01*
X74185931Y-112320394D01*
X74046775Y-112580736D01*
X73961084Y-112863223D01*
X73932149Y-113157000D01*
X73961084Y-113450777D01*
X74046775Y-113733264D01*
X74185931Y-113993606D01*
X74373203Y-114221797D01*
X74601394Y-114409069D01*
X74861736Y-114548225D01*
X75144223Y-114633916D01*
X75364381Y-114655600D01*
X75511619Y-114655600D01*
X75731777Y-114633916D01*
X76014264Y-114548225D01*
X76274606Y-114409069D01*
X76502797Y-114221797D01*
X76690069Y-113993606D01*
X76708000Y-113960060D01*
X76725931Y-113993606D01*
X76913203Y-114221797D01*
X77141394Y-114409069D01*
X77401736Y-114548225D01*
X77684223Y-114633916D01*
X77904381Y-114655600D01*
X78051619Y-114655600D01*
X78271777Y-114633916D01*
X78554264Y-114548225D01*
X78814606Y-114409069D01*
X79042797Y-114221797D01*
X79230069Y-113993606D01*
X79369225Y-113733264D01*
X79454916Y-113450777D01*
X79483851Y-113157000D01*
X79454916Y-112863223D01*
X79369225Y-112580736D01*
X79230069Y-112320394D01*
X79042797Y-112092203D01*
X78814606Y-111904931D01*
X78781060Y-111887000D01*
X78814606Y-111869069D01*
X79042797Y-111681797D01*
X79230069Y-111453606D01*
X79369225Y-111193264D01*
X79454916Y-110910777D01*
X79483851Y-110617000D01*
X79454916Y-110323223D01*
X79369225Y-110040736D01*
X79230069Y-109780394D01*
X79042797Y-109552203D01*
X78814606Y-109364931D01*
X78770090Y-109341137D01*
X78866488Y-109283817D01*
X79084854Y-109087293D01*
X79156749Y-108991061D01*
X81261000Y-108991061D01*
X81261000Y-109194939D01*
X81300774Y-109394898D01*
X81378795Y-109583256D01*
X81492063Y-109752774D01*
X81636226Y-109896937D01*
X81805744Y-110010205D01*
X81994102Y-110088226D01*
X82194061Y-110128000D01*
X82289291Y-110128000D01*
X83718401Y-111557111D01*
X83718400Y-115549898D01*
X83625986Y-115599294D01*
X83399866Y-115784866D01*
X83214294Y-116010986D01*
X83076401Y-116268966D01*
X82991487Y-116548889D01*
X82962815Y-116840000D01*
X82991487Y-117131111D01*
X83076401Y-117411034D01*
X83214294Y-117669014D01*
X83399866Y-117895134D01*
X83625986Y-118080706D01*
X83732100Y-118137425D01*
X83771178Y-118266248D01*
X83839576Y-118394212D01*
X83931625Y-118506374D01*
X84043787Y-118598424D01*
X84171751Y-118666822D01*
X84310601Y-118708942D01*
X84455000Y-118723164D01*
X84599398Y-118708942D01*
X84738248Y-118666822D01*
X84866212Y-118598424D01*
X84978374Y-118506375D01*
X85070424Y-118394213D01*
X85138822Y-118266249D01*
X85177901Y-118137425D01*
X85284014Y-118080706D01*
X85510134Y-117895134D01*
X85695706Y-117669014D01*
X85730201Y-117604477D01*
X85799822Y-117721355D01*
X85994731Y-117937588D01*
X86228080Y-118111641D01*
X86490901Y-118236825D01*
X86638110Y-118281476D01*
X86868000Y-118160155D01*
X86868000Y-116967000D01*
X86848000Y-116967000D01*
X86848000Y-116713000D01*
X86868000Y-116713000D01*
X86868000Y-115519845D01*
X87122000Y-115519845D01*
X87122000Y-116713000D01*
X87142000Y-116713000D01*
X87142000Y-116967000D01*
X87122000Y-116967000D01*
X87122000Y-118160155D01*
X87351890Y-118281476D01*
X87499099Y-118236825D01*
X87761920Y-118111641D01*
X87995269Y-117937588D01*
X88071034Y-117853534D01*
X88095498Y-117934180D01*
X88154463Y-118044494D01*
X88233815Y-118141185D01*
X88330506Y-118220537D01*
X88440820Y-118279502D01*
X88560518Y-118315812D01*
X88685000Y-118328072D01*
X90385000Y-118328072D01*
X90509482Y-118315812D01*
X90629180Y-118279502D01*
X90739494Y-118220537D01*
X90836185Y-118141185D01*
X90915537Y-118044494D01*
X90974502Y-117934180D01*
X91010812Y-117814482D01*
X91023072Y-117690000D01*
X91023072Y-115990000D01*
X91010812Y-115865518D01*
X90974502Y-115745820D01*
X90915537Y-115635506D01*
X90836185Y-115538815D01*
X90739494Y-115459463D01*
X90629180Y-115400498D01*
X90509482Y-115364188D01*
X90385000Y-115351928D01*
X88685000Y-115351928D01*
X88560518Y-115364188D01*
X88440820Y-115400498D01*
X88330506Y-115459463D01*
X88233815Y-115538815D01*
X88154463Y-115635506D01*
X88095498Y-115745820D01*
X88071034Y-115826466D01*
X87995269Y-115742412D01*
X87761920Y-115568359D01*
X87499099Y-115443175D01*
X87351890Y-115398524D01*
X87122000Y-115519845D01*
X86868000Y-115519845D01*
X86638110Y-115398524D01*
X86490901Y-115443175D01*
X86228080Y-115568359D01*
X85994731Y-115742412D01*
X85799822Y-115958645D01*
X85730201Y-116075523D01*
X85695706Y-116010986D01*
X85510134Y-115784866D01*
X85284014Y-115599294D01*
X85191600Y-115549898D01*
X85191600Y-113563061D01*
X87230000Y-113563061D01*
X87230000Y-113766939D01*
X87269774Y-113966898D01*
X87347795Y-114155256D01*
X87461063Y-114324774D01*
X87605226Y-114468937D01*
X87774744Y-114582205D01*
X87963102Y-114660226D01*
X88163061Y-114700000D01*
X88366939Y-114700000D01*
X88566898Y-114660226D01*
X88755256Y-114582205D01*
X88924774Y-114468937D01*
X89068937Y-114324774D01*
X89182205Y-114155256D01*
X89260226Y-113966898D01*
X89300000Y-113766939D01*
X89300000Y-113671709D01*
X91173268Y-111798441D01*
X91201374Y-111775375D01*
X91293424Y-111663213D01*
X91361822Y-111535249D01*
X91403942Y-111396399D01*
X91414600Y-111288186D01*
X91414600Y-111288177D01*
X91418163Y-111252001D01*
X91414600Y-111215825D01*
X91414600Y-108296111D01*
X91481937Y-108228774D01*
X91595205Y-108059256D01*
X91640460Y-107950000D01*
X97567815Y-107950000D01*
X97596487Y-108241111D01*
X97681401Y-108521034D01*
X97819294Y-108779014D01*
X98004866Y-109005134D01*
X98230986Y-109190706D01*
X98285791Y-109220000D01*
X98230986Y-109249294D01*
X98004866Y-109434866D01*
X97819294Y-109660986D01*
X97681401Y-109918966D01*
X97596487Y-110198889D01*
X97567815Y-110490000D01*
X97596487Y-110781111D01*
X97681401Y-111061034D01*
X97819294Y-111319014D01*
X98004866Y-111545134D01*
X98230986Y-111730706D01*
X98285791Y-111760000D01*
X98230986Y-111789294D01*
X98004866Y-111974866D01*
X97819294Y-112200986D01*
X97681401Y-112458966D01*
X97596487Y-112738889D01*
X97567815Y-113030000D01*
X97596487Y-113321111D01*
X97681401Y-113601034D01*
X97819294Y-113859014D01*
X98004866Y-114085134D01*
X98230986Y-114270706D01*
X98488966Y-114408599D01*
X98768889Y-114493513D01*
X98987050Y-114515000D01*
X99132950Y-114515000D01*
X99351111Y-114493513D01*
X99631034Y-114408599D01*
X99889014Y-114270706D01*
X100115134Y-114085134D01*
X100300706Y-113859014D01*
X100438599Y-113601034D01*
X100523513Y-113321111D01*
X100552185Y-113030000D01*
X100523513Y-112738889D01*
X100438599Y-112458966D01*
X100300706Y-112200986D01*
X100115134Y-111974866D01*
X99889014Y-111789294D01*
X99834209Y-111760000D01*
X99889014Y-111730706D01*
X100115134Y-111545134D01*
X100300706Y-111319014D01*
X100438599Y-111061034D01*
X100523513Y-110781111D01*
X100552185Y-110490000D01*
X100523513Y-110198889D01*
X100438599Y-109918966D01*
X100300706Y-109660986D01*
X100115134Y-109434866D01*
X99889014Y-109249294D01*
X99834209Y-109220000D01*
X99889014Y-109190706D01*
X100115134Y-109005134D01*
X100300706Y-108779014D01*
X100438599Y-108521034D01*
X100523513Y-108241111D01*
X100552185Y-107950000D01*
X100523513Y-107658889D01*
X100438599Y-107378966D01*
X100300706Y-107120986D01*
X100115134Y-106894866D01*
X99889014Y-106709294D01*
X99824477Y-106674799D01*
X99941355Y-106605178D01*
X100157588Y-106410269D01*
X100331641Y-106176920D01*
X100456825Y-105914099D01*
X100501476Y-105766890D01*
X100380155Y-105537000D01*
X99187000Y-105537000D01*
X99187000Y-105557000D01*
X98933000Y-105557000D01*
X98933000Y-105537000D01*
X97739845Y-105537000D01*
X97618524Y-105766890D01*
X97663175Y-105914099D01*
X97788359Y-106176920D01*
X97962412Y-106410269D01*
X98178645Y-106605178D01*
X98295523Y-106674799D01*
X98230986Y-106709294D01*
X98004866Y-106894866D01*
X97819294Y-107120986D01*
X97681401Y-107378966D01*
X97596487Y-107658889D01*
X97567815Y-107950000D01*
X91640460Y-107950000D01*
X91673226Y-107870898D01*
X91713000Y-107670939D01*
X91713000Y-107467061D01*
X91673226Y-107267102D01*
X91595205Y-107078744D01*
X91481937Y-106909226D01*
X91337774Y-106765063D01*
X91168256Y-106651795D01*
X90979898Y-106573774D01*
X90779939Y-106534000D01*
X90576061Y-106534000D01*
X90376102Y-106573774D01*
X90187744Y-106651795D01*
X90018226Y-106765063D01*
X89874063Y-106909226D01*
X89760795Y-107078744D01*
X89682774Y-107267102D01*
X89643000Y-107467061D01*
X89643000Y-107670939D01*
X89682774Y-107870898D01*
X89760795Y-108059256D01*
X89874063Y-108228774D01*
X89941401Y-108296112D01*
X89941400Y-110946891D01*
X88258291Y-112630000D01*
X88163061Y-112630000D01*
X87963102Y-112669774D01*
X87774744Y-112747795D01*
X87605226Y-112861063D01*
X87461063Y-113005226D01*
X87347795Y-113174744D01*
X87269774Y-113363102D01*
X87230000Y-113563061D01*
X85191600Y-113563061D01*
X85191600Y-111288175D01*
X85195163Y-111251999D01*
X85191600Y-111215823D01*
X85191600Y-111215814D01*
X85180942Y-111107601D01*
X85138822Y-110968751D01*
X85070424Y-110840787D01*
X84978375Y-110728625D01*
X84950269Y-110705559D01*
X83331000Y-109086291D01*
X83331000Y-108991061D01*
X83291226Y-108791102D01*
X83213205Y-108602744D01*
X83099937Y-108433226D01*
X82955774Y-108289063D01*
X82786256Y-108175795D01*
X82597898Y-108097774D01*
X82397939Y-108058000D01*
X82194061Y-108058000D01*
X81994102Y-108097774D01*
X81805744Y-108175795D01*
X81636226Y-108289063D01*
X81492063Y-108433226D01*
X81378795Y-108602744D01*
X81300774Y-108791102D01*
X81261000Y-108991061D01*
X79156749Y-108991061D01*
X79260684Y-108851944D01*
X79387222Y-108586814D01*
X79432958Y-108436026D01*
X79311817Y-108204000D01*
X78105000Y-108204000D01*
X78105000Y-108224000D01*
X77851000Y-108224000D01*
X77851000Y-108204000D01*
X77831000Y-108204000D01*
X77831000Y-107950000D01*
X77851000Y-107950000D01*
X77851000Y-106742536D01*
X77618973Y-106622037D01*
X77342022Y-106720036D01*
X77089512Y-106870183D01*
X76910053Y-107031692D01*
X76891102Y-106969220D01*
X76832137Y-106858906D01*
X76752785Y-106762215D01*
X76656094Y-106682863D01*
X76545780Y-106623898D01*
X76426082Y-106587588D01*
X76301600Y-106575328D01*
X74574400Y-106575328D01*
X74449918Y-106587588D01*
X74330220Y-106623898D01*
X74231418Y-106676709D01*
X74192772Y-106638063D01*
X74023254Y-106524795D01*
X73834896Y-106446774D01*
X73634937Y-106407000D01*
X73431059Y-106407000D01*
X73231100Y-106446774D01*
X73042742Y-106524795D01*
X72873224Y-106638063D01*
X72729061Y-106782226D01*
X72615793Y-106951744D01*
X72537772Y-107140102D01*
X72497998Y-107340061D01*
X71247000Y-107340061D01*
X71247000Y-99466061D01*
X74657000Y-99466061D01*
X74657000Y-99669939D01*
X74696774Y-99869898D01*
X74774795Y-100058256D01*
X74888063Y-100227774D01*
X74955400Y-100295111D01*
X74955401Y-102579807D01*
X74951836Y-102616000D01*
X74960794Y-102706942D01*
X74966059Y-102760399D01*
X75008179Y-102899249D01*
X75076577Y-103027213D01*
X75168626Y-103139375D01*
X75196732Y-103162441D01*
X78848000Y-106813710D01*
X78848000Y-106859190D01*
X78613978Y-106720036D01*
X78337027Y-106622037D01*
X78105000Y-106742536D01*
X78105000Y-107950000D01*
X79311817Y-107950000D01*
X79423133Y-107736793D01*
X79581102Y-107802226D01*
X79781061Y-107842000D01*
X79984939Y-107842000D01*
X80184898Y-107802226D01*
X80373256Y-107724205D01*
X80542774Y-107610937D01*
X80686937Y-107466774D01*
X80800205Y-107297256D01*
X80878226Y-107108898D01*
X80918000Y-106908939D01*
X80918000Y-106872591D01*
X81008256Y-106835205D01*
X81177774Y-106721937D01*
X81321937Y-106577774D01*
X81435205Y-106408256D01*
X81513226Y-106219898D01*
X81553000Y-106019939D01*
X81553000Y-105816061D01*
X81513226Y-105616102D01*
X81435205Y-105427744D01*
X81321937Y-105258226D01*
X81177774Y-105114063D01*
X81008256Y-105000795D01*
X80819898Y-104922774D01*
X80619939Y-104883000D01*
X80524710Y-104883000D01*
X77661710Y-102020000D01*
X97571928Y-102020000D01*
X97571928Y-103720000D01*
X97584188Y-103844482D01*
X97620498Y-103964180D01*
X97679463Y-104074494D01*
X97758815Y-104171185D01*
X97855506Y-104250537D01*
X97965820Y-104309502D01*
X98046466Y-104333966D01*
X97962412Y-104409731D01*
X97788359Y-104643080D01*
X97663175Y-104905901D01*
X97618524Y-105053110D01*
X97739845Y-105283000D01*
X98933000Y-105283000D01*
X98933000Y-105263000D01*
X99187000Y-105263000D01*
X99187000Y-105283000D01*
X100380155Y-105283000D01*
X100501476Y-105053110D01*
X100456825Y-104905901D01*
X100331641Y-104643080D01*
X100157588Y-104409731D01*
X100073534Y-104333966D01*
X100154180Y-104309502D01*
X100264494Y-104250537D01*
X100361185Y-104171185D01*
X100440537Y-104074494D01*
X100499502Y-103964180D01*
X100535812Y-103844482D01*
X100548072Y-103720000D01*
X100548072Y-102020000D01*
X100535812Y-101895518D01*
X100499502Y-101775820D01*
X100440537Y-101665506D01*
X100361185Y-101568815D01*
X100264494Y-101489463D01*
X100154180Y-101430498D01*
X100034482Y-101394188D01*
X99910000Y-101381928D01*
X98210000Y-101381928D01*
X98085518Y-101394188D01*
X97965820Y-101430498D01*
X97855506Y-101489463D01*
X97758815Y-101568815D01*
X97679463Y-101665506D01*
X97620498Y-101775820D01*
X97584188Y-101895518D01*
X97571928Y-102020000D01*
X77661710Y-102020000D01*
X77317600Y-101675891D01*
X77317600Y-100803111D01*
X77384937Y-100735774D01*
X77498205Y-100566256D01*
X77576226Y-100377898D01*
X77616000Y-100177939D01*
X77616000Y-99974061D01*
X77576226Y-99774102D01*
X77498205Y-99585744D01*
X77384937Y-99416226D01*
X77240774Y-99272063D01*
X77071256Y-99158795D01*
X76882898Y-99080774D01*
X76682939Y-99041000D01*
X76584654Y-99041000D01*
X76495937Y-98908226D01*
X76351774Y-98764063D01*
X76182256Y-98650795D01*
X75993898Y-98572774D01*
X75793939Y-98533000D01*
X75590061Y-98533000D01*
X75390102Y-98572774D01*
X75201744Y-98650795D01*
X75032226Y-98764063D01*
X74888063Y-98908226D01*
X74774795Y-99077744D01*
X74696774Y-99266102D01*
X74657000Y-99466061D01*
X71247000Y-99466061D01*
X71247000Y-94107000D01*
X83820000Y-94107000D01*
X83844776Y-94104560D01*
X83868601Y-94097333D01*
X83890557Y-94085597D01*
X83909803Y-94069803D01*
X83925597Y-94050557D01*
X83937333Y-94028601D01*
X83944560Y-94004776D01*
X83947000Y-93980000D01*
X83947000Y-81128816D01*
X84825000Y-81128816D01*
X84825000Y-81431184D01*
X84883989Y-81727743D01*
X84999701Y-82007095D01*
X85167688Y-82258505D01*
X85381495Y-82472312D01*
X85497763Y-82550000D01*
X85381495Y-82627688D01*
X85167688Y-82841495D01*
X84999701Y-83092905D01*
X84883989Y-83372257D01*
X84825000Y-83668816D01*
X84825000Y-83971184D01*
X84883989Y-84267743D01*
X84999701Y-84547095D01*
X85167688Y-84798505D01*
X85381495Y-85012312D01*
X85497763Y-85090000D01*
X85381495Y-85167688D01*
X85167688Y-85381495D01*
X84999701Y-85632905D01*
X84883989Y-85912257D01*
X84825000Y-86208816D01*
X84825000Y-86511184D01*
X84883989Y-86807743D01*
X84999701Y-87087095D01*
X85167688Y-87338505D01*
X85381495Y-87552312D01*
X85497763Y-87630000D01*
X85381495Y-87707688D01*
X85167688Y-87921495D01*
X84999701Y-88172905D01*
X84883989Y-88452257D01*
X84825000Y-88748816D01*
X84825000Y-89051184D01*
X84883989Y-89347743D01*
X84999701Y-89627095D01*
X85167688Y-89878505D01*
X85381495Y-90092312D01*
X85497763Y-90170000D01*
X85381495Y-90247688D01*
X85167688Y-90461495D01*
X84999701Y-90712905D01*
X84883989Y-90992257D01*
X84825000Y-91288816D01*
X84825000Y-91591184D01*
X84883989Y-91887743D01*
X84999701Y-92167095D01*
X85167688Y-92418505D01*
X85381495Y-92632312D01*
X85497763Y-92710000D01*
X85381495Y-92787688D01*
X85167688Y-93001495D01*
X84999701Y-93252905D01*
X84883989Y-93532257D01*
X84825000Y-93828816D01*
X84825000Y-94131184D01*
X84883989Y-94427743D01*
X84999701Y-94707095D01*
X85167688Y-94958505D01*
X85381495Y-95172312D01*
X85497763Y-95250000D01*
X85381495Y-95327688D01*
X85167688Y-95541495D01*
X84999701Y-95792905D01*
X84883989Y-96072257D01*
X84825000Y-96368816D01*
X84825000Y-96671184D01*
X84883989Y-96967743D01*
X84999701Y-97247095D01*
X85167688Y-97498505D01*
X85284127Y-97614944D01*
X85265820Y-97620498D01*
X85155506Y-97679463D01*
X85058815Y-97758815D01*
X84979463Y-97855506D01*
X84920498Y-97965820D01*
X84884188Y-98085518D01*
X84871928Y-98210000D01*
X84871928Y-99910000D01*
X84884188Y-100034482D01*
X84920498Y-100154180D01*
X84979463Y-100264494D01*
X85058815Y-100361185D01*
X85155506Y-100440537D01*
X85265820Y-100499502D01*
X85385518Y-100535812D01*
X85510000Y-100548072D01*
X87210000Y-100548072D01*
X87334482Y-100535812D01*
X87454180Y-100499502D01*
X87564494Y-100440537D01*
X87661185Y-100361185D01*
X87740537Y-100264494D01*
X87799502Y-100154180D01*
X87820393Y-100085313D01*
X87844866Y-100115134D01*
X88070986Y-100300706D01*
X88328966Y-100438599D01*
X88608889Y-100523513D01*
X88827050Y-100545000D01*
X88972950Y-100545000D01*
X89191111Y-100523513D01*
X89471034Y-100438599D01*
X89729014Y-100300706D01*
X89955134Y-100115134D01*
X90140706Y-99889014D01*
X90175201Y-99824477D01*
X90244822Y-99941355D01*
X90439731Y-100157588D01*
X90673080Y-100331641D01*
X90935901Y-100456825D01*
X91083110Y-100501476D01*
X91313000Y-100380155D01*
X91313000Y-99187000D01*
X91293000Y-99187000D01*
X91293000Y-98933000D01*
X91313000Y-98933000D01*
X91313000Y-98913000D01*
X91567000Y-98913000D01*
X91567000Y-98933000D01*
X91587000Y-98933000D01*
X91587000Y-99187000D01*
X91567000Y-99187000D01*
X91567000Y-100380155D01*
X91796890Y-100501476D01*
X91944099Y-100456825D01*
X92206920Y-100331641D01*
X92440269Y-100157588D01*
X92635178Y-99941355D01*
X92704799Y-99824477D01*
X92739294Y-99889014D01*
X92924866Y-100115134D01*
X93150986Y-100300706D01*
X93408966Y-100438599D01*
X93688889Y-100523513D01*
X93907050Y-100545000D01*
X94052950Y-100545000D01*
X94271111Y-100523513D01*
X94551034Y-100438599D01*
X94809014Y-100300706D01*
X95035134Y-100115134D01*
X95220706Y-99889014D01*
X95250000Y-99834209D01*
X95279294Y-99889014D01*
X95464866Y-100115134D01*
X95690986Y-100300706D01*
X95948966Y-100438599D01*
X96228889Y-100523513D01*
X96447050Y-100545000D01*
X96592950Y-100545000D01*
X96811111Y-100523513D01*
X97091034Y-100438599D01*
X97349014Y-100300706D01*
X97575134Y-100115134D01*
X97760706Y-99889014D01*
X97790000Y-99834209D01*
X97819294Y-99889014D01*
X98004866Y-100115134D01*
X98230986Y-100300706D01*
X98488966Y-100438599D01*
X98768889Y-100523513D01*
X98987050Y-100545000D01*
X99132950Y-100545000D01*
X99351111Y-100523513D01*
X99631034Y-100438599D01*
X99889014Y-100300706D01*
X100115134Y-100115134D01*
X100300706Y-99889014D01*
X100438599Y-99631034D01*
X100523513Y-99351111D01*
X100552185Y-99060000D01*
X100523513Y-98768889D01*
X100438599Y-98488966D01*
X100300706Y-98230986D01*
X100115134Y-98004866D01*
X99889014Y-97819294D01*
X99883115Y-97816141D01*
X100038505Y-97712312D01*
X100252312Y-97498505D01*
X100420299Y-97247095D01*
X100536011Y-96967743D01*
X100595000Y-96671184D01*
X100595000Y-96368816D01*
X100536011Y-96072257D01*
X100420299Y-95792905D01*
X100252312Y-95541495D01*
X100038505Y-95327688D01*
X99922237Y-95250000D01*
X100038505Y-95172312D01*
X100252312Y-94958505D01*
X100420299Y-94707095D01*
X100536011Y-94427743D01*
X100595000Y-94131184D01*
X100595000Y-93828816D01*
X100536011Y-93532257D01*
X100420299Y-93252905D01*
X100252312Y-93001495D01*
X100038505Y-92787688D01*
X99922237Y-92710000D01*
X100038505Y-92632312D01*
X100252312Y-92418505D01*
X100420299Y-92167095D01*
X100536011Y-91887743D01*
X100595000Y-91591184D01*
X100595000Y-91288816D01*
X100536011Y-90992257D01*
X100420299Y-90712905D01*
X100252312Y-90461495D01*
X100038505Y-90247688D01*
X99922237Y-90170000D01*
X100038505Y-90092312D01*
X100252312Y-89878505D01*
X100420299Y-89627095D01*
X100536011Y-89347743D01*
X100595000Y-89051184D01*
X100595000Y-88748816D01*
X100536011Y-88452257D01*
X100420299Y-88172905D01*
X100252312Y-87921495D01*
X100038505Y-87707688D01*
X99922237Y-87630000D01*
X100038505Y-87552312D01*
X100252312Y-87338505D01*
X100420299Y-87087095D01*
X100536011Y-86807743D01*
X100595000Y-86511184D01*
X100595000Y-86208816D01*
X100536011Y-85912257D01*
X100420299Y-85632905D01*
X100252312Y-85381495D01*
X100038505Y-85167688D01*
X99922237Y-85090000D01*
X100038505Y-85012312D01*
X100252312Y-84798505D01*
X100420299Y-84547095D01*
X100536011Y-84267743D01*
X100595000Y-83971184D01*
X100595000Y-83668816D01*
X100536011Y-83372257D01*
X100420299Y-83092905D01*
X100252312Y-82841495D01*
X100038505Y-82627688D01*
X99922237Y-82550000D01*
X100038505Y-82472312D01*
X100252312Y-82258505D01*
X100420299Y-82007095D01*
X100536011Y-81727743D01*
X100595000Y-81431184D01*
X100595000Y-81128816D01*
X100536011Y-80832257D01*
X100420299Y-80552905D01*
X100252312Y-80301495D01*
X100038505Y-80087688D01*
X99787095Y-79919701D01*
X99507743Y-79803989D01*
X99211184Y-79745000D01*
X98908816Y-79745000D01*
X98612257Y-79803989D01*
X98332905Y-79919701D01*
X98081495Y-80087688D01*
X97867688Y-80301495D01*
X97790000Y-80417763D01*
X97712312Y-80301495D01*
X97498505Y-80087688D01*
X97247095Y-79919701D01*
X96967743Y-79803989D01*
X96671184Y-79745000D01*
X96368816Y-79745000D01*
X96072257Y-79803989D01*
X95792905Y-79919701D01*
X95541495Y-80087688D01*
X95327688Y-80301495D01*
X95250000Y-80417763D01*
X95172312Y-80301495D01*
X94958505Y-80087688D01*
X94707095Y-79919701D01*
X94427743Y-79803989D01*
X94131184Y-79745000D01*
X93828816Y-79745000D01*
X93532257Y-79803989D01*
X93252905Y-79919701D01*
X93001495Y-80087688D01*
X92787688Y-80301495D01*
X92710000Y-80417763D01*
X92632312Y-80301495D01*
X92418505Y-80087688D01*
X92167095Y-79919701D01*
X91887743Y-79803989D01*
X91591184Y-79745000D01*
X91288816Y-79745000D01*
X90992257Y-79803989D01*
X90712905Y-79919701D01*
X90461495Y-80087688D01*
X90247688Y-80301495D01*
X90170000Y-80417763D01*
X90092312Y-80301495D01*
X89878505Y-80087688D01*
X89627095Y-79919701D01*
X89347743Y-79803989D01*
X89051184Y-79745000D01*
X88748816Y-79745000D01*
X88452257Y-79803989D01*
X88172905Y-79919701D01*
X87921495Y-80087688D01*
X87707688Y-80301495D01*
X87630000Y-80417763D01*
X87552312Y-80301495D01*
X87338505Y-80087688D01*
X87087095Y-79919701D01*
X86807743Y-79803989D01*
X86511184Y-79745000D01*
X86208816Y-79745000D01*
X85912257Y-79803989D01*
X85632905Y-79919701D01*
X85381495Y-80087688D01*
X85167688Y-80301495D01*
X84999701Y-80552905D01*
X84883989Y-80832257D01*
X84825000Y-81128816D01*
X83947000Y-81128816D01*
X83947000Y-78867000D01*
X101473000Y-78867000D01*
X101473000Y-119253000D01*
X101473000Y-119253000D01*
G37*
X101473000Y-119253000D02*
X71247000Y-119253000D01*
X71247000Y-107340061D01*
X72497998Y-107340061D01*
X72497998Y-107543939D01*
X72537772Y-107743898D01*
X72615793Y-107932256D01*
X72729061Y-108101774D01*
X72796398Y-108169111D01*
X72796398Y-108320217D01*
X72792834Y-108356400D01*
X72796398Y-108392583D01*
X72796398Y-108392585D01*
X72807056Y-108500798D01*
X72849176Y-108639648D01*
X72917574Y-108767612D01*
X73009623Y-108879774D01*
X73037730Y-108902841D01*
X73824756Y-109689868D01*
X73847824Y-109717976D01*
X73959986Y-109810025D01*
X74087950Y-109878423D01*
X74127173Y-109890321D01*
X74046775Y-110040736D01*
X73961084Y-110323223D01*
X73932149Y-110617000D01*
X73961084Y-110910777D01*
X74046775Y-111193264D01*
X74185931Y-111453606D01*
X74373203Y-111681797D01*
X74601394Y-111869069D01*
X74634940Y-111887000D01*
X74601394Y-111904931D01*
X74373203Y-112092203D01*
X74185931Y-112320394D01*
X74046775Y-112580736D01*
X73961084Y-112863223D01*
X73932149Y-113157000D01*
X73961084Y-113450777D01*
X74046775Y-113733264D01*
X74185931Y-113993606D01*
X74373203Y-114221797D01*
X74601394Y-114409069D01*
X74861736Y-114548225D01*
X75144223Y-114633916D01*
X75364381Y-114655600D01*
X75511619Y-114655600D01*
X75731777Y-114633916D01*
X76014264Y-114548225D01*
X76274606Y-114409069D01*
X76502797Y-114221797D01*
X76690069Y-113993606D01*
X76708000Y-113960060D01*
X76725931Y-113993606D01*
X76913203Y-114221797D01*
X77141394Y-114409069D01*
X77401736Y-114548225D01*
X77684223Y-114633916D01*
X77904381Y-114655600D01*
X78051619Y-114655600D01*
X78271777Y-114633916D01*
X78554264Y-114548225D01*
X78814606Y-114409069D01*
X79042797Y-114221797D01*
X79230069Y-113993606D01*
X79369225Y-113733264D01*
X79454916Y-113450777D01*
X79483851Y-113157000D01*
X79454916Y-112863223D01*
X79369225Y-112580736D01*
X79230069Y-112320394D01*
X79042797Y-112092203D01*
X78814606Y-111904931D01*
X78781060Y-111887000D01*
X78814606Y-111869069D01*
X79042797Y-111681797D01*
X79230069Y-111453606D01*
X79369225Y-111193264D01*
X79454916Y-110910777D01*
X79483851Y-110617000D01*
X79454916Y-110323223D01*
X79369225Y-110040736D01*
X79230069Y-109780394D01*
X79042797Y-109552203D01*
X78814606Y-109364931D01*
X78770090Y-109341137D01*
X78866488Y-109283817D01*
X79084854Y-109087293D01*
X79156749Y-108991061D01*
X81261000Y-108991061D01*
X81261000Y-109194939D01*
X81300774Y-109394898D01*
X81378795Y-109583256D01*
X81492063Y-109752774D01*
X81636226Y-109896937D01*
X81805744Y-110010205D01*
X81994102Y-110088226D01*
X82194061Y-110128000D01*
X82289291Y-110128000D01*
X83718401Y-111557111D01*
X83718400Y-115549898D01*
X83625986Y-115599294D01*
X83399866Y-115784866D01*
X83214294Y-116010986D01*
X83076401Y-116268966D01*
X82991487Y-116548889D01*
X82962815Y-116840000D01*
X82991487Y-117131111D01*
X83076401Y-117411034D01*
X83214294Y-117669014D01*
X83399866Y-117895134D01*
X83625986Y-118080706D01*
X83732100Y-118137425D01*
X83771178Y-118266248D01*
X83839576Y-118394212D01*
X83931625Y-118506374D01*
X84043787Y-118598424D01*
X84171751Y-118666822D01*
X84310601Y-118708942D01*
X84455000Y-118723164D01*
X84599398Y-118708942D01*
X84738248Y-118666822D01*
X84866212Y-118598424D01*
X84978374Y-118506375D01*
X85070424Y-118394213D01*
X85138822Y-118266249D01*
X85177901Y-118137425D01*
X85284014Y-118080706D01*
X85510134Y-117895134D01*
X85695706Y-117669014D01*
X85730201Y-117604477D01*
X85799822Y-117721355D01*
X85994731Y-117937588D01*
X86228080Y-118111641D01*
X86490901Y-118236825D01*
X86638110Y-118281476D01*
X86868000Y-118160155D01*
X86868000Y-116967000D01*
X86848000Y-116967000D01*
X86848000Y-116713000D01*
X86868000Y-116713000D01*
X86868000Y-115519845D01*
X87122000Y-115519845D01*
X87122000Y-116713000D01*
X87142000Y-116713000D01*
X87142000Y-116967000D01*
X87122000Y-116967000D01*
X87122000Y-118160155D01*
X87351890Y-118281476D01*
X87499099Y-118236825D01*
X87761920Y-118111641D01*
X87995269Y-117937588D01*
X88071034Y-117853534D01*
X88095498Y-117934180D01*
X88154463Y-118044494D01*
X88233815Y-118141185D01*
X88330506Y-118220537D01*
X88440820Y-118279502D01*
X88560518Y-118315812D01*
X88685000Y-118328072D01*
X90385000Y-118328072D01*
X90509482Y-118315812D01*
X90629180Y-118279502D01*
X90739494Y-118220537D01*
X90836185Y-118141185D01*
X90915537Y-118044494D01*
X90974502Y-117934180D01*
X91010812Y-117814482D01*
X91023072Y-117690000D01*
X91023072Y-115990000D01*
X91010812Y-115865518D01*
X90974502Y-115745820D01*
X90915537Y-115635506D01*
X90836185Y-115538815D01*
X90739494Y-115459463D01*
X90629180Y-115400498D01*
X90509482Y-115364188D01*
X90385000Y-115351928D01*
X88685000Y-115351928D01*
X88560518Y-115364188D01*
X88440820Y-115400498D01*
X88330506Y-115459463D01*
X88233815Y-115538815D01*
X88154463Y-115635506D01*
X88095498Y-115745820D01*
X88071034Y-115826466D01*
X87995269Y-115742412D01*
X87761920Y-115568359D01*
X87499099Y-115443175D01*
X87351890Y-115398524D01*
X87122000Y-115519845D01*
X86868000Y-115519845D01*
X86638110Y-115398524D01*
X86490901Y-115443175D01*
X86228080Y-115568359D01*
X85994731Y-115742412D01*
X85799822Y-115958645D01*
X85730201Y-116075523D01*
X85695706Y-116010986D01*
X85510134Y-115784866D01*
X85284014Y-115599294D01*
X85191600Y-115549898D01*
X85191600Y-113563061D01*
X87230000Y-113563061D01*
X87230000Y-113766939D01*
X87269774Y-113966898D01*
X87347795Y-114155256D01*
X87461063Y-114324774D01*
X87605226Y-114468937D01*
X87774744Y-114582205D01*
X87963102Y-114660226D01*
X88163061Y-114700000D01*
X88366939Y-114700000D01*
X88566898Y-114660226D01*
X88755256Y-114582205D01*
X88924774Y-114468937D01*
X89068937Y-114324774D01*
X89182205Y-114155256D01*
X89260226Y-113966898D01*
X89300000Y-113766939D01*
X89300000Y-113671709D01*
X91173268Y-111798441D01*
X91201374Y-111775375D01*
X91293424Y-111663213D01*
X91361822Y-111535249D01*
X91403942Y-111396399D01*
X91414600Y-111288186D01*
X91414600Y-111288177D01*
X91418163Y-111252001D01*
X91414600Y-111215825D01*
X91414600Y-108296111D01*
X91481937Y-108228774D01*
X91595205Y-108059256D01*
X91640460Y-107950000D01*
X97567815Y-107950000D01*
X97596487Y-108241111D01*
X97681401Y-108521034D01*
X97819294Y-108779014D01*
X98004866Y-109005134D01*
X98230986Y-109190706D01*
X98285791Y-109220000D01*
X98230986Y-109249294D01*
X98004866Y-109434866D01*
X97819294Y-109660986D01*
X97681401Y-109918966D01*
X97596487Y-110198889D01*
X97567815Y-110490000D01*
X97596487Y-110781111D01*
X97681401Y-111061034D01*
X97819294Y-111319014D01*
X98004866Y-111545134D01*
X98230986Y-111730706D01*
X98285791Y-111760000D01*
X98230986Y-111789294D01*
X98004866Y-111974866D01*
X97819294Y-112200986D01*
X97681401Y-112458966D01*
X97596487Y-112738889D01*
X97567815Y-113030000D01*
X97596487Y-113321111D01*
X97681401Y-113601034D01*
X97819294Y-113859014D01*
X98004866Y-114085134D01*
X98230986Y-114270706D01*
X98488966Y-114408599D01*
X98768889Y-114493513D01*
X98987050Y-114515000D01*
X99132950Y-114515000D01*
X99351111Y-114493513D01*
X99631034Y-114408599D01*
X99889014Y-114270706D01*
X100115134Y-114085134D01*
X100300706Y-113859014D01*
X100438599Y-113601034D01*
X100523513Y-113321111D01*
X100552185Y-113030000D01*
X100523513Y-112738889D01*
X100438599Y-112458966D01*
X100300706Y-112200986D01*
X100115134Y-111974866D01*
X99889014Y-111789294D01*
X99834209Y-111760000D01*
X99889014Y-111730706D01*
X100115134Y-111545134D01*
X100300706Y-111319014D01*
X100438599Y-111061034D01*
X100523513Y-110781111D01*
X100552185Y-110490000D01*
X100523513Y-110198889D01*
X100438599Y-109918966D01*
X100300706Y-109660986D01*
X100115134Y-109434866D01*
X99889014Y-109249294D01*
X99834209Y-109220000D01*
X99889014Y-109190706D01*
X100115134Y-109005134D01*
X100300706Y-108779014D01*
X100438599Y-108521034D01*
X100523513Y-108241111D01*
X100552185Y-107950000D01*
X100523513Y-107658889D01*
X100438599Y-107378966D01*
X100300706Y-107120986D01*
X100115134Y-106894866D01*
X99889014Y-106709294D01*
X99824477Y-106674799D01*
X99941355Y-106605178D01*
X100157588Y-106410269D01*
X100331641Y-106176920D01*
X100456825Y-105914099D01*
X100501476Y-105766890D01*
X100380155Y-105537000D01*
X99187000Y-105537000D01*
X99187000Y-105557000D01*
X98933000Y-105557000D01*
X98933000Y-105537000D01*
X97739845Y-105537000D01*
X97618524Y-105766890D01*
X97663175Y-105914099D01*
X97788359Y-106176920D01*
X97962412Y-106410269D01*
X98178645Y-106605178D01*
X98295523Y-106674799D01*
X98230986Y-106709294D01*
X98004866Y-106894866D01*
X97819294Y-107120986D01*
X97681401Y-107378966D01*
X97596487Y-107658889D01*
X97567815Y-107950000D01*
X91640460Y-107950000D01*
X91673226Y-107870898D01*
X91713000Y-107670939D01*
X91713000Y-107467061D01*
X91673226Y-107267102D01*
X91595205Y-107078744D01*
X91481937Y-106909226D01*
X91337774Y-106765063D01*
X91168256Y-106651795D01*
X90979898Y-106573774D01*
X90779939Y-106534000D01*
X90576061Y-106534000D01*
X90376102Y-106573774D01*
X90187744Y-106651795D01*
X90018226Y-106765063D01*
X89874063Y-106909226D01*
X89760795Y-107078744D01*
X89682774Y-107267102D01*
X89643000Y-107467061D01*
X89643000Y-107670939D01*
X89682774Y-107870898D01*
X89760795Y-108059256D01*
X89874063Y-108228774D01*
X89941401Y-108296112D01*
X89941400Y-110946891D01*
X88258291Y-112630000D01*
X88163061Y-112630000D01*
X87963102Y-112669774D01*
X87774744Y-112747795D01*
X87605226Y-112861063D01*
X87461063Y-113005226D01*
X87347795Y-113174744D01*
X87269774Y-113363102D01*
X87230000Y-113563061D01*
X85191600Y-113563061D01*
X85191600Y-111288175D01*
X85195163Y-111251999D01*
X85191600Y-111215823D01*
X85191600Y-111215814D01*
X85180942Y-111107601D01*
X85138822Y-110968751D01*
X85070424Y-110840787D01*
X84978375Y-110728625D01*
X84950269Y-110705559D01*
X83331000Y-109086291D01*
X83331000Y-108991061D01*
X83291226Y-108791102D01*
X83213205Y-108602744D01*
X83099937Y-108433226D01*
X82955774Y-108289063D01*
X82786256Y-108175795D01*
X82597898Y-108097774D01*
X82397939Y-108058000D01*
X82194061Y-108058000D01*
X81994102Y-108097774D01*
X81805744Y-108175795D01*
X81636226Y-108289063D01*
X81492063Y-108433226D01*
X81378795Y-108602744D01*
X81300774Y-108791102D01*
X81261000Y-108991061D01*
X79156749Y-108991061D01*
X79260684Y-108851944D01*
X79387222Y-108586814D01*
X79432958Y-108436026D01*
X79311817Y-108204000D01*
X78105000Y-108204000D01*
X78105000Y-108224000D01*
X77851000Y-108224000D01*
X77851000Y-108204000D01*
X77831000Y-108204000D01*
X77831000Y-107950000D01*
X77851000Y-107950000D01*
X77851000Y-106742536D01*
X77618973Y-106622037D01*
X77342022Y-106720036D01*
X77089512Y-106870183D01*
X76910053Y-107031692D01*
X76891102Y-106969220D01*
X76832137Y-106858906D01*
X76752785Y-106762215D01*
X76656094Y-106682863D01*
X76545780Y-106623898D01*
X76426082Y-106587588D01*
X76301600Y-106575328D01*
X74574400Y-106575328D01*
X74449918Y-106587588D01*
X74330220Y-106623898D01*
X74231418Y-106676709D01*
X74192772Y-106638063D01*
X74023254Y-106524795D01*
X73834896Y-106446774D01*
X73634937Y-106407000D01*
X73431059Y-106407000D01*
X73231100Y-106446774D01*
X73042742Y-106524795D01*
X72873224Y-106638063D01*
X72729061Y-106782226D01*
X72615793Y-106951744D01*
X72537772Y-107140102D01*
X72497998Y-107340061D01*
X71247000Y-107340061D01*
X71247000Y-99466061D01*
X74657000Y-99466061D01*
X74657000Y-99669939D01*
X74696774Y-99869898D01*
X74774795Y-100058256D01*
X74888063Y-100227774D01*
X74955400Y-100295111D01*
X74955401Y-102579807D01*
X74951836Y-102616000D01*
X74960794Y-102706942D01*
X74966059Y-102760399D01*
X75008179Y-102899249D01*
X75076577Y-103027213D01*
X75168626Y-103139375D01*
X75196732Y-103162441D01*
X78848000Y-106813710D01*
X78848000Y-106859190D01*
X78613978Y-106720036D01*
X78337027Y-106622037D01*
X78105000Y-106742536D01*
X78105000Y-107950000D01*
X79311817Y-107950000D01*
X79423133Y-107736793D01*
X79581102Y-107802226D01*
X79781061Y-107842000D01*
X79984939Y-107842000D01*
X80184898Y-107802226D01*
X80373256Y-107724205D01*
X80542774Y-107610937D01*
X80686937Y-107466774D01*
X80800205Y-107297256D01*
X80878226Y-107108898D01*
X80918000Y-106908939D01*
X80918000Y-106872591D01*
X81008256Y-106835205D01*
X81177774Y-106721937D01*
X81321937Y-106577774D01*
X81435205Y-106408256D01*
X81513226Y-106219898D01*
X81553000Y-106019939D01*
X81553000Y-105816061D01*
X81513226Y-105616102D01*
X81435205Y-105427744D01*
X81321937Y-105258226D01*
X81177774Y-105114063D01*
X81008256Y-105000795D01*
X80819898Y-104922774D01*
X80619939Y-104883000D01*
X80524710Y-104883000D01*
X77661710Y-102020000D01*
X97571928Y-102020000D01*
X97571928Y-103720000D01*
X97584188Y-103844482D01*
X97620498Y-103964180D01*
X97679463Y-104074494D01*
X97758815Y-104171185D01*
X97855506Y-104250537D01*
X97965820Y-104309502D01*
X98046466Y-104333966D01*
X97962412Y-104409731D01*
X97788359Y-104643080D01*
X97663175Y-104905901D01*
X97618524Y-105053110D01*
X97739845Y-105283000D01*
X98933000Y-105283000D01*
X98933000Y-105263000D01*
X99187000Y-105263000D01*
X99187000Y-105283000D01*
X100380155Y-105283000D01*
X100501476Y-105053110D01*
X100456825Y-104905901D01*
X100331641Y-104643080D01*
X100157588Y-104409731D01*
X100073534Y-104333966D01*
X100154180Y-104309502D01*
X100264494Y-104250537D01*
X100361185Y-104171185D01*
X100440537Y-104074494D01*
X100499502Y-103964180D01*
X100535812Y-103844482D01*
X100548072Y-103720000D01*
X100548072Y-102020000D01*
X100535812Y-101895518D01*
X100499502Y-101775820D01*
X100440537Y-101665506D01*
X100361185Y-101568815D01*
X100264494Y-101489463D01*
X100154180Y-101430498D01*
X100034482Y-101394188D01*
X99910000Y-101381928D01*
X98210000Y-101381928D01*
X98085518Y-101394188D01*
X97965820Y-101430498D01*
X97855506Y-101489463D01*
X97758815Y-101568815D01*
X97679463Y-101665506D01*
X97620498Y-101775820D01*
X97584188Y-101895518D01*
X97571928Y-102020000D01*
X77661710Y-102020000D01*
X77317600Y-101675891D01*
X77317600Y-100803111D01*
X77384937Y-100735774D01*
X77498205Y-100566256D01*
X77576226Y-100377898D01*
X77616000Y-100177939D01*
X77616000Y-99974061D01*
X77576226Y-99774102D01*
X77498205Y-99585744D01*
X77384937Y-99416226D01*
X77240774Y-99272063D01*
X77071256Y-99158795D01*
X76882898Y-99080774D01*
X76682939Y-99041000D01*
X76584654Y-99041000D01*
X76495937Y-98908226D01*
X76351774Y-98764063D01*
X76182256Y-98650795D01*
X75993898Y-98572774D01*
X75793939Y-98533000D01*
X75590061Y-98533000D01*
X75390102Y-98572774D01*
X75201744Y-98650795D01*
X75032226Y-98764063D01*
X74888063Y-98908226D01*
X74774795Y-99077744D01*
X74696774Y-99266102D01*
X74657000Y-99466061D01*
X71247000Y-99466061D01*
X71247000Y-94107000D01*
X83820000Y-94107000D01*
X83844776Y-94104560D01*
X83868601Y-94097333D01*
X83890557Y-94085597D01*
X83909803Y-94069803D01*
X83925597Y-94050557D01*
X83937333Y-94028601D01*
X83944560Y-94004776D01*
X83947000Y-93980000D01*
X83947000Y-81128816D01*
X84825000Y-81128816D01*
X84825000Y-81431184D01*
X84883989Y-81727743D01*
X84999701Y-82007095D01*
X85167688Y-82258505D01*
X85381495Y-82472312D01*
X85497763Y-82550000D01*
X85381495Y-82627688D01*
X85167688Y-82841495D01*
X84999701Y-83092905D01*
X84883989Y-83372257D01*
X84825000Y-83668816D01*
X84825000Y-83971184D01*
X84883989Y-84267743D01*
X84999701Y-84547095D01*
X85167688Y-84798505D01*
X85381495Y-85012312D01*
X85497763Y-85090000D01*
X85381495Y-85167688D01*
X85167688Y-85381495D01*
X84999701Y-85632905D01*
X84883989Y-85912257D01*
X84825000Y-86208816D01*
X84825000Y-86511184D01*
X84883989Y-86807743D01*
X84999701Y-87087095D01*
X85167688Y-87338505D01*
X85381495Y-87552312D01*
X85497763Y-87630000D01*
X85381495Y-87707688D01*
X85167688Y-87921495D01*
X84999701Y-88172905D01*
X84883989Y-88452257D01*
X84825000Y-88748816D01*
X84825000Y-89051184D01*
X84883989Y-89347743D01*
X84999701Y-89627095D01*
X85167688Y-89878505D01*
X85381495Y-90092312D01*
X85497763Y-90170000D01*
X85381495Y-90247688D01*
X85167688Y-90461495D01*
X84999701Y-90712905D01*
X84883989Y-90992257D01*
X84825000Y-91288816D01*
X84825000Y-91591184D01*
X84883989Y-91887743D01*
X84999701Y-92167095D01*
X85167688Y-92418505D01*
X85381495Y-92632312D01*
X85497763Y-92710000D01*
X85381495Y-92787688D01*
X85167688Y-93001495D01*
X84999701Y-93252905D01*
X84883989Y-93532257D01*
X84825000Y-93828816D01*
X84825000Y-94131184D01*
X84883989Y-94427743D01*
X84999701Y-94707095D01*
X85167688Y-94958505D01*
X85381495Y-95172312D01*
X85497763Y-95250000D01*
X85381495Y-95327688D01*
X85167688Y-95541495D01*
X84999701Y-95792905D01*
X84883989Y-96072257D01*
X84825000Y-96368816D01*
X84825000Y-96671184D01*
X84883989Y-96967743D01*
X84999701Y-97247095D01*
X85167688Y-97498505D01*
X85284127Y-97614944D01*
X85265820Y-97620498D01*
X85155506Y-97679463D01*
X85058815Y-97758815D01*
X84979463Y-97855506D01*
X84920498Y-97965820D01*
X84884188Y-98085518D01*
X84871928Y-98210000D01*
X84871928Y-99910000D01*
X84884188Y-100034482D01*
X84920498Y-100154180D01*
X84979463Y-100264494D01*
X85058815Y-100361185D01*
X85155506Y-100440537D01*
X85265820Y-100499502D01*
X85385518Y-100535812D01*
X85510000Y-100548072D01*
X87210000Y-100548072D01*
X87334482Y-100535812D01*
X87454180Y-100499502D01*
X87564494Y-100440537D01*
X87661185Y-100361185D01*
X87740537Y-100264494D01*
X87799502Y-100154180D01*
X87820393Y-100085313D01*
X87844866Y-100115134D01*
X88070986Y-100300706D01*
X88328966Y-100438599D01*
X88608889Y-100523513D01*
X88827050Y-100545000D01*
X88972950Y-100545000D01*
X89191111Y-100523513D01*
X89471034Y-100438599D01*
X89729014Y-100300706D01*
X89955134Y-100115134D01*
X90140706Y-99889014D01*
X90175201Y-99824477D01*
X90244822Y-99941355D01*
X90439731Y-100157588D01*
X90673080Y-100331641D01*
X90935901Y-100456825D01*
X91083110Y-100501476D01*
X91313000Y-100380155D01*
X91313000Y-99187000D01*
X91293000Y-99187000D01*
X91293000Y-98933000D01*
X91313000Y-98933000D01*
X91313000Y-98913000D01*
X91567000Y-98913000D01*
X91567000Y-98933000D01*
X91587000Y-98933000D01*
X91587000Y-99187000D01*
X91567000Y-99187000D01*
X91567000Y-100380155D01*
X91796890Y-100501476D01*
X91944099Y-100456825D01*
X92206920Y-100331641D01*
X92440269Y-100157588D01*
X92635178Y-99941355D01*
X92704799Y-99824477D01*
X92739294Y-99889014D01*
X92924866Y-100115134D01*
X93150986Y-100300706D01*
X93408966Y-100438599D01*
X93688889Y-100523513D01*
X93907050Y-100545000D01*
X94052950Y-100545000D01*
X94271111Y-100523513D01*
X94551034Y-100438599D01*
X94809014Y-100300706D01*
X95035134Y-100115134D01*
X95220706Y-99889014D01*
X95250000Y-99834209D01*
X95279294Y-99889014D01*
X95464866Y-100115134D01*
X95690986Y-100300706D01*
X95948966Y-100438599D01*
X96228889Y-100523513D01*
X96447050Y-100545000D01*
X96592950Y-100545000D01*
X96811111Y-100523513D01*
X97091034Y-100438599D01*
X97349014Y-100300706D01*
X97575134Y-100115134D01*
X97760706Y-99889014D01*
X97790000Y-99834209D01*
X97819294Y-99889014D01*
X98004866Y-100115134D01*
X98230986Y-100300706D01*
X98488966Y-100438599D01*
X98768889Y-100523513D01*
X98987050Y-100545000D01*
X99132950Y-100545000D01*
X99351111Y-100523513D01*
X99631034Y-100438599D01*
X99889014Y-100300706D01*
X100115134Y-100115134D01*
X100300706Y-99889014D01*
X100438599Y-99631034D01*
X100523513Y-99351111D01*
X100552185Y-99060000D01*
X100523513Y-98768889D01*
X100438599Y-98488966D01*
X100300706Y-98230986D01*
X100115134Y-98004866D01*
X99889014Y-97819294D01*
X99883115Y-97816141D01*
X100038505Y-97712312D01*
X100252312Y-97498505D01*
X100420299Y-97247095D01*
X100536011Y-96967743D01*
X100595000Y-96671184D01*
X100595000Y-96368816D01*
X100536011Y-96072257D01*
X100420299Y-95792905D01*
X100252312Y-95541495D01*
X100038505Y-95327688D01*
X99922237Y-95250000D01*
X100038505Y-95172312D01*
X100252312Y-94958505D01*
X100420299Y-94707095D01*
X100536011Y-94427743D01*
X100595000Y-94131184D01*
X100595000Y-93828816D01*
X100536011Y-93532257D01*
X100420299Y-93252905D01*
X100252312Y-93001495D01*
X100038505Y-92787688D01*
X99922237Y-92710000D01*
X100038505Y-92632312D01*
X100252312Y-92418505D01*
X100420299Y-92167095D01*
X100536011Y-91887743D01*
X100595000Y-91591184D01*
X100595000Y-91288816D01*
X100536011Y-90992257D01*
X100420299Y-90712905D01*
X100252312Y-90461495D01*
X100038505Y-90247688D01*
X99922237Y-90170000D01*
X100038505Y-90092312D01*
X100252312Y-89878505D01*
X100420299Y-89627095D01*
X100536011Y-89347743D01*
X100595000Y-89051184D01*
X100595000Y-88748816D01*
X100536011Y-88452257D01*
X100420299Y-88172905D01*
X100252312Y-87921495D01*
X100038505Y-87707688D01*
X99922237Y-87630000D01*
X100038505Y-87552312D01*
X100252312Y-87338505D01*
X100420299Y-87087095D01*
X100536011Y-86807743D01*
X100595000Y-86511184D01*
X100595000Y-86208816D01*
X100536011Y-85912257D01*
X100420299Y-85632905D01*
X100252312Y-85381495D01*
X100038505Y-85167688D01*
X99922237Y-85090000D01*
X100038505Y-85012312D01*
X100252312Y-84798505D01*
X100420299Y-84547095D01*
X100536011Y-84267743D01*
X100595000Y-83971184D01*
X100595000Y-83668816D01*
X100536011Y-83372257D01*
X100420299Y-83092905D01*
X100252312Y-82841495D01*
X100038505Y-82627688D01*
X99922237Y-82550000D01*
X100038505Y-82472312D01*
X100252312Y-82258505D01*
X100420299Y-82007095D01*
X100536011Y-81727743D01*
X100595000Y-81431184D01*
X100595000Y-81128816D01*
X100536011Y-80832257D01*
X100420299Y-80552905D01*
X100252312Y-80301495D01*
X100038505Y-80087688D01*
X99787095Y-79919701D01*
X99507743Y-79803989D01*
X99211184Y-79745000D01*
X98908816Y-79745000D01*
X98612257Y-79803989D01*
X98332905Y-79919701D01*
X98081495Y-80087688D01*
X97867688Y-80301495D01*
X97790000Y-80417763D01*
X97712312Y-80301495D01*
X97498505Y-80087688D01*
X97247095Y-79919701D01*
X96967743Y-79803989D01*
X96671184Y-79745000D01*
X96368816Y-79745000D01*
X96072257Y-79803989D01*
X95792905Y-79919701D01*
X95541495Y-80087688D01*
X95327688Y-80301495D01*
X95250000Y-80417763D01*
X95172312Y-80301495D01*
X94958505Y-80087688D01*
X94707095Y-79919701D01*
X94427743Y-79803989D01*
X94131184Y-79745000D01*
X93828816Y-79745000D01*
X93532257Y-79803989D01*
X93252905Y-79919701D01*
X93001495Y-80087688D01*
X92787688Y-80301495D01*
X92710000Y-80417763D01*
X92632312Y-80301495D01*
X92418505Y-80087688D01*
X92167095Y-79919701D01*
X91887743Y-79803989D01*
X91591184Y-79745000D01*
X91288816Y-79745000D01*
X90992257Y-79803989D01*
X90712905Y-79919701D01*
X90461495Y-80087688D01*
X90247688Y-80301495D01*
X90170000Y-80417763D01*
X90092312Y-80301495D01*
X89878505Y-80087688D01*
X89627095Y-79919701D01*
X89347743Y-79803989D01*
X89051184Y-79745000D01*
X88748816Y-79745000D01*
X88452257Y-79803989D01*
X88172905Y-79919701D01*
X87921495Y-80087688D01*
X87707688Y-80301495D01*
X87630000Y-80417763D01*
X87552312Y-80301495D01*
X87338505Y-80087688D01*
X87087095Y-79919701D01*
X86807743Y-79803989D01*
X86511184Y-79745000D01*
X86208816Y-79745000D01*
X85912257Y-79803989D01*
X85632905Y-79919701D01*
X85381495Y-80087688D01*
X85167688Y-80301495D01*
X84999701Y-80552905D01*
X84883989Y-80832257D01*
X84825000Y-81128816D01*
X83947000Y-81128816D01*
X83947000Y-78867000D01*
X101473000Y-78867000D01*
X101473000Y-119253000D01*
M02*
