G04 #@! TF.GenerationSoftware,KiCad,Pcbnew,5.1.2*
G04 #@! TF.CreationDate,2019-05-25T23:05:01-04:00*
G04 #@! TF.ProjectId,skateboardController,736b6174-6562-46f6-9172-64436f6e7472,rev?*
G04 #@! TF.SameCoordinates,Original*
G04 #@! TF.FileFunction,Legend,Top*
G04 #@! TF.FilePolarity,Positive*
%FSLAX46Y46*%
G04 Gerber Fmt 4.6, Leading zero omitted, Abs format (unit mm)*
G04 Created by KiCad (PCBNEW 5.1.2) date 2019-05-25 23:05:01*
%MOMM*%
%LPD*%
G04 APERTURE LIST*
%ADD10C,0.150000*%
%ADD11C,0.120000*%
%ADD12C,0.254000*%
%ADD13C,0.250000*%
G04 APERTURE END LIST*
D10*
X85394800Y-104444800D02*
X91389200Y-104444800D01*
X85394800Y-111455200D02*
X85394800Y-104444800D01*
X92379800Y-111455200D02*
X85394800Y-111455200D01*
X92405200Y-105460800D02*
X92405200Y-111455200D01*
X91389200Y-104444800D02*
X92405200Y-105460800D01*
X77724047Y-115006428D02*
X78485952Y-115006428D01*
X77724047Y-106116428D02*
X78485952Y-106116428D01*
X78105000Y-106497380D02*
X78105000Y-105735476D01*
X95781904Y-102052380D02*
X95781904Y-101052380D01*
X96020000Y-101052380D01*
X96162857Y-101100000D01*
X96258095Y-101195238D01*
X96305714Y-101290476D01*
X96353333Y-101480952D01*
X96353333Y-101623809D01*
X96305714Y-101814285D01*
X96258095Y-101909523D01*
X96162857Y-102004761D01*
X96020000Y-102052380D01*
X95781904Y-102052380D01*
X97210476Y-101385714D02*
X97210476Y-102052380D01*
X96972380Y-101004761D02*
X96734285Y-101719047D01*
X97353333Y-101719047D01*
X85955238Y-101528571D02*
X86098095Y-101576190D01*
X86145714Y-101623809D01*
X86193333Y-101719047D01*
X86193333Y-101861904D01*
X86145714Y-101957142D01*
X86098095Y-102004761D01*
X86002857Y-102052380D01*
X85621904Y-102052380D01*
X85621904Y-101052380D01*
X85955238Y-101052380D01*
X86050476Y-101100000D01*
X86098095Y-101147619D01*
X86145714Y-101242857D01*
X86145714Y-101338095D01*
X86098095Y-101433333D01*
X86050476Y-101480952D01*
X85955238Y-101528571D01*
X85621904Y-101528571D01*
X86526666Y-101052380D02*
X87193333Y-101052380D01*
X86764761Y-102052380D01*
X88495238Y-101528571D02*
X88638095Y-101576190D01*
X88685714Y-101623809D01*
X88733333Y-101719047D01*
X88733333Y-101861904D01*
X88685714Y-101957142D01*
X88638095Y-102004761D01*
X88542857Y-102052380D01*
X88161904Y-102052380D01*
X88161904Y-101052380D01*
X88495238Y-101052380D01*
X88590476Y-101100000D01*
X88638095Y-101147619D01*
X88685714Y-101242857D01*
X88685714Y-101338095D01*
X88638095Y-101433333D01*
X88590476Y-101480952D01*
X88495238Y-101528571D01*
X88161904Y-101528571D01*
X89590476Y-101052380D02*
X89400000Y-101052380D01*
X89304761Y-101100000D01*
X89257142Y-101147619D01*
X89161904Y-101290476D01*
X89114285Y-101480952D01*
X89114285Y-101861904D01*
X89161904Y-101957142D01*
X89209523Y-102004761D01*
X89304761Y-102052380D01*
X89495238Y-102052380D01*
X89590476Y-102004761D01*
X89638095Y-101957142D01*
X89685714Y-101861904D01*
X89685714Y-101623809D01*
X89638095Y-101528571D01*
X89590476Y-101480952D01*
X89495238Y-101433333D01*
X89304761Y-101433333D01*
X89209523Y-101480952D01*
X89161904Y-101528571D01*
X89114285Y-101623809D01*
X90487619Y-101052380D02*
X90820952Y-102052380D01*
X91154285Y-101052380D01*
X91487619Y-101671428D02*
X92249523Y-101671428D01*
X91868571Y-102052380D02*
X91868571Y-101290476D01*
X93218095Y-101100000D02*
X93122857Y-101052380D01*
X92980000Y-101052380D01*
X92837142Y-101100000D01*
X92741904Y-101195238D01*
X92694285Y-101290476D01*
X92646666Y-101480952D01*
X92646666Y-101623809D01*
X92694285Y-101814285D01*
X92741904Y-101909523D01*
X92837142Y-102004761D01*
X92980000Y-102052380D01*
X93075238Y-102052380D01*
X93218095Y-102004761D01*
X93265714Y-101957142D01*
X93265714Y-101623809D01*
X93075238Y-101623809D01*
X93694285Y-102052380D02*
X93694285Y-101052380D01*
X94265714Y-102052380D01*
X94265714Y-101052380D01*
X94741904Y-102052380D02*
X94741904Y-101052380D01*
X94980000Y-101052380D01*
X95122857Y-101100000D01*
X95218095Y-101195238D01*
X95265714Y-101290476D01*
X95313333Y-101480952D01*
X95313333Y-101623809D01*
X95265714Y-101814285D01*
X95218095Y-101909523D01*
X95122857Y-102004761D01*
X94980000Y-102052380D01*
X94741904Y-102052380D01*
D11*
X100390000Y-100390000D02*
X100390000Y-97730000D01*
X87630000Y-100390000D02*
X100390000Y-100390000D01*
X87630000Y-97730000D02*
X100390000Y-97730000D01*
X87630000Y-100390000D02*
X87630000Y-97730000D01*
X86360000Y-100390000D02*
X85030000Y-100390000D01*
X85030000Y-100390000D02*
X85030000Y-99060000D01*
D10*
X92525000Y-104325000D02*
X92300000Y-104325000D01*
X92525000Y-111575000D02*
X92200000Y-111575000D01*
X85275000Y-111575000D02*
X85600000Y-111575000D01*
X85275000Y-104325000D02*
X85600000Y-104325000D01*
X92525000Y-104325000D02*
X92525000Y-104650000D01*
X85275000Y-104325000D02*
X85275000Y-104650000D01*
X85275000Y-111575000D02*
X85275000Y-111250000D01*
X92525000Y-111575000D02*
X92525000Y-111250000D01*
X92300000Y-104325000D02*
X92300000Y-102900000D01*
D11*
X81383000Y-102727000D02*
X81383000Y-118507000D01*
X81383000Y-118507000D02*
X72033000Y-118507000D01*
X72033000Y-118507000D02*
X72033000Y-102727000D01*
X72033000Y-102727000D02*
X81383000Y-102727000D01*
X71783000Y-102477000D02*
X71783000Y-105017000D01*
X71783000Y-102477000D02*
X74323000Y-102477000D01*
D12*
X71755000Y-97790000D02*
X83185000Y-97790000D01*
X83185000Y-97790000D02*
X83185000Y-80010000D01*
X83185000Y-80010000D02*
X71755000Y-80010000D01*
X71755000Y-80010000D02*
X71755000Y-97790000D01*
D11*
X83125000Y-115510000D02*
X83125000Y-118170000D01*
X88265000Y-115510000D02*
X83125000Y-115510000D01*
X88265000Y-118170000D02*
X83125000Y-118170000D01*
X88265000Y-115510000D02*
X88265000Y-118170000D01*
X89535000Y-115510000D02*
X90865000Y-115510000D01*
X90865000Y-115510000D02*
X90865000Y-116840000D01*
X97730000Y-114360000D02*
X100390000Y-114360000D01*
X97730000Y-104140000D02*
X97730000Y-114360000D01*
X100390000Y-104140000D02*
X100390000Y-114360000D01*
X97730000Y-104140000D02*
X100390000Y-104140000D01*
X97730000Y-102870000D02*
X97730000Y-101540000D01*
X97730000Y-101540000D02*
X99060000Y-101540000D01*
X75534733Y-100836000D02*
X75877267Y-100836000D01*
X75534733Y-101856000D02*
X75877267Y-101856000D01*
X97103000Y-117067000D02*
X99563000Y-117067000D01*
X99563000Y-117067000D02*
X99563000Y-115597000D01*
X99563000Y-115597000D02*
X97103000Y-115597000D01*
X92207000Y-117067000D02*
X94667000Y-117067000D01*
X92207000Y-115597000D02*
X92207000Y-117067000D01*
X94667000Y-115597000D02*
X92207000Y-115597000D01*
X95121000Y-113060267D02*
X95121000Y-112717733D01*
X96141000Y-113060267D02*
X96141000Y-112717733D01*
X93248267Y-113917000D02*
X92905733Y-113917000D01*
X93248267Y-114937000D02*
X92905733Y-114937000D01*
D10*
X83482380Y-99393333D02*
X84196666Y-99393333D01*
X84339523Y-99440952D01*
X84434761Y-99536190D01*
X84482380Y-99679047D01*
X84482380Y-99774285D01*
X83815714Y-98488571D02*
X84482380Y-98488571D01*
X83434761Y-98726666D02*
X84149047Y-98964761D01*
X84149047Y-98345714D01*
X94402380Y-108711904D02*
X95211904Y-108711904D01*
X95307142Y-108664285D01*
X95354761Y-108616666D01*
X95402380Y-108521428D01*
X95402380Y-108330952D01*
X95354761Y-108235714D01*
X95307142Y-108188095D01*
X95211904Y-108140476D01*
X94402380Y-108140476D01*
X94497619Y-107711904D02*
X94450000Y-107664285D01*
X94402380Y-107569047D01*
X94402380Y-107330952D01*
X94450000Y-107235714D01*
X94497619Y-107188095D01*
X94592857Y-107140476D01*
X94688095Y-107140476D01*
X94830952Y-107188095D01*
X95402380Y-107759523D01*
X95402380Y-107140476D01*
X80311666Y-100925380D02*
X80311666Y-101639666D01*
X80264047Y-101782523D01*
X80168809Y-101877761D01*
X80025952Y-101925380D01*
X79930714Y-101925380D01*
X80692619Y-100925380D02*
X81311666Y-100925380D01*
X80978333Y-101306333D01*
X81121190Y-101306333D01*
X81216428Y-101353952D01*
X81264047Y-101401571D01*
X81311666Y-101496809D01*
X81311666Y-101734904D01*
X81264047Y-101830142D01*
X81216428Y-101877761D01*
X81121190Y-101925380D01*
X80835476Y-101925380D01*
X80740238Y-101877761D01*
X80692619Y-101830142D01*
D13*
X76708095Y-78827380D02*
X76708095Y-79636904D01*
X76755714Y-79732142D01*
X76803333Y-79779761D01*
X76898571Y-79827380D01*
X77089047Y-79827380D01*
X77184285Y-79779761D01*
X77231904Y-79732142D01*
X77279523Y-79636904D01*
X77279523Y-78827380D01*
X78279523Y-79827380D02*
X77708095Y-79827380D01*
X77993809Y-79827380D02*
X77993809Y-78827380D01*
X77898571Y-78970238D01*
X77803333Y-79065476D01*
X77708095Y-79113095D01*
D10*
X91527380Y-118443333D02*
X92241666Y-118443333D01*
X92384523Y-118490952D01*
X92479761Y-118586190D01*
X92527380Y-118729047D01*
X92527380Y-118824285D01*
X92527380Y-117443333D02*
X92527380Y-118014761D01*
X92527380Y-117729047D02*
X91527380Y-117729047D01*
X91670238Y-117824285D01*
X91765476Y-117919523D01*
X91813095Y-118014761D01*
X96186666Y-102957380D02*
X96186666Y-103671666D01*
X96139047Y-103814523D01*
X96043809Y-103909761D01*
X95900952Y-103957380D01*
X95805714Y-103957380D01*
X96615238Y-103052619D02*
X96662857Y-103005000D01*
X96758095Y-102957380D01*
X96996190Y-102957380D01*
X97091428Y-103005000D01*
X97139047Y-103052619D01*
X97186666Y-103147857D01*
X97186666Y-103243095D01*
X97139047Y-103385952D01*
X96567619Y-103957380D01*
X97186666Y-103957380D01*
X77938333Y-102052380D02*
X77605000Y-101576190D01*
X77366904Y-102052380D02*
X77366904Y-101052380D01*
X77747857Y-101052380D01*
X77843095Y-101100000D01*
X77890714Y-101147619D01*
X77938333Y-101242857D01*
X77938333Y-101385714D01*
X77890714Y-101480952D01*
X77843095Y-101528571D01*
X77747857Y-101576190D01*
X77366904Y-101576190D01*
X78890714Y-102052380D02*
X78319285Y-102052380D01*
X78605000Y-102052380D02*
X78605000Y-101052380D01*
X78509761Y-101195238D01*
X78414523Y-101290476D01*
X78319285Y-101338095D01*
X97164904Y-118214380D02*
X97164904Y-117214380D01*
X97403000Y-117214380D01*
X97545857Y-117262000D01*
X97641095Y-117357238D01*
X97688714Y-117452476D01*
X97736333Y-117642952D01*
X97736333Y-117785809D01*
X97688714Y-117976285D01*
X97641095Y-118071523D01*
X97545857Y-118166761D01*
X97403000Y-118214380D01*
X97164904Y-118214380D01*
X98688714Y-118214380D02*
X98117285Y-118214380D01*
X98403000Y-118214380D02*
X98403000Y-117214380D01*
X98307761Y-117357238D01*
X98212523Y-117452476D01*
X98117285Y-117500095D01*
X93241904Y-118562380D02*
X93241904Y-117562380D01*
X93480000Y-117562380D01*
X93622857Y-117610000D01*
X93718095Y-117705238D01*
X93765714Y-117800476D01*
X93813333Y-117990952D01*
X93813333Y-118133809D01*
X93765714Y-118324285D01*
X93718095Y-118419523D01*
X93622857Y-118514761D01*
X93480000Y-118562380D01*
X93241904Y-118562380D01*
X94194285Y-117657619D02*
X94241904Y-117610000D01*
X94337142Y-117562380D01*
X94575238Y-117562380D01*
X94670476Y-117610000D01*
X94718095Y-117657619D01*
X94765714Y-117752857D01*
X94765714Y-117848095D01*
X94718095Y-117990952D01*
X94146666Y-118562380D01*
X94765714Y-118562380D01*
X93813333Y-113341380D02*
X93480000Y-112865190D01*
X93241904Y-113341380D02*
X93241904Y-112341380D01*
X93622857Y-112341380D01*
X93718095Y-112389000D01*
X93765714Y-112436619D01*
X93813333Y-112531857D01*
X93813333Y-112674714D01*
X93765714Y-112769952D01*
X93718095Y-112817571D01*
X93622857Y-112865190D01*
X93241904Y-112865190D01*
X94194285Y-112436619D02*
X94241904Y-112389000D01*
X94337142Y-112341380D01*
X94575238Y-112341380D01*
X94670476Y-112389000D01*
X94718095Y-112436619D01*
X94765714Y-112531857D01*
X94765714Y-112627095D01*
X94718095Y-112769952D01*
X94146666Y-113341380D01*
X94765714Y-113341380D01*
X90003333Y-114752380D02*
X89670000Y-114276190D01*
X89431904Y-114752380D02*
X89431904Y-113752380D01*
X89812857Y-113752380D01*
X89908095Y-113800000D01*
X89955714Y-113847619D01*
X90003333Y-113942857D01*
X90003333Y-114085714D01*
X89955714Y-114180952D01*
X89908095Y-114228571D01*
X89812857Y-114276190D01*
X89431904Y-114276190D01*
X90336666Y-113752380D02*
X90955714Y-113752380D01*
X90622380Y-114133333D01*
X90765238Y-114133333D01*
X90860476Y-114180952D01*
X90908095Y-114228571D01*
X90955714Y-114323809D01*
X90955714Y-114561904D01*
X90908095Y-114657142D01*
X90860476Y-114704761D01*
X90765238Y-114752380D01*
X90479523Y-114752380D01*
X90384285Y-114704761D01*
X90336666Y-114657142D01*
M02*
