G04 #@! TF.GenerationSoftware,KiCad,Pcbnew,5.1.2*
G04 #@! TF.CreationDate,2019-05-25T23:05:01-04:00*
G04 #@! TF.ProjectId,skateboardController,736b6174-6562-46f6-9172-64436f6e7472,rev?*
G04 #@! TF.SameCoordinates,Original*
G04 #@! TF.FileFunction,Legend,Bot*
G04 #@! TF.FilePolarity,Positive*
%FSLAX46Y46*%
G04 Gerber Fmt 4.6, Leading zero omitted, Abs format (unit mm)*
G04 Created by KiCad (PCBNEW 5.1.2) date 2019-05-25 23:05:01*
%MOMM*%
%LPD*%
G04 APERTURE LIST*
%ADD10C,0.150000*%
G04 APERTURE END LIST*
D10*
X79082380Y-88361428D02*
X80082380Y-88599523D01*
X79368095Y-88789999D01*
X80082380Y-88980476D01*
X79082380Y-89218571D01*
X80082380Y-89599523D02*
X79415714Y-89599523D01*
X79082380Y-89599523D02*
X79130000Y-89551904D01*
X79177619Y-89599523D01*
X79130000Y-89647142D01*
X79082380Y-89599523D01*
X79177619Y-89599523D01*
X80082380Y-90075714D02*
X79415714Y-90075714D01*
X79606190Y-90075714D02*
X79510952Y-90123333D01*
X79463333Y-90170952D01*
X79415714Y-90266190D01*
X79415714Y-90361428D01*
X80034761Y-91075714D02*
X80082380Y-90980476D01*
X80082380Y-90789999D01*
X80034761Y-90694761D01*
X79939523Y-90647142D01*
X79558571Y-90647142D01*
X79463333Y-90694761D01*
X79415714Y-90789999D01*
X79415714Y-90980476D01*
X79463333Y-91075714D01*
X79558571Y-91123333D01*
X79653809Y-91123333D01*
X79749047Y-90647142D01*
X80082380Y-91694761D02*
X80034761Y-91599523D01*
X79939523Y-91551904D01*
X79082380Y-91551904D01*
X80034761Y-92456666D02*
X80082380Y-92361428D01*
X80082380Y-92170952D01*
X80034761Y-92075714D01*
X79939523Y-92028095D01*
X79558571Y-92028095D01*
X79463333Y-92075714D01*
X79415714Y-92170952D01*
X79415714Y-92361428D01*
X79463333Y-92456666D01*
X79558571Y-92504285D01*
X79653809Y-92504285D01*
X79749047Y-92028095D01*
X80034761Y-92885238D02*
X80082380Y-92980476D01*
X80082380Y-93170952D01*
X80034761Y-93266190D01*
X79939523Y-93313809D01*
X79891904Y-93313809D01*
X79796666Y-93266190D01*
X79749047Y-93170952D01*
X79749047Y-93028095D01*
X79701428Y-92932857D01*
X79606190Y-92885238D01*
X79558571Y-92885238D01*
X79463333Y-92932857D01*
X79415714Y-93028095D01*
X79415714Y-93170952D01*
X79463333Y-93266190D01*
X80034761Y-93694761D02*
X80082380Y-93789999D01*
X80082380Y-93980476D01*
X80034761Y-94075714D01*
X79939523Y-94123333D01*
X79891904Y-94123333D01*
X79796666Y-94075714D01*
X79749047Y-93980476D01*
X79749047Y-93837619D01*
X79701428Y-93742380D01*
X79606190Y-93694761D01*
X79558571Y-93694761D01*
X79463333Y-93742380D01*
X79415714Y-93837619D01*
X79415714Y-93980476D01*
X79463333Y-94075714D01*
X80034761Y-95266190D02*
X80082380Y-95409047D01*
X80082380Y-95647142D01*
X80034761Y-95742380D01*
X79987142Y-95789999D01*
X79891904Y-95837619D01*
X79796666Y-95837619D01*
X79701428Y-95789999D01*
X79653809Y-95742380D01*
X79606190Y-95647142D01*
X79558571Y-95456666D01*
X79510952Y-95361428D01*
X79463333Y-95313809D01*
X79368095Y-95266190D01*
X79272857Y-95266190D01*
X79177619Y-95313809D01*
X79130000Y-95361428D01*
X79082380Y-95456666D01*
X79082380Y-95694761D01*
X79130000Y-95837619D01*
X80034761Y-96647142D02*
X80082380Y-96551904D01*
X80082380Y-96361428D01*
X80034761Y-96266190D01*
X79939523Y-96218571D01*
X79558571Y-96218571D01*
X79463333Y-96266190D01*
X79415714Y-96361428D01*
X79415714Y-96551904D01*
X79463333Y-96647142D01*
X79558571Y-96694761D01*
X79653809Y-96694761D01*
X79749047Y-96218571D01*
X80082380Y-97123333D02*
X79415714Y-97123333D01*
X79606190Y-97123333D02*
X79510952Y-97170952D01*
X79463333Y-97218571D01*
X79415714Y-97313809D01*
X79415714Y-97409047D01*
X79415714Y-97647142D02*
X80082380Y-97885238D01*
X79415714Y-98123333D01*
X80082380Y-98647142D02*
X80034761Y-98551904D01*
X79987142Y-98504285D01*
X79891904Y-98456666D01*
X79606190Y-98456666D01*
X79510952Y-98504285D01*
X79463333Y-98551904D01*
X79415714Y-98647142D01*
X79415714Y-98789999D01*
X79463333Y-98885238D01*
X79510952Y-98932857D01*
X79606190Y-98980476D01*
X79891904Y-98980476D01*
X79987142Y-98932857D01*
X80034761Y-98885238D01*
X80082380Y-98789999D01*
X80082380Y-98647142D01*
X79987142Y-100742380D02*
X80034761Y-100694761D01*
X80082380Y-100551904D01*
X80082380Y-100456666D01*
X80034761Y-100313809D01*
X79939523Y-100218571D01*
X79844285Y-100170952D01*
X79653809Y-100123333D01*
X79510952Y-100123333D01*
X79320476Y-100170952D01*
X79225238Y-100218571D01*
X79130000Y-100313809D01*
X79082380Y-100456666D01*
X79082380Y-100551904D01*
X79130000Y-100694761D01*
X79177619Y-100742380D01*
X80082380Y-101313809D02*
X80034761Y-101218571D01*
X79987142Y-101170952D01*
X79891904Y-101123333D01*
X79606190Y-101123333D01*
X79510952Y-101170952D01*
X79463333Y-101218571D01*
X79415714Y-101313809D01*
X79415714Y-101456666D01*
X79463333Y-101551904D01*
X79510952Y-101599523D01*
X79606190Y-101647142D01*
X79891904Y-101647142D01*
X79987142Y-101599523D01*
X80034761Y-101551904D01*
X80082380Y-101456666D01*
X80082380Y-101313809D01*
X79415714Y-102075714D02*
X80082380Y-102075714D01*
X79510952Y-102075714D02*
X79463333Y-102123333D01*
X79415714Y-102218571D01*
X79415714Y-102361428D01*
X79463333Y-102456666D01*
X79558571Y-102504285D01*
X80082380Y-102504285D01*
X79415714Y-102837619D02*
X79415714Y-103218571D01*
X79082380Y-102980476D02*
X79939523Y-102980476D01*
X80034761Y-103028095D01*
X80082380Y-103123333D01*
X80082380Y-103218571D01*
X80082380Y-103551904D02*
X79415714Y-103551904D01*
X79606190Y-103551904D02*
X79510952Y-103599523D01*
X79463333Y-103647142D01*
X79415714Y-103742380D01*
X79415714Y-103837619D01*
X80082380Y-104313809D02*
X80034761Y-104218571D01*
X79987142Y-104170952D01*
X79891904Y-104123333D01*
X79606190Y-104123333D01*
X79510952Y-104170952D01*
X79463333Y-104218571D01*
X79415714Y-104313809D01*
X79415714Y-104456666D01*
X79463333Y-104551904D01*
X79510952Y-104599523D01*
X79606190Y-104647142D01*
X79891904Y-104647142D01*
X79987142Y-104599523D01*
X80034761Y-104551904D01*
X80082380Y-104456666D01*
X80082380Y-104313809D01*
X80082380Y-105218571D02*
X80034761Y-105123333D01*
X79939523Y-105075714D01*
X79082380Y-105075714D01*
X80082380Y-105742380D02*
X80034761Y-105647142D01*
X79939523Y-105599523D01*
X79082380Y-105599523D01*
X80034761Y-106504285D02*
X80082380Y-106409047D01*
X80082380Y-106218571D01*
X80034761Y-106123333D01*
X79939523Y-106075714D01*
X79558571Y-106075714D01*
X79463333Y-106123333D01*
X79415714Y-106218571D01*
X79415714Y-106409047D01*
X79463333Y-106504285D01*
X79558571Y-106551904D01*
X79653809Y-106551904D01*
X79749047Y-106075714D01*
X80082380Y-106980476D02*
X79415714Y-106980476D01*
X79606190Y-106980476D02*
X79510952Y-107028095D01*
X79463333Y-107075714D01*
X79415714Y-107170952D01*
X79415714Y-107266190D01*
X81732380Y-81409047D02*
X80732380Y-81409047D01*
X81732380Y-81837619D02*
X81208571Y-81837619D01*
X81113333Y-81790000D01*
X81065714Y-81694761D01*
X81065714Y-81551904D01*
X81113333Y-81456666D01*
X81160952Y-81409047D01*
X81065714Y-82170952D02*
X81065714Y-82551904D01*
X80732380Y-82313809D02*
X81589523Y-82313809D01*
X81684761Y-82361428D01*
X81732380Y-82456666D01*
X81732380Y-82551904D01*
X81065714Y-82742380D02*
X81065714Y-83123333D01*
X80732380Y-82885238D02*
X81589523Y-82885238D01*
X81684761Y-82932857D01*
X81732380Y-83028095D01*
X81732380Y-83123333D01*
X81065714Y-83456666D02*
X82065714Y-83456666D01*
X81113333Y-83456666D02*
X81065714Y-83551904D01*
X81065714Y-83742380D01*
X81113333Y-83837619D01*
X81160952Y-83885238D01*
X81256190Y-83932857D01*
X81541904Y-83932857D01*
X81637142Y-83885238D01*
X81684761Y-83837619D01*
X81732380Y-83742380D01*
X81732380Y-83551904D01*
X81684761Y-83456666D01*
X81684761Y-84313809D02*
X81732380Y-84409047D01*
X81732380Y-84599523D01*
X81684761Y-84694761D01*
X81589523Y-84742380D01*
X81541904Y-84742380D01*
X81446666Y-84694761D01*
X81399047Y-84599523D01*
X81399047Y-84456666D01*
X81351428Y-84361428D01*
X81256190Y-84313809D01*
X81208571Y-84313809D01*
X81113333Y-84361428D01*
X81065714Y-84456666D01*
X81065714Y-84599523D01*
X81113333Y-84694761D01*
X81637142Y-85170952D02*
X81684761Y-85218571D01*
X81732380Y-85170952D01*
X81684761Y-85123333D01*
X81637142Y-85170952D01*
X81732380Y-85170952D01*
X81113333Y-85170952D02*
X81160952Y-85218571D01*
X81208571Y-85170952D01*
X81160952Y-85123333D01*
X81113333Y-85170952D01*
X81208571Y-85170952D01*
X80684761Y-86361428D02*
X81970476Y-85504285D01*
X80684761Y-87409047D02*
X81970476Y-86551904D01*
X81065714Y-88170952D02*
X81875238Y-88170952D01*
X81970476Y-88123333D01*
X82018095Y-88075714D01*
X82065714Y-87980476D01*
X82065714Y-87837619D01*
X82018095Y-87742380D01*
X81684761Y-88170952D02*
X81732380Y-88075714D01*
X81732380Y-87885238D01*
X81684761Y-87790000D01*
X81637142Y-87742380D01*
X81541904Y-87694761D01*
X81256190Y-87694761D01*
X81160952Y-87742380D01*
X81113333Y-87790000D01*
X81065714Y-87885238D01*
X81065714Y-88075714D01*
X81113333Y-88170952D01*
X81732380Y-88647142D02*
X81065714Y-88647142D01*
X80732380Y-88647142D02*
X80780000Y-88599523D01*
X80827619Y-88647142D01*
X80780000Y-88694761D01*
X80732380Y-88647142D01*
X80827619Y-88647142D01*
X81065714Y-88980476D02*
X81065714Y-89361428D01*
X80732380Y-89123333D02*
X81589523Y-89123333D01*
X81684761Y-89170952D01*
X81732380Y-89266190D01*
X81732380Y-89361428D01*
X81732380Y-89694761D02*
X80732380Y-89694761D01*
X81732380Y-90123333D02*
X81208571Y-90123333D01*
X81113333Y-90075714D01*
X81065714Y-89980476D01*
X81065714Y-89837619D01*
X81113333Y-89742380D01*
X81160952Y-89694761D01*
X81065714Y-91028095D02*
X81732380Y-91028095D01*
X81065714Y-90599523D02*
X81589523Y-90599523D01*
X81684761Y-90647142D01*
X81732380Y-90742380D01*
X81732380Y-90885238D01*
X81684761Y-90980476D01*
X81637142Y-91028095D01*
X81732380Y-91504285D02*
X80732380Y-91504285D01*
X81113333Y-91504285D02*
X81065714Y-91599523D01*
X81065714Y-91790000D01*
X81113333Y-91885238D01*
X81160952Y-91932857D01*
X81256190Y-91980476D01*
X81541904Y-91980476D01*
X81637142Y-91932857D01*
X81684761Y-91885238D01*
X81732380Y-91790000D01*
X81732380Y-91599523D01*
X81684761Y-91504285D01*
X81637142Y-92409047D02*
X81684761Y-92456666D01*
X81732380Y-92409047D01*
X81684761Y-92361428D01*
X81637142Y-92409047D01*
X81732380Y-92409047D01*
X81684761Y-93313809D02*
X81732380Y-93218571D01*
X81732380Y-93028095D01*
X81684761Y-92932857D01*
X81637142Y-92885238D01*
X81541904Y-92837619D01*
X81256190Y-92837619D01*
X81160952Y-92885238D01*
X81113333Y-92932857D01*
X81065714Y-93028095D01*
X81065714Y-93218571D01*
X81113333Y-93313809D01*
X81732380Y-93885238D02*
X81684761Y-93790000D01*
X81637142Y-93742380D01*
X81541904Y-93694761D01*
X81256190Y-93694761D01*
X81160952Y-93742380D01*
X81113333Y-93790000D01*
X81065714Y-93885238D01*
X81065714Y-94028095D01*
X81113333Y-94123333D01*
X81160952Y-94170952D01*
X81256190Y-94218571D01*
X81541904Y-94218571D01*
X81637142Y-94170952D01*
X81684761Y-94123333D01*
X81732380Y-94028095D01*
X81732380Y-93885238D01*
X81732380Y-94647142D02*
X81065714Y-94647142D01*
X81160952Y-94647142D02*
X81113333Y-94694761D01*
X81065714Y-94790000D01*
X81065714Y-94932857D01*
X81113333Y-95028095D01*
X81208571Y-95075714D01*
X81732380Y-95075714D01*
X81208571Y-95075714D02*
X81113333Y-95123333D01*
X81065714Y-95218571D01*
X81065714Y-95361428D01*
X81113333Y-95456666D01*
X81208571Y-95504285D01*
X81732380Y-95504285D01*
X80684761Y-96694761D02*
X81970476Y-95837619D01*
X80732380Y-97313809D02*
X81446666Y-97313809D01*
X81589523Y-97266190D01*
X81684761Y-97170952D01*
X81732380Y-97028095D01*
X81732380Y-96932857D01*
X81684761Y-97742380D02*
X81732380Y-97885238D01*
X81732380Y-98123333D01*
X81684761Y-98218571D01*
X81637142Y-98266190D01*
X81541904Y-98313809D01*
X81446666Y-98313809D01*
X81351428Y-98266190D01*
X81303809Y-98218571D01*
X81256190Y-98123333D01*
X81208571Y-97932857D01*
X81160952Y-97837619D01*
X81113333Y-97790000D01*
X81018095Y-97742380D01*
X80922857Y-97742380D01*
X80827619Y-97790000D01*
X80780000Y-97837619D01*
X80732380Y-97932857D01*
X80732380Y-98170952D01*
X80780000Y-98313809D01*
X81732380Y-98742380D02*
X80732380Y-98742380D01*
X81732380Y-99170952D02*
X81208571Y-99170952D01*
X81113333Y-99123333D01*
X81065714Y-99028095D01*
X81065714Y-98885238D01*
X81113333Y-98789999D01*
X81160952Y-98742380D01*
X81732380Y-100075714D02*
X81208571Y-100075714D01*
X81113333Y-100028095D01*
X81065714Y-99932857D01*
X81065714Y-99742380D01*
X81113333Y-99647142D01*
X81684761Y-100075714D02*
X81732380Y-99980476D01*
X81732380Y-99742380D01*
X81684761Y-99647142D01*
X81589523Y-99599523D01*
X81494285Y-99599523D01*
X81399047Y-99647142D01*
X81351428Y-99742380D01*
X81351428Y-99980476D01*
X81303809Y-100075714D01*
X81732380Y-100551904D02*
X80732380Y-100551904D01*
X81113333Y-100551904D02*
X81065714Y-100647142D01*
X81065714Y-100837619D01*
X81113333Y-100932857D01*
X81160952Y-100980476D01*
X81256190Y-101028095D01*
X81541904Y-101028095D01*
X81637142Y-100980476D01*
X81684761Y-100932857D01*
X81732380Y-100837619D01*
X81732380Y-100647142D01*
X81684761Y-100551904D01*
X81065714Y-101313809D02*
X81065714Y-101694761D01*
X80732380Y-101456666D02*
X81589523Y-101456666D01*
X81684761Y-101504285D01*
X81732380Y-101599523D01*
X81732380Y-101694761D01*
X81732380Y-102456666D02*
X81208571Y-102456666D01*
X81113333Y-102409047D01*
X81065714Y-102313809D01*
X81065714Y-102123333D01*
X81113333Y-102028095D01*
X81684761Y-102456666D02*
X81732380Y-102361428D01*
X81732380Y-102123333D01*
X81684761Y-102028095D01*
X81589523Y-101980476D01*
X81494285Y-101980476D01*
X81399047Y-102028095D01*
X81351428Y-102123333D01*
X81351428Y-102361428D01*
X81303809Y-102456666D01*
X81732380Y-102932857D02*
X81065714Y-102932857D01*
X80732380Y-102932857D02*
X80780000Y-102885238D01*
X80827619Y-102932857D01*
X80780000Y-102980476D01*
X80732380Y-102932857D01*
X80827619Y-102932857D01*
X80684761Y-104123333D02*
X81970476Y-103266190D01*
X80732380Y-104361428D02*
X81732380Y-104599523D01*
X81018095Y-104789999D01*
X81732380Y-104980476D01*
X80732380Y-105218571D01*
X81732380Y-105599523D02*
X81065714Y-105599523D01*
X80732380Y-105599523D02*
X80780000Y-105551904D01*
X80827619Y-105599523D01*
X80780000Y-105647142D01*
X80732380Y-105599523D01*
X80827619Y-105599523D01*
X81732380Y-106075714D02*
X81065714Y-106075714D01*
X81256190Y-106075714D02*
X81160952Y-106123333D01*
X81113333Y-106170952D01*
X81065714Y-106266190D01*
X81065714Y-106361428D01*
X81684761Y-107075714D02*
X81732380Y-106980476D01*
X81732380Y-106789999D01*
X81684761Y-106694761D01*
X81589523Y-106647142D01*
X81208571Y-106647142D01*
X81113333Y-106694761D01*
X81065714Y-106789999D01*
X81065714Y-106980476D01*
X81113333Y-107075714D01*
X81208571Y-107123333D01*
X81303809Y-107123333D01*
X81399047Y-106647142D01*
X81732380Y-107694761D02*
X81684761Y-107599523D01*
X81589523Y-107551904D01*
X80732380Y-107551904D01*
X81684761Y-108456666D02*
X81732380Y-108361428D01*
X81732380Y-108170952D01*
X81684761Y-108075714D01*
X81589523Y-108028095D01*
X81208571Y-108028095D01*
X81113333Y-108075714D01*
X81065714Y-108170952D01*
X81065714Y-108361428D01*
X81113333Y-108456666D01*
X81208571Y-108504285D01*
X81303809Y-108504285D01*
X81399047Y-108028095D01*
X81684761Y-108885238D02*
X81732380Y-108980476D01*
X81732380Y-109170952D01*
X81684761Y-109266190D01*
X81589523Y-109313809D01*
X81541904Y-109313809D01*
X81446666Y-109266190D01*
X81399047Y-109170952D01*
X81399047Y-109028095D01*
X81351428Y-108932857D01*
X81256190Y-108885238D01*
X81208571Y-108885238D01*
X81113333Y-108932857D01*
X81065714Y-109028095D01*
X81065714Y-109170952D01*
X81113333Y-109266190D01*
X81684761Y-109694761D02*
X81732380Y-109789999D01*
X81732380Y-109980476D01*
X81684761Y-110075714D01*
X81589523Y-110123333D01*
X81541904Y-110123333D01*
X81446666Y-110075714D01*
X81399047Y-109980476D01*
X81399047Y-109837619D01*
X81351428Y-109742380D01*
X81256190Y-109694761D01*
X81208571Y-109694761D01*
X81113333Y-109742380D01*
X81065714Y-109837619D01*
X81065714Y-109980476D01*
X81113333Y-110075714D01*
X81684761Y-110504285D02*
X81732380Y-110647142D01*
X81732380Y-110885238D01*
X81684761Y-110980476D01*
X81637142Y-111028095D01*
X81541904Y-111075714D01*
X81446666Y-111075714D01*
X81351428Y-111028095D01*
X81303809Y-110980476D01*
X81256190Y-110885238D01*
X81208571Y-110694761D01*
X81160952Y-110599523D01*
X81113333Y-110551904D01*
X81018095Y-110504285D01*
X80922857Y-110504285D01*
X80827619Y-110551904D01*
X80780000Y-110599523D01*
X80732380Y-110694761D01*
X80732380Y-110932857D01*
X80780000Y-111075714D01*
X81684761Y-111885238D02*
X81732380Y-111789999D01*
X81732380Y-111599523D01*
X81684761Y-111504285D01*
X81589523Y-111456666D01*
X81208571Y-111456666D01*
X81113333Y-111504285D01*
X81065714Y-111599523D01*
X81065714Y-111789999D01*
X81113333Y-111885238D01*
X81208571Y-111932857D01*
X81303809Y-111932857D01*
X81399047Y-111456666D01*
X81732380Y-112361428D02*
X81065714Y-112361428D01*
X81256190Y-112361428D02*
X81160952Y-112409047D01*
X81113333Y-112456666D01*
X81065714Y-112551904D01*
X81065714Y-112647142D01*
X81065714Y-112885238D02*
X81732380Y-113123333D01*
X81065714Y-113361428D01*
X81732380Y-113885238D02*
X81684761Y-113789999D01*
X81637142Y-113742380D01*
X81541904Y-113694761D01*
X81256190Y-113694761D01*
X81160952Y-113742380D01*
X81113333Y-113789999D01*
X81065714Y-113885238D01*
X81065714Y-114028095D01*
X81113333Y-114123333D01*
X81160952Y-114170952D01*
X81256190Y-114218571D01*
X81541904Y-114218571D01*
X81637142Y-114170952D01*
X81684761Y-114123333D01*
X81732380Y-114028095D01*
X81732380Y-113885238D01*
X82715714Y-89932857D02*
X83382380Y-90170952D01*
X82715714Y-90409047D01*
X82382380Y-90980476D02*
X82382380Y-91075714D01*
X82430000Y-91170952D01*
X82477619Y-91218571D01*
X82572857Y-91266190D01*
X82763333Y-91313809D01*
X83001428Y-91313809D01*
X83191904Y-91266190D01*
X83287142Y-91218571D01*
X83334761Y-91170952D01*
X83382380Y-91075714D01*
X83382380Y-90980476D01*
X83334761Y-90885238D01*
X83287142Y-90837619D01*
X83191904Y-90790000D01*
X83001428Y-90742380D01*
X82763333Y-90742380D01*
X82572857Y-90790000D01*
X82477619Y-90837619D01*
X82430000Y-90885238D01*
X82382380Y-90980476D01*
X83287142Y-91742380D02*
X83334761Y-91790000D01*
X83382380Y-91742380D01*
X83334761Y-91694761D01*
X83287142Y-91742380D01*
X83382380Y-91742380D01*
X82477619Y-92170952D02*
X82430000Y-92218571D01*
X82382380Y-92313809D01*
X82382380Y-92551904D01*
X82430000Y-92647142D01*
X82477619Y-92694761D01*
X82572857Y-92742380D01*
X82668095Y-92742380D01*
X82810952Y-92694761D01*
X83382380Y-92123333D01*
X83382380Y-92742380D01*
X83001428Y-93932857D02*
X83001428Y-94694761D01*
X82477619Y-95885238D02*
X82430000Y-95932857D01*
X82382380Y-96028095D01*
X82382380Y-96266190D01*
X82430000Y-96361428D01*
X82477619Y-96409047D01*
X82572857Y-96456666D01*
X82668095Y-96456666D01*
X82810952Y-96409047D01*
X83382380Y-95837619D01*
X83382380Y-96456666D01*
X82382380Y-97075714D02*
X82382380Y-97170952D01*
X82430000Y-97266190D01*
X82477619Y-97313809D01*
X82572857Y-97361428D01*
X82763333Y-97409047D01*
X83001428Y-97409047D01*
X83191904Y-97361428D01*
X83287142Y-97313809D01*
X83334761Y-97266190D01*
X83382380Y-97170952D01*
X83382380Y-97075714D01*
X83334761Y-96980476D01*
X83287142Y-96932857D01*
X83191904Y-96885238D01*
X83001428Y-96837619D01*
X82763333Y-96837619D01*
X82572857Y-96885238D01*
X82477619Y-96932857D01*
X82430000Y-96980476D01*
X82382380Y-97075714D01*
X83382380Y-98361428D02*
X83382380Y-97790000D01*
X83382380Y-98075714D02*
X82382380Y-98075714D01*
X82525238Y-97980476D01*
X82620476Y-97885238D01*
X82668095Y-97790000D01*
X83382380Y-98837619D02*
X83382380Y-99028095D01*
X83334761Y-99123333D01*
X83287142Y-99170952D01*
X83144285Y-99266190D01*
X82953809Y-99313809D01*
X82572857Y-99313809D01*
X82477619Y-99266190D01*
X82430000Y-99218571D01*
X82382380Y-99123333D01*
X82382380Y-98932857D01*
X82430000Y-98837619D01*
X82477619Y-98790000D01*
X82572857Y-98742380D01*
X82810952Y-98742380D01*
X82906190Y-98790000D01*
X82953809Y-98837619D01*
X83001428Y-98932857D01*
X83001428Y-99123333D01*
X82953809Y-99218571D01*
X82906190Y-99266190D01*
X82810952Y-99313809D01*
X83001428Y-99742380D02*
X83001428Y-100504285D01*
X82382380Y-101170952D02*
X82382380Y-101266190D01*
X82430000Y-101361428D01*
X82477619Y-101409047D01*
X82572857Y-101456666D01*
X82763333Y-101504285D01*
X83001428Y-101504285D01*
X83191904Y-101456666D01*
X83287142Y-101409047D01*
X83334761Y-101361428D01*
X83382380Y-101266190D01*
X83382380Y-101170952D01*
X83334761Y-101075714D01*
X83287142Y-101028095D01*
X83191904Y-100980476D01*
X83001428Y-100932857D01*
X82763333Y-100932857D01*
X82572857Y-100980476D01*
X82477619Y-101028095D01*
X82430000Y-101075714D01*
X82382380Y-101170952D01*
X82382380Y-102409047D02*
X82382380Y-101932857D01*
X82858571Y-101885238D01*
X82810952Y-101932857D01*
X82763333Y-102028095D01*
X82763333Y-102266190D01*
X82810952Y-102361428D01*
X82858571Y-102409047D01*
X82953809Y-102456666D01*
X83191904Y-102456666D01*
X83287142Y-102409047D01*
X83334761Y-102361428D01*
X83382380Y-102266190D01*
X83382380Y-102028095D01*
X83334761Y-101932857D01*
X83287142Y-101885238D01*
X83001428Y-102885238D02*
X83001428Y-103647142D01*
X82477619Y-104075714D02*
X82430000Y-104123333D01*
X82382380Y-104218571D01*
X82382380Y-104456666D01*
X82430000Y-104551904D01*
X82477619Y-104599523D01*
X82572857Y-104647142D01*
X82668095Y-104647142D01*
X82810952Y-104599523D01*
X83382380Y-104028095D01*
X83382380Y-104647142D01*
X82382380Y-105551904D02*
X82382380Y-105075714D01*
X82858571Y-105028095D01*
X82810952Y-105075714D01*
X82763333Y-105170952D01*
X82763333Y-105409047D01*
X82810952Y-105504285D01*
X82858571Y-105551904D01*
X82953809Y-105599523D01*
X83191904Y-105599523D01*
X83287142Y-105551904D01*
X83334761Y-105504285D01*
X83382380Y-105409047D01*
X83382380Y-105170952D01*
X83334761Y-105075714D01*
X83287142Y-105028095D01*
M02*
