M48
; DRILL file {KiCad 5.1.2} date Sat 25 May 2019 11:04:58 PM EDT
; FORMAT={-:-/ absolute / metric / decimal}
; #@! TF.CreationDate,2019-05-25T23:04:58-04:00
; #@! TF.GenerationSoftware,Kicad,Pcbnew,5.1.2
; #@! TF.FileFunction,Plated,1,2,PTH
FMAT,2
METRIC
T1C0.400
T2C0.800
T3C1.000
T4C1.016
%
G90
G05
T1
X73.025Y-100.711
X73.533Y-107.442
X75.692Y-99.568
X76.581Y-100.076
X79.883Y-106.807
X80.518Y-105.918
X81.288Y-108.131
X82.296Y-109.093
X87.757Y-107.95
X88.011Y-110.236
X88.265Y-113.665
X90.678Y-107.569
T2
X88.9Y-88.9
X88.9Y-86.36
X99.06Y-81.28
X91.44Y-81.28
X86.36Y-96.52
X91.44Y-91.44
X96.52Y-96.52
X96.52Y-93.98
X88.9Y-81.28
X86.36Y-88.9
X96.52Y-88.9
X93.98Y-93.98
X99.06Y-86.36
X99.06Y-93.98
X86.36Y-81.28
X96.52Y-81.28
X91.44Y-83.82
X91.44Y-96.52
X96.52Y-83.82
X88.9Y-93.98
X96.52Y-86.36
X88.9Y-83.82
X91.44Y-86.36
X91.44Y-93.98
X99.06Y-83.82
X99.06Y-88.9
X91.44Y-88.9
X88.9Y-96.52
X93.98Y-83.82
X88.9Y-91.44
X93.98Y-86.36
X99.06Y-96.52
X96.52Y-91.44
X93.98Y-91.44
X86.36Y-83.82
X86.36Y-91.44
X93.98Y-81.28
X93.98Y-88.9
X86.36Y-86.36
X93.98Y-96.52
X99.06Y-91.44
X86.36Y-93.98
T3
X99.06Y-102.87
X99.06Y-105.41
X99.06Y-107.95
X99.06Y-110.49
X99.06Y-113.03
X84.455Y-116.84
X86.995Y-116.84
X89.535Y-116.84
X86.36Y-99.06
X88.9Y-99.06
X91.44Y-99.06
X93.98Y-99.06
X96.52Y-99.06
X99.06Y-99.06
T4
X75.438Y-108.077
X75.438Y-110.617
X75.438Y-113.157
X77.978Y-108.077
X77.978Y-110.617
X77.978Y-113.157
T0
M30
